<svg xmlns="http://www.w3.org/2000/svg" viewBox="0 0 242.017 340">
  <rect width="242" height="340" rx="20"/>
  <path d="M242 323.64H85.06a1 1 0 01-.907-.587c-1.7-3.714-3.05-11.886-3.7-16.428a1.021 1.021 0 01.646-1.1.992.992 0 011.192.417c1.882 3.069 6.057 8.162 12.9 7.7a13.23 13.23 0 0011.643-9.322c1.882-6.08-.724-12.559-7.15-17.774l-.871-.706c-8.613-6.985-13.57-11.005-18.724-20.64-5.158 9.641-10.118 13.66-18.738 20.65l-.859.7c-6.425 5.215-9.031 11.694-7.149 17.774a13.232 13.232 0 0011.645 9.322c6.846.448 11.016-4.635 12.9-7.7a.99.99 0 011.193-.419 1.018 1.018 0 01.646 1.1c-.648 4.538-1.991 12.706-3.7 16.428a1 1 0 01-.906.587H0v-2.035h74.461a64.285 64.285 0 002.667-11.289 14.908 14.908 0 01-12.268 5.354 15.252 15.252 0 01-13.425-10.741c-2.143-6.924.7-14.206 7.809-19.972l.86-.7C69 277.046 73.9 273.072 79.2 262.553a.993.993 0 011.78 0c5.291 10.515 10.19 14.487 19.081 21.7l.872.706c7.106 5.767 9.953 13.048 7.81 19.972a15.252 15.252 0 01-13.424 10.741 14.913 14.913 0 01-12.269-5.355 64.447 64.447 0 002.667 11.291H242" fill="#fff"/>
  <path d="M242 239.687h-76.037a1.009 1.009 0 01-.851-1.543 208.419 208.419 0 0119.613-26.627 216.651 216.651 0 01-22.168-30.83 216.956 216.956 0 01-22.167 30.83A208.535 208.535 0 01160 238.144a1.008 1.008 0 01-.848 1.543H0v-2.013h157.328a202.424 202.424 0 00-19.028-25.487 1.006 1.006 0 010-1.343 213.592 213.592 0 0023.383-32.646 1 1 0 011.748 0 213.367 213.367 0 0023.385 32.649 1.011 1.011 0 010 1.343 202.334 202.334 0 00-19.031 25.484H242" fill="#e41c24"/>
  <path d="M86.868 155.373a1 1 0 01-.907-.581c-2.449-5.273-4.329-17.02-5.232-23.552a1 1 0 011.953-.418 14.135 14.135 0 0013.3 10.279 14.26 14.26 0 00-.044-28.507 14.041 14.041 0 00-5.739 1.392 1 1 0 01-1.265-.353 1.009 1.009 0 01.173-1.309 14.259 14.259 0 00-9.051-24.939 14.262 14.262 0 00-9.008 24.939 1.009 1.009 0 01.169 1.309 1 1 0 01-1.265.353 14.059 14.059 0 00-5.78-1.392 14.26 14.26 0 00.045 28.506 14.121 14.121 0 0013.255-10.279 1 1 0 011.953.416c-.726 5.259-2.688 18.08-5.231 23.554a1 1 0 01-.907.582H.017v-2.012h72.618c1.613-3.863 2.983-10.833 3.9-16.383a16.086 16.086 0 01-12.318 6.132 16.27 16.27 0 01-.044-32.529 16.012 16.012 0 012.963.338 16.271 16.271 0 0112.92-25.546 16.269 16.269 0 0112.961 25.545 15.849 15.849 0 012.919-.336 16.27 16.27 0 01.044 32.529 16.126 16.126 0 01-12.357-6.138c.914 5.551 2.285 12.522 3.9 16.385h154.494v2.015z" fill="#fff"/>
  <path d="M168.014 63.06a1 1 0 01-.957-.726 1.03 1.03 0 01.4-1.145 80.948 80.948 0 0017.292-15.732c6.358-7.931 6.148-15.948 3.831-20.807a10.875 10.875 0 00-10.113-6.6c-9.841.226-14.225 10.117-14.267 10.217a.994.994 0 01-1.832 0c-.042-.1-4.426-9.991-14.269-10.217-4.3-.114-8.093 2.369-10.11 6.6-2.318 4.858-2.528 12.875 3.833 20.807a80.872 80.872 0 0017.289 15.732 1.03 1.03 0 01.4 1.145 1 1 0 01-.957.726L0 62.042V60l155.359 1.018a81.158 81.158 0 01-15.085-14.266c-6.957-8.679-6.671-17.569-4.084-22.994A12.866 12.866 0 01148.145 16c8.514.2 13.28 6.511 15.139 9.678 1.861-3.164 6.626-9.478 15.139-9.678 5.1-.117 9.585 2.782 11.956 7.754 2.588 5.425 2.875 14.315-4.082 22.994a81.1 81.1 0 01-15.087 14.269H242v2.043z" fill="#e41c24"/>
</svg>
