<?xml version="1.0" encoding="UTF-8" standalone="no"?><!DOCTYPE svg PUBLIC "-//W3C//DTD SVG 1.1//EN" "http://www.w3.org/Graphics/SVG/1.1/DTD/svg11.dtd"><svg width="100%" height="100%" viewBox="0 0 241 361" version="1.1" xmlns="http://www.w3.org/2000/svg" xmlns:xlink="http://www.w3.org/1999/xlink" xml:space="preserve" xmlns:serif="http://www.serif.com/" style="fill-rule:evenodd;clip-rule:evenodd;stroke-linecap:round;stroke-linejoin:round;stroke-miterlimit:1.5;"><rect id="b1" x="0.493" y="0.801" width="240" height="360" style="fill:none;"/><clipPath id="_clip1"><rect x="0.493" y="0.801" width="240" height="360"/></clipPath><g clip-path="url(#_clip1)"><rect x="0.493" y="0.801" width="240" height="360" style="fill:#1e1e1e;"/><path d="M-50.962,311.448l358.837,-207.175" style="fill:none;stroke:#fff;stroke-width:6px;"/><path d="M-78.297,264.102l358.836,-207.175" style="fill:none;stroke:#fff;stroke-width:6px;"/><path d="M-64.63,287.775l358.837,-207.175" style="fill:none;stroke:#fff;stroke-width:6px;"/><g><path d="M107.653,203.31l0,15.399c0,0.686 0.556,1.242 1.243,1.242c0.685,0 1.242,-0.556 1.242,-1.242l0,-15.399c0,-0.686 -0.557,-1.243 -1.242,-1.243c-0.687,0 -1.243,0.557 -1.243,1.243Z" style="fill:#a68b82;fill-rule:nonzero;"/><path d="M103.155,219.546c-0.344,0.008 -0.753,0.055 -0.911,0.36c-0.174,0.335 0.091,0.733 0.389,0.965c0.958,0.746 2.272,0.772 3.487,0.766c1.035,-0.006 2.071,-0.012 3.108,-0.017c0.305,-0.003 0.668,-0.035 0.822,-0.299c0.081,-0.136 0.082,-0.301 0.082,-0.459c-0.003,-0.718 -0.004,-1.436 -0.006,-2.155l-0.068,-0.274c-0.248,-0.277 -1.454,-0.28 -1.792,-0.159c-0.414,0.15 -0.523,0.489 -0.842,0.756c-1.009,0.84 -3.036,0.486 -4.269,0.516Z" style="fill:#a68b82;fill-rule:nonzero;"/><path d="M120.707,203.31l0,15.399c0,0.686 0.556,1.242 1.243,1.242c0.686,0 1.243,-0.556 1.243,-1.242l0,-15.399c0,-0.686 -0.557,-1.243 -1.243,-1.243c-0.687,0 -1.243,0.557 -1.243,1.243Z" style="fill:#a68b82;fill-rule:nonzero;"/><path d="M116.21,219.546c-0.342,0.008 -0.754,0.055 -0.91,0.36c-0.174,0.335 0.091,0.733 0.388,0.965c0.956,0.746 2.273,0.772 3.485,0.766c1.037,-0.006 2.074,-0.012 3.111,-0.017c0.305,-0.003 0.668,-0.035 0.822,-0.299c0.08,-0.136 0.081,-0.301 0.081,-0.459c-0.001,-0.718 -0.004,-1.436 -0.005,-2.155l-0.069,-0.274c-0.248,-0.277 -1.454,-0.28 -1.792,-0.159c-0.413,0.15 -0.522,0.489 -0.842,0.756c-1.009,0.84 -3.035,0.486 -4.269,0.516Z" style="fill:#a68b82;fill-rule:nonzero;"/><path d="M84.44,182.508l0.282,0.277l-0.279,-0.278l-0.003,0.001l0.282,0.277l-0.279,-0.278c-0.012,0.012 -0.948,0.947 -2.437,1.852c-1.492,0.911 -3.52,1.771 -5.712,1.767c-1.603,-0.005 -3.309,-0.433 -5.127,-1.685c-1.815,-1.255 -3.742,-3.368 -5.617,-6.766c-0.332,-0.602 -1.088,-0.819 -1.689,-0.488c-0.601,0.332 -0.819,1.088 -0.487,1.689c2.01,3.642 4.165,6.077 6.38,7.609c2.208,1.534 4.475,2.131 6.54,2.126c2.886,-0.005 5.344,-1.109 7.085,-2.178c1.743,-1.075 2.786,-2.134 2.834,-2.183c0.482,-0.488 0.475,-1.275 -0.015,-1.757c-0.489,-0.481 -1.276,-0.475 -1.756,0.015l-0.002,0Z" style="fill:#d1ac9f;fill-rule:nonzero;"/><path d="M160.009,165.045c0,5.043 -11.475,42.41 -43.743,42.41c-32.152,0 -43.742,-37.367 -43.742,-42.41c0,-5.042 19.583,-9.131 43.742,-9.131c24.16,0 43.743,4.089 43.743,9.131Z" style="fill:#fde1d5;fill-rule:nonzero;"/><path d="M106.512,200.287c4.255,-2.241 -1.848,-8.065 -3.704,-9.701c-3.575,-3.15 -6.968,-6.257 -9.811,-10.114c-4.672,-6.339 -7.76,-13.927 -8.183,-21.77c-2.918,0.631 -5.403,1.349 -7.36,2.133c-1.335,8.93 2.536,20.077 8.139,26.93c3.279,4.012 7.264,7.577 11.673,10.302c2.279,1.409 6.507,3.662 9.246,2.22Z" style="fill:#fef0eb;fill-rule:nonzero;"/><path d="M72.771,164.077c-0.161,0.318 -0.247,0.641 -0.247,0.968c0,0.577 0.153,1.58 0.47,2.9c-0.141,-1.292 -0.223,-2.584 -0.223,-3.868Z" style="fill:#fffef7;fill-rule:nonzero;"/><path d="M151.177,159.545c0.291,9.182 -0.692,18.378 -6.347,26.08c-9.641,13.129 -27.12,17.061 -42.586,16.29c-2.226,-0.111 -4.473,-0.319 -6.725,-0.608c5.677,3.711 12.541,6.148 20.747,6.148c32.268,0 43.743,-37.367 43.743,-42.41c0,-2.066 -3.291,-3.971 -8.832,-5.5Z" style="fill:#d7c1b8;fill-rule:nonzero;"/><path d="M160.009,165.045c0,5.043 -19.583,9.132 -43.743,9.132c-24.159,0 -43.742,-4.089 -43.742,-9.132c0,-5.042 19.583,-9.131 43.742,-9.131c24.16,0 43.743,4.089 43.743,9.131Z" style="fill:#cdb3b1;fill-rule:nonzero;"/><path d="M156.508,165.045c0,3.907 -18.017,7.076 -40.242,7.076c-22.224,0 -40.241,-3.169 -40.241,-7.076c0,-3.908 18.017,-7.076 40.241,-7.076c22.225,0 40.242,3.168 40.242,7.076Z" style="fill:#fff;fill-rule:nonzero;"/><path d="M134.761,165.695c-1.447,0 -2.618,-1.17 -2.618,-2.617c0,-1.445 1.171,-2.616 2.618,-2.616c1.445,0 2.618,1.171 2.618,2.616c0,1.447 -1.173,2.617 -2.618,2.617Zm0,-8.654c-3.335,0 -6.037,2.703 -6.037,6.037c0,3.334 2.702,6.038 6.037,6.038c3.335,0 6.037,-2.704 6.037,-6.038c0,-3.334 -2.702,-6.037 -6.037,-6.037Z" style="fill:#9f80ba;fill-rule:nonzero;"/><path d="M137.379,163.078c0,1.447 -1.173,2.617 -2.618,2.617c-1.447,0 -2.618,-1.17 -2.618,-2.617c0,-0.324 0.067,-0.631 0.175,-0.918c-0.23,0.409 -0.372,0.871 -0.372,1.372c0,1.555 1.261,2.815 2.815,2.815c1.554,0 2.814,-1.26 2.814,-2.815c0,-0.501 -0.141,-0.963 -0.371,-1.372c0.108,0.287 0.175,0.594 0.175,0.918Z" style="fill:#7e679c;fill-rule:nonzero;"/><path d="M130.262,161.784c-0.346,-0.068 -0.418,1.203 -0.377,1.662c0.08,0.893 0.331,1.785 0.79,2.558c0.289,0.49 1.985,2.336 2.258,1.67c0.254,-0.619 -1.398,-1.881 -1.76,-2.506c-0.599,-1.038 -0.794,-2.21 -0.911,-3.384Z" style="fill:#9778b6;fill-rule:nonzero;"/><path d="M139.623,166.252c0.637,-0.524 0.674,-1.752 0.668,-2.503c-0.011,-1.393 -0.516,-3.583 -1.866,-4.349c-0.776,-0.183 -1.567,-0.21 -1.035,0.999c0.293,0.663 1.012,1.076 1.411,1.677c0.649,0.976 0.432,1.829 0.139,2.888c-0.15,0.547 -0.734,2.449 0.683,1.288Z" style="fill:#9778b6;fill-rule:nonzero;"/><path d="M134.761,157.687c3.225,0 5.853,2.531 6.021,5.714l0.016,-0.323c0,-3.334 -2.702,-6.037 -6.037,-6.037c-3.335,0 -6.037,2.703 -6.037,6.037l0.015,0.323c0.17,-3.183 2.796,-5.714 6.022,-5.714Z" style="fill:#bc99c7;fill-rule:nonzero;"/><path d="M88.163,164.033c-1.445,0 -2.617,-1.172 -2.617,-2.619c0,-1.445 1.172,-2.616 2.617,-2.616c1.446,0 2.618,1.171 2.618,2.616c0,1.447 -1.172,2.619 -2.618,2.619Zm0,-8.656c-3.334,0 -6.036,2.704 -6.036,6.037c0,3.336 2.702,6.038 6.036,6.038c3.334,0 6.038,-2.702 6.038,-6.038c0,-3.333 -2.704,-6.037 -6.038,-6.037Z" style="fill:#9f80ba;fill-rule:nonzero;"/><path d="M90.781,161.414c0,1.447 -1.172,2.619 -2.618,2.619c-1.445,0 -2.617,-1.172 -2.617,-2.619c0,-0.323 0.066,-0.629 0.174,-0.917c-0.229,0.408 -0.37,0.871 -0.37,1.373c0,1.553 1.259,2.814 2.813,2.814c1.555,0 2.815,-1.261 2.815,-2.814c0,-0.502 -0.143,-0.965 -0.371,-1.373c0.107,0.288 0.174,0.594 0.174,0.917Z" style="fill:#7e679c;fill-rule:nonzero;"/><path d="M83.665,160.12c-0.345,-0.068 -0.418,1.203 -0.378,1.662c0.081,0.893 0.332,1.786 0.79,2.559c0.289,0.489 1.985,2.335 2.258,1.669c0.254,-0.619 -1.397,-1.879 -1.758,-2.506c-0.602,-1.038 -0.795,-2.207 -0.912,-3.384Z" style="fill:#9778b6;fill-rule:nonzero;"/><path d="M93.027,164.588c0.635,-0.524 0.674,-1.752 0.668,-2.502c-0.012,-1.394 -0.518,-3.584 -1.866,-4.349c-0.776,-0.184 -1.569,-0.21 -1.037,0.997c0.292,0.665 1.012,1.077 1.413,1.679c0.646,0.975 0.431,1.829 0.139,2.887c-0.151,0.547 -0.735,2.451 0.683,1.288Z" style="fill:#9778b6;fill-rule:nonzero;"/><path d="M88.163,156.023c3.225,0 5.852,2.531 6.022,5.714l0.016,-0.323c0,-3.333 -2.704,-6.037 -6.038,-6.037c-3.334,0 -6.036,2.704 -6.036,6.037l0.016,0.323c0.168,-3.183 2.795,-5.714 6.02,-5.714Z" style="fill:#bc99c7;fill-rule:nonzero;"/><path d="M117.695,128.058c-1.34,-0.539 -1.99,-2.065 -1.45,-3.406c0.541,-1.341 2.066,-1.989 3.406,-1.448c1.341,0.539 1.99,2.064 1.45,3.406c-0.541,1.341 -2.065,1.989 -3.406,1.448Zm3.234,-8.027c-3.093,-1.247 -6.609,0.252 -7.855,3.343c-1.246,3.093 0.251,6.611 3.344,7.858c3.093,1.246 6.61,-0.251 7.855,-3.344c1.246,-3.093 -0.251,-6.611 -3.344,-7.857Z" style="fill:#9f80ba;fill-rule:nonzero;"/><path d="M121.101,126.61c-0.541,1.341 -2.065,1.989 -3.406,1.448c-1.34,-0.539 -1.99,-2.065 -1.45,-3.406c0.122,-0.3 0.298,-0.56 0.505,-0.785c-0.365,0.292 -0.67,0.669 -0.856,1.134c-0.582,1.442 0.117,3.081 1.558,3.662c1.442,0.581 3.081,-0.117 3.662,-1.559c0.187,-0.465 0.229,-0.948 0.167,-1.411c-0.004,0.305 -0.058,0.615 -0.18,0.917Z" style="fill:#7e679c;fill-rule:nonzero;"/><path d="M114.984,122.75c-0.296,-0.193 -0.837,0.96 -0.971,1.399c-0.259,0.86 -0.36,1.781 -0.223,2.67c0.086,0.561 0.968,2.908 1.47,2.392c0.468,-0.481 -0.594,-2.266 -0.695,-2.982c-0.168,-1.188 0.089,-2.346 0.419,-3.479Z" style="fill:#9778b6;fill-rule:nonzero;"/><path d="M121.998,130.39c0.785,-0.247 1.28,-1.372 1.554,-2.071c0.512,-1.296 0.861,-3.516 -0.105,-4.731c-0.65,-0.459 -1.375,-0.78 -1.334,0.54c0.023,0.726 0.537,1.377 0.683,2.084c0.236,1.146 -0.282,1.857 -0.949,2.73c-0.345,0.451 -1.599,1.999 0.151,1.448Z" style="fill:#9778b6;fill-rule:nonzero;"/><path d="M120.689,120.63c2.991,1.204 4.482,4.535 3.449,7.55l0.135,-0.292c1.246,-3.093 -0.251,-6.611 -3.344,-7.857c-3.093,-1.247 -6.609,0.252 -7.855,3.343l-0.105,0.306c1.346,-2.89 4.728,-4.256 7.72,-3.05Z" style="fill:#bc99c7;fill-rule:nonzero;"/><path d="M109.678,160.064c-1.446,0 -2.619,-1.172 -2.619,-2.617c0,-1.447 1.173,-2.618 2.619,-2.618c1.445,0 2.617,1.171 2.617,2.618c0,1.445 -1.172,2.617 -2.617,2.617Zm0,-8.655c-3.336,0 -6.038,2.703 -6.038,6.038c0,3.335 2.702,6.037 6.038,6.037c3.333,0 6.035,-2.702 6.035,-6.037c0,-3.335 -2.702,-6.038 -6.035,-6.038Z" style="fill:#9f80ba;fill-rule:nonzero;"/><path d="M112.295,157.447c0,1.445 -1.172,2.617 -2.617,2.617c-1.446,0 -2.619,-1.172 -2.619,-2.617c0,-0.323 0.067,-0.631 0.174,-0.918c-0.229,0.408 -0.371,0.871 -0.371,1.372c0,1.554 1.261,2.814 2.816,2.814c1.553,0 2.813,-1.26 2.813,-2.814c0,-0.501 -0.141,-0.965 -0.371,-1.372c0.108,0.287 0.175,0.593 0.175,0.918Z" style="fill:#7e679c;fill-rule:nonzero;"/><path d="M105.178,156.152c-0.345,-0.068 -0.418,1.203 -0.377,1.662c0.082,0.893 0.331,1.785 0.79,2.56c0.289,0.487 1.985,2.334 2.258,1.669c0.254,-0.62 -1.399,-1.881 -1.76,-2.507c-0.599,-1.039 -0.793,-2.208 -0.911,-3.384Z" style="fill:#9778b6;fill-rule:nonzero;"/><path d="M114.539,160.619c0.637,-0.522 0.674,-1.751 0.668,-2.502c-0.01,-1.393 -0.517,-3.583 -1.866,-4.349c-0.774,-0.183 -1.567,-0.21 -1.034,0.998c0.292,0.664 1.011,1.077 1.41,1.68c0.649,0.975 0.432,1.827 0.14,2.886c-0.152,0.547 -0.735,2.45 0.682,1.287Z" style="fill:#9778b6;fill-rule:nonzero;"/><path d="M109.678,152.055c3.224,0 5.851,2.531 6.02,5.714l0.015,-0.322c0,-3.335 -2.702,-6.038 -6.035,-6.038c-3.336,0 -6.038,2.703 -6.038,6.038l0.015,0.322c0.17,-3.183 2.796,-5.714 6.023,-5.714Z" style="fill:#bc99c7;fill-rule:nonzero;"/><path d="M122.537,155.335c-1.445,0 -2.616,-1.172 -2.616,-2.617c0,-1.446 1.171,-2.618 2.616,-2.618c1.446,0 2.618,1.172 2.618,2.618c0,1.445 -1.172,2.617 -2.618,2.617Zm0,-8.654c-3.334,0 -6.037,2.703 -6.037,6.037c0,3.333 2.703,6.036 6.037,6.036c3.334,0 6.038,-2.703 6.038,-6.036c0,-3.334 -2.704,-6.037 -6.038,-6.037Z" style="fill:#9f80ba;fill-rule:nonzero;"/><path d="M125.155,152.718c0,1.445 -1.172,2.617 -2.618,2.617c-1.445,0 -2.616,-1.172 -2.616,-2.617c0,-0.325 0.066,-0.632 0.173,-0.918c-0.229,0.407 -0.37,0.871 -0.37,1.372c0,1.554 1.259,2.815 2.813,2.815c1.555,0 2.815,-1.261 2.815,-2.815c0,-0.501 -0.142,-0.965 -0.371,-1.372c0.109,0.286 0.174,0.593 0.174,0.918Z" style="fill:#7e679c;fill-rule:nonzero;"/><path d="M118.038,151.423c-0.344,-0.068 -0.419,1.203 -0.375,1.661c0.079,0.893 0.329,1.785 0.788,2.56c0.291,0.489 1.985,2.336 2.259,1.67c0.255,-0.621 -1.398,-1.882 -1.759,-2.506c-0.602,-1.04 -0.796,-2.21 -0.913,-3.385Z" style="fill:#9778b6;fill-rule:nonzero;"/><path d="M127.399,155.89c0.638,-0.523 0.676,-1.752 0.67,-2.501c-0.011,-1.395 -0.517,-3.585 -1.866,-4.35c-0.776,-0.183 -1.569,-0.211 -1.037,0.998c0.292,0.664 1.011,1.076 1.412,1.679c0.647,0.976 0.432,1.828 0.14,2.886c-0.151,0.547 -0.735,2.451 0.681,1.288Z" style="fill:#9778b6;fill-rule:nonzero;"/><path d="M122.537,147.325c3.227,0 5.853,2.531 6.023,5.715l0.015,-0.322c0,-3.334 -2.704,-6.037 -6.038,-6.037c-3.334,0 -6.037,2.703 -6.037,6.037l0.017,0.322c0.168,-3.184 2.796,-5.715 6.02,-5.715Z" style="fill:#bc99c7;fill-rule:nonzero;"/><path d="M124.867,161.754c-1.346,0 -2.437,-0.426 -2.437,-0.955c0,-0.527 1.091,-0.954 2.437,-0.954c1.345,0 2.436,0.427 2.436,0.954c0,0.529 -1.091,0.955 -2.436,0.955Zm6.811,-2.758c-0.232,0.142 -0.389,0.468 -0.515,0.711c-1.072,-0.945 -3.486,-1.606 -6.296,-1.606c-2.795,0 -5.195,0.653 -6.276,1.59c-0.128,-0.265 -0.304,-0.498 -0.552,-0.651c0,0 -0.334,1.093 -0.039,2.051l0.103,0.25l0.02,0.047l0.005,0.008c0.658,1.369 3.423,2.858 6.739,2.858c3.095,0 5.716,-1.301 6.584,-2.587c0.102,-0.102 0.228,-0.367 0.306,-0.618c0.297,-0.956 -0.079,-2.053 -0.079,-2.053Z" style="fill:#a5d495;fill-rule:nonzero;"/><path d="M126.629,162.734c-1.504,0.284 -2.954,0.139 -4.436,-0.251c-1.795,-0.474 -3.616,-1.356 -4.164,-3.406c-0.048,0.176 -0.297,1.145 -0.029,2.014l0.103,0.25l0.02,0.047l0.005,0.008c0.658,1.369 3.423,2.858 6.739,2.858c2.083,0 3.95,-0.591 5.213,-1.368c-0.991,-0.673 -2.331,-0.363 -3.451,-0.152Z" style="fill:#75ac7a;fill-rule:nonzero;"/><path d="M126.521,161.497l2.567,0l0,-2.047l1.74,0c-1.192,-0.806 -3.414,-1.349 -5.961,-1.349c-1.992,0 -3.781,0.333 -5.039,0.862l0,2.534l3.382,0c-0.477,-0.174 -0.78,-0.421 -0.78,-0.698c0,-0.527 1.091,-0.954 2.437,-0.954c1.345,0 2.436,0.427 2.436,0.954c0,0.277 -0.303,0.524 -0.782,0.698Z" style="fill:#64a76d;fill-rule:nonzero;"/><path d="M124.867,160.655c-1.761,0 -3.186,-0.558 -3.186,-1.249c0,-0.688 1.425,-1.247 3.186,-1.247c1.759,0 3.186,0.559 3.186,1.247c0,0.691 -1.427,1.249 -3.186,1.249Zm0,-3.946c-3.806,0 -6.89,1.208 -6.89,2.697c0,1.491 3.084,3.201 6.89,3.201c3.805,0 6.89,-1.71 6.89,-3.201c0,-1.489 -3.085,-2.697 -6.89,-2.697Z" style="fill:#a5d495;fill-rule:nonzero;"/><path d="M128.779,161.025c0.382,-0.16 0.793,-0.346 1.004,-0.753c0.222,-0.423 0.137,-1.03 -0.186,-1.351c0.272,-0.382 0.83,-0.358 1.133,-0.01c0.303,0.349 0.359,0.927 0.204,1.391c-0.157,0.475 -0.501,0.84 -0.886,1.075c-0.385,0.235 -0.81,0.356 -1.235,0.467c-0.586,0.153 -1.765,0.528 -2.27,-0.01c0.159,-0.226 0.532,-0.25 0.769,-0.311c0.502,-0.129 0.983,-0.297 1.467,-0.498Z" style="fill:#daebca;fill-rule:nonzero;"/><path d="M118.781,159.15c-0.085,0.486 0.043,1.028 0.356,1.362c0.279,0.296 0.662,0.41 1.035,0.456c0.193,0.024 0.595,-0.045 0.476,-0.381c-0.063,-0.174 -0.815,-0.409 -0.984,-0.495l-0.211,-0.135c-0.144,-0.139 -0.202,-0.376 -0.172,-0.593c0.032,-0.215 0.142,-0.406 0.281,-0.552c0.436,-0.459 0.22,-0.848 -0.291,-0.486c-0.27,0.193 -0.424,0.455 -0.49,0.824Z" style="fill:#b4dbb3;fill-rule:nonzero;"/><path d="M89.847,166.823c-1.345,0 -2.435,-0.425 -2.435,-0.954c0,-0.527 1.09,-0.954 2.435,-0.954c1.346,0 2.437,0.427 2.437,0.954c0,0.529 -1.091,0.954 -2.437,0.954Zm6.811,-2.757c-0.23,0.142 -0.389,0.468 -0.514,0.711c-1.071,-0.947 -3.485,-1.607 -6.297,-1.607c-2.794,0 -5.194,0.654 -6.275,1.588c-0.128,-0.262 -0.303,-0.496 -0.551,-0.648c0,0 -0.335,1.093 -0.039,2.05l0.102,0.25l0.02,0.048l0.004,0.006c0.659,1.371 3.426,2.86 6.739,2.86c3.097,0 5.716,-1.301 6.585,-2.587c0.102,-0.102 0.228,-0.368 0.306,-0.618c0.296,-0.956 -0.08,-2.053 -0.08,-2.053Z" style="fill:#fec783;fill-rule:nonzero;"/><path d="M91.61,167.803c-1.503,0.285 -2.953,0.14 -4.437,-0.251c-1.794,-0.474 -3.616,-1.355 -4.163,-3.406c-0.049,0.177 -0.295,1.146 -0.028,2.014l0.102,0.25l0.02,0.048l0.004,0.006c0.659,1.371 3.426,2.86 6.739,2.86c2.086,0 3.952,-0.592 5.215,-1.37c-0.993,-0.671 -2.331,-0.361 -3.452,-0.151Z" style="fill:#d3a86f;fill-rule:nonzero;"/><path d="M91.502,166.566l2.567,0l0,-2.046l1.74,0c-1.191,-0.806 -3.412,-1.35 -5.962,-1.35c-1.991,0 -3.778,0.334 -5.038,0.863l0,2.533l3.383,0c-0.477,-0.173 -0.78,-0.42 -0.78,-0.697c0,-0.527 1.09,-0.954 2.435,-0.954c1.346,0 2.437,0.427 2.437,0.954c0,0.277 -0.303,0.524 -0.782,0.697Z" style="fill:#c49c67;fill-rule:nonzero;"/><path d="M89.847,165.725c-1.759,0 -3.186,-0.558 -3.186,-1.249c0,-0.689 1.427,-1.247 3.186,-1.247c1.76,0 3.186,0.558 3.186,1.247c0,0.691 -1.426,1.249 -3.186,1.249Zm0,-3.948c-3.804,0 -6.889,1.208 -6.889,2.699c0,1.491 3.085,3.201 6.889,3.201c3.806,0 6.891,-1.71 6.891,-3.201c0,-1.491 -3.085,-2.699 -6.891,-2.699Z" style="fill:#fec783;fill-rule:nonzero;"/><path d="M93.76,166.095c0.382,-0.16 0.793,-0.347 1.005,-0.753c0.221,-0.424 0.136,-1.032 -0.188,-1.352c0.272,-0.381 0.83,-0.359 1.134,-0.009c0.302,0.349 0.358,0.927 0.204,1.391c-0.157,0.474 -0.502,0.839 -0.885,1.075c-0.385,0.235 -0.812,0.356 -1.235,0.467c-0.587,0.153 -1.766,0.527 -2.269,-0.012c0.157,-0.225 0.531,-0.248 0.768,-0.31c0.5,-0.129 0.982,-0.296 1.466,-0.497Z" style="fill:#ffdb9d;fill-rule:nonzero;"/><path d="M83.762,164.22c-0.086,0.485 0.042,1.028 0.357,1.362c0.277,0.296 0.663,0.41 1.034,0.456c0.194,0.023 0.596,-0.045 0.476,-0.381c-0.063,-0.175 -0.815,-0.409 -0.984,-0.495l-0.211,-0.136c-0.143,-0.138 -0.203,-0.375 -0.172,-0.592c0.032,-0.215 0.143,-0.406 0.281,-0.553c0.438,-0.459 0.22,-0.847 -0.289,-0.485c-0.273,0.193 -0.426,0.456 -0.492,0.824Z" style="fill:#ffdb9d;fill-rule:nonzero;"/><path d="M106.158,162.11c-1.346,0 -2.437,-0.429 -2.437,-0.956c0,-0.525 1.091,-0.953 2.437,-0.953c1.345,0 2.436,0.428 2.436,0.953c0,0.527 -1.091,0.956 -2.436,0.956Zm6.811,-2.759c-0.233,0.143 -0.39,0.467 -0.515,0.711c-1.071,-0.945 -3.486,-1.606 -6.296,-1.606c-2.795,0 -5.194,0.652 -6.275,1.589c-0.129,-0.264 -0.306,-0.496 -0.553,-0.649c0,0 -0.334,1.092 -0.038,2.049l0.102,0.25l0.02,0.048l0.005,0.008c0.659,1.368 3.425,2.856 6.739,2.856c3.096,0 5.715,-1.297 6.583,-2.585c0.102,-0.102 0.23,-0.368 0.307,-0.616c0.296,-0.959 -0.079,-2.055 -0.079,-2.055Z" style="fill:#e48cba;fill-rule:nonzero;"/><path d="M107.92,163.089c-1.503,0.284 -2.953,0.139 -4.436,-0.252c-1.795,-0.473 -3.616,-1.355 -4.164,-3.405c-0.049,0.176 -0.297,1.146 -0.028,2.013l0.102,0.25l0.02,0.048l0.005,0.008c0.659,1.368 3.425,2.856 6.739,2.856c2.083,0 3.949,-0.588 5.214,-1.367c-0.991,-0.671 -2.33,-0.362 -3.452,-0.151Z" style="fill:#d27ab2;fill-rule:nonzero;"/><path d="M107.813,161.852l2.566,0l0,-2.046l1.739,0c-1.192,-0.807 -3.413,-1.35 -5.96,-1.35c-1.993,0 -3.781,0.333 -5.038,0.862l0,2.534l3.383,0c-0.479,-0.175 -0.782,-0.422 -0.782,-0.698c0,-0.525 1.091,-0.953 2.437,-0.953c1.345,0 2.436,0.428 2.436,0.953c0,0.276 -0.304,0.523 -0.781,0.698Z" style="fill:#c473a7;fill-rule:nonzero;"/><path d="M106.158,161.01c-1.76,0 -3.186,-0.56 -3.186,-1.249c0,-0.688 1.426,-1.247 3.186,-1.247c1.759,0 3.185,0.559 3.185,1.247c0,0.689 -1.426,1.249 -3.185,1.249Zm0,-3.947c-3.806,0 -6.89,1.208 -6.89,2.698c0,1.491 3.084,3.2 6.89,3.2c3.804,0 6.89,-1.709 6.89,-3.2c0,-1.49 -3.086,-2.698 -6.89,-2.698Z" style="fill:#e48cba;fill-rule:nonzero;"/><path d="M110.07,161.38c0.382,-0.16 0.793,-0.346 1.003,-0.751c0.222,-0.425 0.139,-1.032 -0.185,-1.353c0.272,-0.382 0.829,-0.358 1.132,-0.01c0.303,0.348 0.359,0.926 0.204,1.391c-0.157,0.475 -0.5,0.839 -0.885,1.074c-0.384,0.236 -0.811,0.358 -1.234,0.468c-0.587,0.153 -1.765,0.528 -2.271,-0.012c0.159,-0.225 0.532,-0.248 0.769,-0.31c0.502,-0.129 0.983,-0.296 1.467,-0.497Z" style="fill:#f5a3c7;fill-rule:nonzero;"/><path d="M100.072,159.504c-0.085,0.487 0.044,1.028 0.357,1.363c0.278,0.296 0.662,0.409 1.035,0.456c0.193,0.024 0.594,-0.045 0.475,-0.38c-0.062,-0.176 -0.815,-0.41 -0.983,-0.496l-0.211,-0.135c-0.144,-0.139 -0.203,-0.377 -0.172,-0.593c0.031,-0.215 0.14,-0.407 0.28,-0.552c0.437,-0.46 0.219,-0.849 -0.291,-0.486c-0.269,0.195 -0.424,0.457 -0.49,0.823Z" style="fill:#f5a3c7;fill-rule:nonzero;"/><path d="M116.258,162.791c-1.346,0 -2.436,-0.427 -2.436,-0.954c0,-0.528 1.09,-0.954 2.436,-0.954c1.347,0 2.437,0.426 2.437,0.954c0,0.527 -1.09,0.954 -2.437,0.954Zm6.811,-2.759c-0.232,0.143 -0.39,0.469 -0.513,0.712c-1.072,-0.946 -3.487,-1.606 -6.298,-1.606c-2.793,0 -5.193,0.653 -6.275,1.59c-0.127,-0.265 -0.303,-0.498 -0.553,-0.651c0,0 -0.334,1.092 -0.037,2.051l0.102,0.25l0.021,0.047l0.003,0.009c0.66,1.368 3.425,2.856 6.739,2.856c3.097,0 5.715,-1.3 6.584,-2.587c0.101,-0.101 0.23,-0.367 0.306,-0.616c0.297,-0.957 -0.079,-2.055 -0.079,-2.055Z" style="fill:#ba97c6;fill-rule:nonzero;"/><path d="M118.021,163.771c-1.503,0.283 -2.954,0.139 -4.436,-0.251c-1.795,-0.474 -3.616,-1.356 -4.163,-3.406c-0.05,0.176 -0.298,1.144 -0.029,2.014l0.102,0.25l0.021,0.047l0.003,0.009c0.66,1.368 3.425,2.856 6.739,2.856c2.085,0 3.951,-0.589 5.214,-1.367c-0.991,-0.673 -2.33,-0.363 -3.451,-0.152Z" style="fill:#a584bc;fill-rule:nonzero;"/><path d="M117.914,162.534l2.567,0l0,-2.046l1.738,0c-1.192,-0.807 -3.412,-1.35 -5.961,-1.35c-1.99,0 -3.78,0.333 -5.037,0.862l0,2.534l3.382,0c-0.477,-0.175 -0.781,-0.421 -0.781,-0.697c0,-0.528 1.09,-0.954 2.436,-0.954c1.347,0 2.437,0.426 2.437,0.954c0,0.276 -0.302,0.522 -0.781,0.697Z" style="fill:#9f7db8;fill-rule:nonzero;"/><path d="M116.258,161.691c-1.759,0 -3.185,-0.558 -3.185,-1.247c0,-0.689 1.426,-1.248 3.185,-1.248c1.76,0 3.186,0.559 3.186,1.248c0,0.689 -1.426,1.247 -3.186,1.247Zm0,-3.945c-3.805,0 -6.889,1.207 -6.889,2.698c0,1.49 3.084,3.2 6.889,3.2c3.806,0 6.89,-1.71 6.89,-3.2c0,-1.491 -3.084,-2.698 -6.89,-2.698Z" style="fill:#ba97c6;fill-rule:nonzero;"/><path d="M120.17,162.061c0.383,-0.158 0.795,-0.345 1.006,-0.752c0.221,-0.423 0.136,-1.032 -0.188,-1.35c0.272,-0.383 0.83,-0.358 1.132,-0.011c0.303,0.349 0.359,0.927 0.206,1.391c-0.157,0.475 -0.501,0.84 -0.886,1.075c-0.384,0.235 -0.812,0.356 -1.235,0.466c-0.585,0.154 -1.764,0.529 -2.269,-0.01c0.157,-0.226 0.532,-0.25 0.768,-0.31c0.501,-0.129 0.983,-0.297 1.466,-0.499Z" style="fill:#d0afd3;fill-rule:nonzero;"/><path d="M110.174,160.187c-0.087,0.487 0.042,1.028 0.355,1.362c0.278,0.296 0.663,0.41 1.036,0.455c0.193,0.025 0.595,-0.044 0.475,-0.381c-0.062,-0.173 -0.816,-0.408 -0.984,-0.493l-0.21,-0.136c-0.145,-0.139 -0.203,-0.377 -0.172,-0.592c0.032,-0.216 0.141,-0.407 0.281,-0.553c0.436,-0.459 0.22,-0.849 -0.291,-0.486c-0.271,0.194 -0.424,0.456 -0.49,0.824Z" style="fill:#d0afd3;fill-rule:nonzero;"/><path d="M143.453,163.917c-1.445,0 -2.616,-1.17 -2.616,-2.617c0,-1.445 1.171,-2.617 2.616,-2.617c1.446,0 2.618,1.172 2.618,2.617c0,1.447 -1.172,2.617 -2.618,2.617Zm0,-8.654c-3.334,0 -6.037,2.702 -6.037,6.037c0,3.335 2.703,6.037 6.037,6.037c3.334,0 6.038,-2.702 6.038,-6.037c0,-3.335 -2.704,-6.037 -6.038,-6.037Z" style="fill:#a5d495;fill-rule:nonzero;"/><path d="M146.071,161.3c0,1.447 -1.172,2.617 -2.618,2.617c-1.445,0 -2.616,-1.17 -2.616,-2.617c0,-0.324 0.065,-0.631 0.173,-0.919c-0.229,0.408 -0.371,0.871 -0.371,1.373c0,1.556 1.26,2.814 2.814,2.814c1.554,0 2.815,-1.258 2.815,-2.814c0,-0.502 -0.143,-0.965 -0.373,-1.373c0.108,0.288 0.176,0.595 0.176,0.919Z" style="fill:#75ac7a;fill-rule:nonzero;"/><path d="M138.953,160.006c-0.343,-0.069 -0.418,1.202 -0.376,1.661c0.081,0.893 0.331,1.786 0.79,2.559c0.289,0.489 1.985,2.335 2.258,1.669c0.253,-0.619 -1.398,-1.88 -1.76,-2.506c-0.6,-1.038 -0.794,-2.209 -0.912,-3.383Z" style="fill:#75ac7a;fill-rule:nonzero;"/><path d="M143.453,155.907c3.226,0 5.852,2.532 6.02,5.715l0.018,-0.322c0,-3.335 -2.704,-6.037 -6.038,-6.037c-3.334,0 -6.037,2.702 -6.037,6.037l0.017,0.322c0.167,-3.183 2.795,-5.715 6.02,-5.715Z" style="fill:#daebca;fill-rule:nonzero;"/><path d="M102.391,157.056c-1.446,0 -2.617,-1.171 -2.617,-2.617c0,-1.445 1.171,-2.618 2.617,-2.618c1.445,0 2.618,1.173 2.618,2.618c0,1.446 -1.173,2.617 -2.618,2.617Zm0,-8.655c-3.334,0 -6.038,2.702 -6.038,6.038c0,3.334 2.704,6.037 6.038,6.037c3.334,0 6.037,-2.703 6.037,-6.037c0,-3.336 -2.703,-6.038 -6.037,-6.038Z" style="fill:#a5d495;fill-rule:nonzero;"/><path d="M105.009,154.439c0,1.446 -1.173,2.617 -2.618,2.617c-1.446,0 -2.617,-1.171 -2.617,-2.617c0,-0.324 0.066,-0.631 0.173,-0.918c-0.229,0.408 -0.37,0.871 -0.37,1.372c0,1.555 1.259,2.813 2.814,2.813c1.554,0 2.814,-1.258 2.814,-2.813c0,-0.501 -0.142,-0.964 -0.371,-1.373c0.107,0.288 0.175,0.595 0.175,0.919Z" style="fill:#75ac7a;fill-rule:nonzero;"/><path d="M97.891,153.145c-0.345,-0.069 -0.418,1.201 -0.376,1.661c0.08,0.892 0.33,1.786 0.789,2.559c0.291,0.489 1.986,2.336 2.258,1.67c0.254,-0.62 -1.397,-1.88 -1.758,-2.508c-0.601,-1.038 -0.795,-2.208 -0.913,-3.382Z" style="fill:#75ac7a;fill-rule:nonzero;"/><path d="M107.253,157.611c0.636,-0.523 0.674,-1.752 0.669,-2.5c-0.012,-1.395 -0.517,-3.586 -1.865,-4.35c-0.776,-0.183 -1.569,-0.211 -1.037,0.998c0.292,0.665 1.011,1.077 1.411,1.678c0.648,0.975 0.431,1.828 0.14,2.886c-0.151,0.547 -0.735,2.452 0.682,1.288Z" style="fill:#daebca;fill-rule:nonzero;"/><path d="M102.391,149.046c3.225,0 5.852,2.531 6.02,5.715l0.017,-0.322c0,-3.336 -2.703,-6.038 -6.037,-6.038c-3.334,0 -6.038,2.702 -6.038,6.038l0.018,0.322c0.167,-3.184 2.794,-5.715 6.02,-5.715Z" style="fill:#daebca;fill-rule:nonzero;"/><path d="M106.165,141.359c-1.445,0 -2.617,-1.171 -2.617,-2.616c0,-1.447 1.172,-2.618 2.617,-2.618c1.447,0 2.618,1.171 2.618,2.618c0,1.445 -1.171,2.616 -2.618,2.616Zm0,-8.654c-3.334,0 -6.037,2.703 -6.037,6.038c0,3.334 2.703,6.037 6.037,6.037c3.335,0 6.038,-2.703 6.038,-6.037c0,-3.335 -2.703,-6.038 -6.038,-6.038Z" style="fill:#a5d495;fill-rule:nonzero;"/><path d="M108.783,138.743c0,1.445 -1.171,2.616 -2.618,2.616c-1.445,0 -2.617,-1.171 -2.617,-2.616c0,-0.324 0.066,-0.632 0.174,-0.918c-0.229,0.408 -0.371,0.871 -0.371,1.372c0,1.554 1.261,2.814 2.814,2.814c1.556,0 2.815,-1.26 2.815,-2.814c0,-0.501 -0.141,-0.965 -0.372,-1.372c0.109,0.286 0.175,0.592 0.175,0.918Z" style="fill:#75ac7a;fill-rule:nonzero;"/><path d="M101.667,137.449c-0.345,-0.068 -0.418,1.202 -0.377,1.661c0.08,0.893 0.331,1.784 0.789,2.559c0.29,0.488 1.984,2.335 2.258,1.67c0.255,-0.62 -1.398,-1.882 -1.759,-2.507c-0.6,-1.039 -0.793,-2.209 -0.911,-3.383Z" style="fill:#75ac7a;fill-rule:nonzero;"/><path d="M111.026,141.915c0.638,-0.522 0.676,-1.751 0.67,-2.502c-0.01,-1.393 -0.517,-3.583 -1.865,-4.348c-0.775,-0.184 -1.568,-0.211 -1.036,0.997c0.291,0.664 1.012,1.077 1.411,1.68c0.647,0.975 0.432,1.827 0.14,2.886c-0.151,0.546 -0.735,2.45 0.68,1.287Z" style="fill:#daebca;fill-rule:nonzero;"/><path d="M106.165,133.351c3.226,0 5.852,2.531 6.022,5.715l0.016,-0.323c0,-3.335 -2.703,-6.038 -6.038,-6.038c-3.334,0 -6.037,2.703 -6.037,6.038l0.016,0.323c0.168,-3.184 2.796,-5.715 6.021,-5.715Z" style="fill:#daebca;fill-rule:nonzero;"/><path d="M117.936,159.326c-1.446,0 -2.618,-1.172 -2.618,-2.617c0,-1.446 1.172,-2.619 2.618,-2.619c1.445,0 2.618,1.173 2.618,2.619c0,1.445 -1.173,2.617 -2.618,2.617Zm0,-8.656c-3.334,0 -6.037,2.704 -6.037,6.039c0,3.333 2.703,6.036 6.037,6.036c3.334,0 6.038,-2.703 6.038,-6.036c0,-3.335 -2.704,-6.039 -6.038,-6.039Z" style="fill:#a5d495;fill-rule:nonzero;"/><path d="M120.554,156.709c0,1.445 -1.173,2.617 -2.618,2.617c-1.446,0 -2.618,-1.172 -2.618,-2.617c0,-0.325 0.067,-0.632 0.175,-0.919c-0.229,0.408 -0.372,0.872 -0.372,1.372c0,1.555 1.261,2.815 2.815,2.815c1.554,0 2.815,-1.26 2.815,-2.815c0,-0.5 -0.141,-0.964 -0.371,-1.372c0.107,0.287 0.174,0.594 0.174,0.919Z" style="fill:#75ac7a;fill-rule:nonzero;"/><path d="M113.438,155.414c-0.347,-0.069 -0.418,1.202 -0.378,1.661c0.081,0.892 0.332,1.786 0.791,2.56c0.288,0.488 1.984,2.336 2.258,1.668c0.253,-0.619 -1.398,-1.879 -1.761,-2.505c-0.599,-1.04 -0.794,-2.209 -0.91,-3.384Z" style="fill:#75ac7a;fill-rule:nonzero;"/><path d="M122.798,159.88c0.637,-0.523 0.675,-1.751 0.668,-2.5c-0.011,-1.395 -0.517,-3.586 -1.865,-4.35c-0.776,-0.182 -1.568,-0.211 -1.036,0.998c0.293,0.665 1.012,1.077 1.412,1.679c0.647,0.975 0.432,1.829 0.138,2.886c-0.151,0.546 -0.733,2.451 0.683,1.287Z" style="fill:#daebca;fill-rule:nonzero;"/><path d="M117.936,151.315c3.225,0 5.853,2.531 6.022,5.715l0.016,-0.321c0,-3.335 -2.704,-6.039 -6.038,-6.039c-3.334,0 -6.037,2.704 -6.037,6.039l0.016,0.321c0.169,-3.184 2.796,-5.715 6.021,-5.715Z" style="fill:#daebca;fill-rule:nonzero;"/><path d="M141.319,169.148c-1.345,0 -2.436,-0.427 -2.436,-0.954c0,-0.528 1.091,-0.955 2.436,-0.955c1.346,0 2.437,0.427 2.437,0.955c0,0.527 -1.091,0.954 -2.437,0.954Zm6.812,-2.759c-0.231,0.142 -0.388,0.469 -0.515,0.711c-1.071,-0.946 -3.485,-1.606 -6.297,-1.606c-2.794,0 -5.194,0.654 -6.275,1.589c-0.127,-0.263 -0.303,-0.496 -0.551,-0.649c0,0 -0.335,1.092 -0.039,2.05l0.103,0.249l0.019,0.047l0.005,0.009c0.658,1.37 3.425,2.858 6.738,2.858c3.097,0 5.716,-1.3 6.584,-2.587c0.103,-0.101 0.229,-0.367 0.307,-0.616c0.297,-0.958 -0.079,-2.055 -0.079,-2.055Z" style="fill:#fec783;fill-rule:nonzero;"/><path d="M143.082,170.127c-1.503,0.284 -2.953,0.141 -4.435,-0.252c-1.795,-0.473 -3.617,-1.354 -4.165,-3.406c-0.048,0.177 -0.295,1.146 -0.028,2.015l0.103,0.249l0.019,0.047l0.005,0.009c0.658,1.37 3.425,2.858 6.738,2.858c2.086,0 3.952,-0.59 5.215,-1.368c-0.991,-0.673 -2.331,-0.364 -3.452,-0.152Z" style="fill:#d3a86f;fill-rule:nonzero;"/><path d="M142.974,168.889l2.568,0l0,-2.045l1.739,0c-1.191,-0.806 -3.412,-1.35 -5.962,-1.35c-1.991,0 -3.778,0.333 -5.037,0.862l0,2.533l3.382,0c-0.477,-0.173 -0.781,-0.42 -0.781,-0.695c0,-0.528 1.091,-0.955 2.436,-0.955c1.346,0 2.437,0.427 2.437,0.955c0,0.275 -0.303,0.522 -0.782,0.695Z" style="fill:#c49c67;fill-rule:nonzero;"/><path d="M141.319,168.048c-1.759,0 -3.185,-0.559 -3.185,-1.247c0,-0.69 1.426,-1.248 3.185,-1.248c1.761,0 3.186,0.558 3.186,1.248c0,0.688 -1.425,1.247 -3.186,1.247Zm0,-3.947c-3.804,0 -6.889,1.209 -6.889,2.7c0,1.49 3.085,3.199 6.889,3.199c3.806,0 6.891,-1.709 6.891,-3.199c0,-1.491 -3.085,-2.7 -6.891,-2.7Z" style="fill:#fec783;fill-rule:nonzero;"/><path d="M135.235,166.544c-0.087,0.486 0.042,1.028 0.356,1.361c0.278,0.296 0.662,0.409 1.034,0.457c0.194,0.024 0.596,-0.047 0.476,-0.382c-0.063,-0.174 -0.815,-0.408 -0.983,-0.494l-0.212,-0.137c-0.143,-0.136 -0.201,-0.375 -0.17,-0.59c0.03,-0.217 0.141,-0.407 0.279,-0.554c0.438,-0.459 0.22,-0.848 -0.289,-0.485c-0.271,0.194 -0.426,0.456 -0.491,0.824Z" style="fill:#ffdb9d;fill-rule:nonzero;"/><path d="M132.853,166.437c-1.344,0 -2.435,-0.428 -2.435,-0.955c0,-0.526 1.091,-0.954 2.435,-0.954c1.346,0 2.437,0.428 2.437,0.954c0,0.527 -1.091,0.955 -2.437,0.955Zm6.811,-2.759c-0.232,0.144 -0.389,0.469 -0.514,0.712c-1.071,-0.946 -3.485,-1.606 -6.297,-1.606c-2.792,0 -5.194,0.652 -6.275,1.588c-0.128,-0.263 -0.303,-0.496 -0.553,-0.648c0,0 -0.333,1.091 -0.037,2.049l0.102,0.25l0.02,0.048l0.004,0.007c0.659,1.369 3.426,2.858 6.739,2.858c3.097,0 5.716,-1.299 6.584,-2.587c0.102,-0.101 0.229,-0.366 0.307,-0.616c0.296,-0.957 -0.08,-2.055 -0.08,-2.055Z" style="fill:#fec783;fill-rule:nonzero;"/><path d="M134.616,167.417c-1.503,0.283 -2.952,0.139 -4.437,-0.252c-1.795,-0.473 -3.616,-1.355 -4.163,-3.405c-0.049,0.176 -0.297,1.146 -0.028,2.013l0.102,0.25l0.02,0.048l0.004,0.007c0.659,1.369 3.426,2.858 6.739,2.858c2.086,0 3.951,-0.59 5.215,-1.368c-0.991,-0.672 -2.33,-0.362 -3.452,-0.151Z" style="fill:#d3a86f;fill-rule:nonzero;"/><path d="M134.508,166.18l2.569,0l0,-2.046l1.738,0c-1.193,-0.807 -3.412,-1.35 -5.962,-1.35c-1.991,0 -3.78,0.333 -5.038,0.862l0,2.534l3.384,0c-0.478,-0.176 -0.781,-0.422 -0.781,-0.698c0,-0.526 1.091,-0.954 2.435,-0.954c1.346,0 2.437,0.428 2.437,0.954c0,0.276 -0.303,0.522 -0.782,0.698Z" style="fill:#c49c67;fill-rule:nonzero;"/><path d="M132.853,165.337c-1.758,0 -3.186,-0.559 -3.186,-1.248c0,-0.688 1.428,-1.247 3.186,-1.247c1.759,0 3.187,0.559 3.187,1.247c0,0.689 -1.428,1.248 -3.187,1.248Zm0,-3.946c-3.804,0 -6.89,1.207 -6.89,2.698c0,1.492 3.086,3.199 6.89,3.199c3.807,0 6.891,-1.707 6.891,-3.199c0,-1.491 -3.084,-2.698 -6.891,-2.698Z" style="fill:#fec783;fill-rule:nonzero;"/><path d="M136.766,165.707c0.381,-0.159 0.793,-0.345 1.005,-0.751c0.221,-0.424 0.136,-1.032 -0.187,-1.352c0.271,-0.382 0.83,-0.359 1.132,-0.01c0.303,0.348 0.359,0.926 0.205,1.391c-0.157,0.475 -0.502,0.84 -0.885,1.075c-0.385,0.236 -0.812,0.356 -1.235,0.466c-0.587,0.154 -1.766,0.529 -2.269,-0.011c0.157,-0.225 0.532,-0.249 0.768,-0.31c0.5,-0.129 0.982,-0.296 1.466,-0.498Z" style="fill:#ffdb9d;fill-rule:nonzero;"/><path d="M126.768,163.832c-0.086,0.487 0.042,1.028 0.357,1.363c0.277,0.296 0.662,0.408 1.035,0.455c0.193,0.025 0.595,-0.044 0.475,-0.379c-0.063,-0.176 -0.815,-0.41 -0.984,-0.497l-0.211,-0.134c-0.143,-0.139 -0.203,-0.378 -0.172,-0.593c0.032,-0.215 0.143,-0.407 0.281,-0.552c0.438,-0.46 0.22,-0.85 -0.289,-0.486c-0.273,0.194 -0.426,0.456 -0.492,0.823Z" style="fill:#ffdb9d;fill-rule:nonzero;"/><path d="M107.967,166.993c-1.445,0 -2.617,-1.172 -2.617,-2.618c0,-1.445 1.172,-2.617 2.617,-2.617c1.446,0 2.618,1.172 2.618,2.617c0,1.446 -1.172,2.618 -2.618,2.618Zm0,-8.656c-3.334,0 -6.038,2.705 -6.038,6.038c0,3.334 2.704,6.037 6.038,6.037c3.334,0 6.037,-2.703 6.037,-6.037c0,-3.333 -2.703,-6.038 -6.037,-6.038Z" style="fill:#e3ae6b;fill-rule:nonzero;"/><path d="M110.585,164.375c0,1.446 -1.172,2.618 -2.618,2.618c-1.445,0 -2.617,-1.172 -2.617,-2.618c0,-0.324 0.066,-0.631 0.173,-0.917c-0.229,0.407 -0.371,0.871 -0.371,1.371c0,1.555 1.261,2.814 2.815,2.814c1.555,0 2.814,-1.259 2.814,-2.814c0,-0.5 -0.142,-0.964 -0.372,-1.371c0.109,0.286 0.176,0.593 0.176,0.917Z" style="fill:#a88655;fill-rule:nonzero;"/><path d="M103.467,163.081c-0.344,-0.07 -0.417,1.204 -0.376,1.661c0.08,0.892 0.332,1.786 0.789,2.56c0.29,0.489 1.986,2.336 2.258,1.669c0.255,-0.62 -1.398,-1.881 -1.759,-2.508c-0.6,-1.037 -0.793,-2.207 -0.912,-3.382Z" style="fill:#cea166;fill-rule:nonzero;"/><path d="M112.828,167.547c0.637,-0.522 0.675,-1.751 0.669,-2.5c-0.01,-1.395 -0.517,-3.586 -1.864,-4.35c-0.776,-0.183 -1.569,-0.211 -1.037,0.998c0.292,0.664 1.012,1.076 1.41,1.678c0.649,0.976 0.433,1.83 0.141,2.886c-0.151,0.548 -0.735,2.452 0.681,1.288Z" style="fill:#cea166;fill-rule:nonzero;"/><path d="M107.967,158.983c3.225,0 5.852,2.53 6.021,5.715l0.016,-0.323c0,-3.333 -2.703,-6.038 -6.037,-6.038c-3.334,0 -6.038,2.705 -6.038,6.038l0.018,0.323c0.167,-3.185 2.794,-5.715 6.02,-5.715Z" style="fill:#e6c286;fill-rule:nonzero;"/><path d="M102.777,172.83c-0.027,-0.152 -0.047,-0.31 -0.047,-0.47c0,-1.445 1.173,-2.617 2.618,-2.617c1.446,0 2.618,1.172 2.618,2.617c0,0.16 -0.02,0.318 -0.047,0.47l3.441,0c0.013,-0.155 0.024,-0.311 0.024,-0.47c0,-3.335 -2.702,-6.038 -6.036,-6.038c-3.335,0 -6.038,2.703 -6.038,6.038c0,0.159 0.011,0.315 0.024,0.47l3.443,0Z" style="fill:#9f80ba;fill-rule:nonzero;"/><path d="M109.387,171.358c0.339,0.509 0.439,0.983 0.418,1.472l1.062,0c-0.052,-1.395 -0.567,-3.419 -1.855,-4.149c-0.774,-0.183 -1.567,-0.21 -1.035,0.999c0.292,0.664 1.012,1.076 1.41,1.678Z" style="fill:#9778b6;fill-rule:nonzero;"/><path d="M105.348,166.968c3.225,0 5.852,2.531 6.021,5.715l0.015,-0.323c0,-3.335 -2.702,-6.038 -6.036,-6.038c-3.335,0 -6.038,2.703 -6.038,6.038l0.016,0.323c0.169,-3.184 2.796,-5.715 6.022,-5.715Z" style="fill:#bc99c7;fill-rule:nonzero;"/><path d="M147.439,165.971c-1.346,0 -2.437,-0.427 -2.437,-0.955c0,-0.526 1.091,-0.954 2.437,-0.954c1.344,0 2.435,0.428 2.435,0.954c0,0.528 -1.091,0.955 -2.435,0.955Zm6.81,-2.759c-0.231,0.143 -0.389,0.469 -0.515,0.712c-1.07,-0.946 -3.484,-1.607 -6.295,-1.607c-2.794,0 -5.195,0.654 -6.276,1.59c-0.127,-0.265 -0.304,-0.496 -0.552,-0.649c0,0 -0.335,1.091 -0.037,2.05l0.102,0.25l0.018,0.047l0.005,0.007c0.66,1.37 3.426,2.858 6.74,2.858c3.096,0 5.715,-1.299 6.583,-2.586c0.102,-0.101 0.229,-0.367 0.307,-0.617c0.296,-0.958 -0.08,-2.055 -0.08,-2.055Z" style="fill:#fec783;fill-rule:nonzero;"/><path d="M149.201,166.951c-1.503,0.283 -2.953,0.138 -4.436,-0.251c-1.796,-0.474 -3.615,-1.356 -4.164,-3.406c-0.049,0.175 -0.296,1.145 -0.027,2.014l0.102,0.25l0.018,0.047l0.005,0.007c0.66,1.37 3.426,2.858 6.74,2.858c2.085,0 3.951,-0.59 5.213,-1.367c-0.99,-0.673 -2.329,-0.364 -3.451,-0.152Z" style="fill:#d3a86f;fill-rule:nonzero;"/><path d="M149.094,165.713l2.567,0l0,-2.045l1.739,0c-1.192,-0.807 -3.412,-1.351 -5.961,-1.351c-1.991,0 -3.78,0.333 -5.039,0.863l0,2.533l3.384,0c-0.478,-0.174 -0.782,-0.42 -0.782,-0.697c0,-0.526 1.091,-0.954 2.437,-0.954c1.344,0 2.435,0.428 2.435,0.954c0,0.277 -0.303,0.523 -0.78,0.697Z" style="fill:#c49c67;fill-rule:nonzero;"/><path d="M147.439,164.871c-1.759,0 -3.187,-0.558 -3.187,-1.248c0,-0.688 1.428,-1.247 3.187,-1.247c1.758,0 3.186,0.559 3.186,1.247c0,0.69 -1.428,1.248 -3.186,1.248Zm0,-3.945c-3.806,0 -6.891,1.207 -6.891,2.697c0,1.492 3.085,3.2 6.891,3.2c3.806,0 6.89,-1.708 6.89,-3.2c0,-1.49 -3.084,-2.697 -6.89,-2.697Z" style="fill:#fec783;fill-rule:nonzero;"/><path d="M141.355,163.367c-0.088,0.486 0.042,1.029 0.355,1.362c0.277,0.295 0.663,0.409 1.035,0.455c0.193,0.025 0.596,-0.045 0.474,-0.38c-0.06,-0.174 -0.815,-0.408 -0.983,-0.496l-0.209,-0.135c-0.146,-0.137 -0.204,-0.376 -0.172,-0.592c0.031,-0.216 0.141,-0.406 0.278,-0.552c0.438,-0.459 0.22,-0.849 -0.288,-0.486c-0.272,0.194 -0.426,0.456 -0.49,0.824Z" style="fill:#ffdb9d;fill-rule:nonzero;"/><path d="M136.357,133.809c-1.17,-0.666 -1.907,-1.579 -1.646,-2.035c0.261,-0.459 1.42,-0.29 2.59,0.376c1.169,0.665 1.905,1.576 1.644,2.035c-0.261,0.458 -1.419,0.289 -2.588,-0.376Zm7.282,0.973c-0.272,0.009 -0.569,0.215 -0.798,0.363c-0.463,-1.352 -2.235,-3.12 -4.677,-4.512c-2.427,-1.382 -4.836,-2.003 -6.24,-1.725c0.021,-0.292 -0.018,-0.581 -0.157,-0.837c0,0 -0.83,0.784 -1.048,1.763l-0.034,0.268l-0.007,0.051l0,0.01c-0.104,1.514 1.561,4.178 4.441,5.817c2.69,1.533 5.61,1.699 7.002,1.01c0.138,-0.037 0.381,-0.206 0.571,-0.383c0.731,-0.686 0.947,-1.825 0.947,-1.825Z" style="fill:#fec783;fill-rule:nonzero;"/><path d="M137.403,135.531c-1.447,-0.496 -2.636,-1.34 -3.73,-2.414c-1.326,-1.3 -2.472,-2.965 -1.934,-5.018c-0.128,0.128 -0.824,0.848 -1.02,1.735l-0.034,0.268l-0.007,0.051l0,0.01c-0.104,1.514 1.561,4.178 4.441,5.817c1.812,1.032 3.724,1.443 5.208,1.392c-0.529,-1.075 -1.845,-1.47 -2.924,-1.841Z" style="fill:#d3a86f;fill-rule:nonzero;"/><path d="M137.922,134.403l2.23,1.271l1.012,-1.779l1.512,0.86c-0.637,-1.289 -2.297,-2.86 -4.512,-4.122c-1.731,-0.985 -3.45,-1.581 -4.804,-1.743l-1.254,2.202l2.939,1.673c-0.329,-0.388 -0.47,-0.751 -0.334,-0.991c0.261,-0.459 1.42,-0.29 2.59,0.376c1.169,0.665 1.905,1.576 1.644,2.035c-0.136,0.24 -0.522,0.304 -1.023,0.218Z" style="fill:#c49c67;fill-rule:nonzero;"/><path d="M136.901,132.852c-1.529,-0.871 -2.493,-2.062 -2.151,-2.66c0.341,-0.598 1.857,-0.379 3.386,0.492c1.528,0.872 2.491,2.062 2.15,2.661c-0.34,0.599 -1.857,0.38 -3.385,-0.493Zm1.952,-3.429c-3.307,-1.883 -6.584,-2.359 -7.323,-1.064c-0.737,1.294 1.098,4.307 4.405,6.19c3.307,1.883 6.833,1.925 7.57,0.629c0.739,-1.295 -1.345,-3.872 -4.652,-5.755Z" style="fill:#fec783;fill-rule:nonzero;"/><path d="M140.118,135.11c0.41,0.051 0.86,0.093 1.244,-0.156c0.402,-0.258 0.629,-0.828 0.506,-1.266c0.426,-0.198 0.899,0.097 0.989,0.551c0.091,0.453 -0.146,0.981 -0.51,1.309c-0.372,0.337 -0.85,0.483 -1.3,0.496c-0.452,0.015 -0.882,-0.091 -1.305,-0.205c-0.586,-0.156 -1.796,-0.413 -1.966,-1.132c0.247,-0.118 0.585,0.047 0.82,0.11c0.499,0.136 1.001,0.229 1.522,0.293Z" style="fill:#ffdb9d;fill-rule:nonzero;"/><path d="M132.358,128.533c-0.317,0.381 -0.473,0.915 -0.365,1.361c0.094,0.394 0.374,0.683 0.673,0.908c0.156,0.117 0.541,0.255 0.601,-0.096c0.034,-0.182 -0.506,-0.758 -0.61,-0.917l-0.115,-0.221c-0.057,-0.191 0.01,-0.428 0.145,-0.599c0.133,-0.172 0.323,-0.285 0.516,-0.343c0.607,-0.182 0.611,-0.627 -0.011,-0.565c-0.333,0.034 -0.596,0.187 -0.834,0.472Z" style="fill:#ffdb9d;fill-rule:nonzero;"/><path d="M127.691,157.866c-1.346,0 -2.437,-0.427 -2.437,-0.953c0,-0.528 1.091,-0.955 2.437,-0.955c1.346,0 2.436,0.427 2.436,0.955c0,0.526 -1.09,0.953 -2.436,0.953Zm6.811,-2.758c-0.231,0.143 -0.388,0.469 -0.515,0.712c-1.07,-0.947 -3.484,-1.606 -6.296,-1.606c-2.793,0 -5.193,0.652 -6.275,1.588c-0.127,-0.264 -0.304,-0.496 -0.551,-0.649c0,0 -0.336,1.092 -0.039,2.05l0.102,0.25l0.019,0.047l0.005,0.008c0.66,1.37 3.425,2.858 6.739,2.858c3.098,0 5.716,-1.3 6.585,-2.587c0.101,-0.101 0.229,-0.367 0.307,-0.616c0.295,-0.959 -0.081,-2.055 -0.081,-2.055Z" style="fill:#fec783;fill-rule:nonzero;"/><path d="M129.454,158.846c-1.502,0.284 -2.954,0.138 -4.436,-0.251c-1.795,-0.474 -3.617,-1.355 -4.163,-3.406c-0.05,0.177 -0.297,1.145 -0.029,2.014l0.102,0.25l0.019,0.047l0.005,0.008c0.66,1.37 3.425,2.858 6.739,2.858c2.086,0 3.952,-0.59 5.214,-1.368c-0.99,-0.673 -2.329,-0.364 -3.451,-0.152Z" style="fill:#d3a86f;fill-rule:nonzero;"/><path d="M129.347,157.609l2.567,0l0,-2.045l1.739,0c-1.192,-0.807 -3.412,-1.35 -5.962,-1.35c-1.99,0 -3.781,0.333 -5.037,0.861l0,2.534l3.382,0c-0.478,-0.174 -0.782,-0.421 -0.782,-0.696c0,-0.528 1.091,-0.955 2.437,-0.955c1.346,0 2.436,0.427 2.436,0.955c0,0.275 -0.303,0.522 -0.78,0.696Z" style="fill:#c49c67;fill-rule:nonzero;"/><path d="M127.691,156.767c-1.759,0 -3.185,-0.559 -3.185,-1.248c0,-0.689 1.426,-1.247 3.185,-1.247c1.76,0 3.187,0.558 3.187,1.247c0,0.689 -1.427,1.248 -3.187,1.248Zm0,-3.946c-3.805,0 -6.89,1.208 -6.89,2.698c0,1.491 3.085,3.201 6.89,3.201c3.807,0 6.892,-1.71 6.892,-3.201c0,-1.49 -3.085,-2.698 -6.892,-2.698Z" style="fill:#fec783;fill-rule:nonzero;"/><path d="M131.605,157.136c0.381,-0.158 0.793,-0.344 1.004,-0.751c0.222,-0.424 0.138,-1.032 -0.187,-1.351c0.273,-0.382 0.829,-0.359 1.132,-0.011c0.304,0.35 0.359,0.927 0.206,1.391c-0.159,0.475 -0.501,0.84 -0.886,1.075c-0.385,0.236 -0.812,0.357 -1.235,0.466c-0.586,0.153 -1.765,0.528 -2.269,-0.009c0.157,-0.226 0.531,-0.251 0.767,-0.31c0.501,-0.13 0.984,-0.298 1.468,-0.5Z" style="fill:#ffdb9d;fill-rule:nonzero;"/><path d="M121.607,155.263c-0.087,0.486 0.042,1.028 0.355,1.361c0.278,0.297 0.663,0.409 1.035,0.456c0.193,0.024 0.597,-0.045 0.476,-0.381c-0.062,-0.174 -0.816,-0.408 -0.984,-0.495l-0.21,-0.136c-0.145,-0.136 -0.203,-0.376 -0.172,-0.59c0.032,-0.216 0.142,-0.408 0.279,-0.554c0.438,-0.459 0.22,-0.848 -0.288,-0.485c-0.272,0.194 -0.426,0.456 -0.491,0.824Z" style="fill:#ffdb9d;fill-rule:nonzero;"/><path d="M108.241,159.242c-1.344,0 -2.436,-0.426 -2.436,-0.954c0,-0.527 1.092,-0.954 2.436,-0.954c1.347,0 2.437,0.427 2.437,0.954c0,0.528 -1.09,0.954 -2.437,0.954Zm6.811,-2.758c-0.231,0.142 -0.388,0.469 -0.514,0.711c-1.071,-0.945 -3.484,-1.607 -6.297,-1.607c-2.793,0 -5.193,0.655 -6.275,1.591c-0.126,-0.264 -0.304,-0.498 -0.551,-0.65c0,0 -0.336,1.092 -0.037,2.05l0.101,0.25l0.019,0.048l0.005,0.006c0.659,1.371 3.425,2.859 6.738,2.859c3.097,0 5.716,-1.3 6.585,-2.587c0.101,-0.101 0.229,-0.367 0.307,-0.616c0.295,-0.958 -0.081,-2.055 -0.081,-2.055Z" style="fill:#fec783;fill-rule:nonzero;"/><path d="M110.004,160.222c-1.503,0.284 -2.953,0.139 -4.436,-0.252c-1.795,-0.472 -3.616,-1.354 -4.163,-3.406c-0.05,0.177 -0.297,1.146 -0.027,2.015l0.101,0.25l0.019,0.048l0.005,0.006c0.659,1.371 3.425,2.859 6.738,2.859c2.086,0 3.952,-0.591 5.214,-1.367c-0.99,-0.673 -2.33,-0.364 -3.451,-0.153Z" style="fill:#d3a86f;fill-rule:nonzero;"/><path d="M109.897,158.984l2.568,0l0,-2.046l1.739,0c-1.193,-0.805 -3.413,-1.35 -5.963,-1.35c-1.99,0 -3.779,0.334 -5.037,0.864l0,2.532l3.383,0c-0.478,-0.173 -0.782,-0.419 -0.782,-0.696c0,-0.527 1.092,-0.954 2.436,-0.954c1.347,0 2.437,0.427 2.437,0.954c0,0.277 -0.304,0.523 -0.781,0.696Z" style="fill:#c49c67;fill-rule:nonzero;"/><path d="M108.241,158.143c-1.758,0 -3.185,-0.558 -3.185,-1.248c0,-0.689 1.427,-1.249 3.185,-1.249c1.76,0 3.187,0.56 3.187,1.249c0,0.69 -1.427,1.248 -3.187,1.248Zm0,-3.948c-3.805,0 -6.889,1.21 -6.889,2.7c0,1.491 3.084,3.2 6.889,3.2c3.807,0 6.892,-1.709 6.892,-3.2c0,-1.49 -3.085,-2.7 -6.892,-2.7Z" style="fill:#fec783;fill-rule:nonzero;"/><path d="M112.155,158.513c0.381,-0.16 0.793,-0.346 1.004,-0.752c0.222,-0.425 0.136,-1.032 -0.187,-1.351c0.271,-0.382 0.829,-0.359 1.133,-0.01c0.303,0.349 0.358,0.927 0.205,1.391c-0.158,0.473 -0.502,0.838 -0.886,1.075c-0.386,0.235 -0.812,0.356 -1.235,0.466c-0.586,0.153 -1.765,0.528 -2.269,-0.01c0.157,-0.226 0.531,-0.25 0.767,-0.312c0.501,-0.128 0.984,-0.295 1.468,-0.497Z" style="fill:#ffdb9d;fill-rule:nonzero;"/><path d="M102.157,156.639c-0.087,0.486 0.043,1.028 0.356,1.362c0.277,0.296 0.663,0.409 1.035,0.455c0.194,0.024 0.596,-0.044 0.475,-0.381c-0.062,-0.174 -0.816,-0.408 -0.984,-0.495l-0.21,-0.136c-0.145,-0.137 -0.203,-0.375 -0.171,-0.591c0.031,-0.216 0.141,-0.406 0.278,-0.552c0.438,-0.46 0.221,-0.849 -0.288,-0.486c-0.272,0.193 -0.425,0.455 -0.491,0.824Z" style="fill:#ffdb9d;fill-rule:nonzero;"/><path d="M124.413,165.528c-1.346,0 -2.436,-0.428 -2.436,-0.955c0,-0.527 1.09,-0.954 2.436,-0.954c1.346,0 2.435,0.427 2.435,0.954c0,0.527 -1.089,0.955 -2.435,0.955Zm6.811,-2.759c-0.232,0.142 -0.389,0.469 -0.515,0.71c-1.07,-0.944 -3.485,-1.606 -6.296,-1.606c-2.794,0 -5.195,0.653 -6.276,1.59c-0.127,-0.263 -0.305,-0.497 -0.552,-0.65c0,0 -0.334,1.093 -0.037,2.049l0.101,0.251l0.02,0.049l0.004,0.007c0.66,1.368 3.425,2.858 6.74,2.858c3.096,0 5.714,-1.3 6.583,-2.588c0.103,-0.102 0.23,-0.366 0.308,-0.616c0.296,-0.958 -0.08,-2.054 -0.08,-2.054Z" style="fill:#fec783;fill-rule:nonzero;"/><path d="M126.176,166.508c-1.503,0.283 -2.955,0.138 -4.437,-0.254c-1.796,-0.471 -3.616,-1.353 -4.164,-3.405c-0.05,0.177 -0.297,1.146 -0.027,2.013l0.101,0.251l0.02,0.049l0.004,0.007c0.66,1.368 3.425,2.858 6.74,2.858c2.084,0 3.951,-0.59 5.213,-1.368c-0.991,-0.672 -2.329,-0.363 -3.45,-0.151Z" style="fill:#d3a86f;fill-rule:nonzero;"/><path d="M126.068,165.271l2.567,0l0,-2.048l1.74,0c-1.193,-0.805 -3.414,-1.35 -5.962,-1.35c-1.992,0 -3.781,0.334 -5.039,0.864l0,2.534l3.383,0c-0.477,-0.176 -0.78,-0.422 -0.78,-0.698c0,-0.527 1.09,-0.954 2.436,-0.954c1.346,0 2.435,0.427 2.435,0.954c0,0.276 -0.302,0.522 -0.78,0.698Z" style="fill:#c49c67;fill-rule:nonzero;"/><path d="M124.413,164.428c-1.759,0 -3.186,-0.558 -3.186,-1.248c0,-0.689 1.427,-1.249 3.186,-1.249c1.759,0 3.186,0.56 3.186,1.249c0,0.69 -1.427,1.248 -3.186,1.248Zm0,-3.948c-3.806,0 -6.891,1.209 -6.891,2.7c0,1.491 3.085,3.199 6.891,3.199c3.805,0 6.891,-1.708 6.891,-3.199c0,-1.491 -3.086,-2.7 -6.891,-2.7Z" style="fill:#fec783;fill-rule:nonzero;"/><path d="M128.325,164.798c0.382,-0.16 0.794,-0.346 1.006,-0.752c0.221,-0.423 0.136,-1.032 -0.188,-1.351c0.272,-0.383 0.83,-0.36 1.132,-0.01c0.304,0.347 0.36,0.926 0.205,1.39c-0.156,0.476 -0.501,0.838 -0.885,1.076c-0.384,0.235 -0.812,0.356 -1.234,0.466c-0.587,0.153 -1.767,0.528 -2.271,-0.011c0.158,-0.227 0.532,-0.249 0.769,-0.311c0.501,-0.128 0.983,-0.295 1.466,-0.497Z" style="fill:#ffdb9d;fill-rule:nonzero;"/><path d="M118.328,162.922c-0.088,0.488 0.042,1.028 0.355,1.364c0.278,0.295 0.663,0.408 1.036,0.455c0.193,0.024 0.595,-0.044 0.475,-0.381c-0.062,-0.174 -0.815,-0.408 -0.984,-0.495l-0.21,-0.136c-0.145,-0.137 -0.203,-0.376 -0.172,-0.591c0.031,-0.216 0.141,-0.407 0.281,-0.552c0.437,-0.46 0.219,-0.85 -0.291,-0.486c-0.271,0.193 -0.425,0.455 -0.49,0.822Z" style="fill:#ffdb9d;fill-rule:nonzero;"/><path d="M116.136,170.874c-1.346,0 -2.435,-0.428 -2.435,-0.955c0,-0.526 1.089,-0.954 2.435,-0.954c1.346,0 2.436,0.428 2.436,0.954c0,0.527 -1.09,0.955 -2.436,0.955Zm6.811,-2.759c-0.232,0.143 -0.389,0.468 -0.515,0.711c-1.07,-0.945 -3.484,-1.606 -6.296,-1.606c-2.795,0 -5.194,0.652 -6.275,1.589c-0.127,-0.264 -0.304,-0.496 -0.552,-0.65c0,0 -0.335,1.093 -0.038,2.05l0.101,0.25l0.02,0.047l0.005,0.009c0.659,1.368 3.426,2.857 6.739,2.857c3.097,0 5.715,-1.298 6.584,-2.586c0.102,-0.101 0.229,-0.367 0.307,-0.616c0.296,-0.959 -0.08,-2.055 -0.08,-2.055Z" style="fill:#fec783;fill-rule:nonzero;"/><path d="M117.899,171.854c-1.503,0.283 -2.954,0.138 -4.437,-0.253c-1.795,-0.472 -3.616,-1.354 -4.163,-3.404c-0.049,0.174 -0.297,1.145 -0.028,2.012l0.101,0.25l0.02,0.047l0.005,0.009c0.659,1.368 3.426,2.857 6.739,2.857c2.086,0 3.952,-0.589 5.214,-1.367c-0.991,-0.672 -2.33,-0.364 -3.451,-0.151Z" style="fill:#d3a86f;fill-rule:nonzero;"/><path d="M117.791,170.615l2.566,0l0,-2.045l1.741,0c-1.193,-0.807 -3.412,-1.35 -5.962,-1.35c-1.991,0 -3.78,0.333 -5.038,0.863l0,2.532l3.383,0c-0.478,-0.174 -0.78,-0.42 -0.78,-0.696c0,-0.526 1.089,-0.954 2.435,-0.954c1.346,0 2.436,0.428 2.436,0.954c0,0.276 -0.303,0.522 -0.781,0.696Z" style="fill:#c49c67;fill-rule:nonzero;"/><path d="M116.136,169.774c-1.759,0 -3.186,-0.559 -3.186,-1.248c0,-0.688 1.427,-1.247 3.186,-1.247c1.759,0 3.186,0.559 3.186,1.247c0,0.689 -1.427,1.248 -3.186,1.248Zm0,-3.947c-3.806,0 -6.89,1.208 -6.89,2.699c0,1.49 3.084,3.199 6.89,3.199c3.806,0 6.891,-1.709 6.891,-3.199c0,-1.491 -3.085,-2.699 -6.891,-2.699Z" style="fill:#fec783;fill-rule:nonzero;"/><path d="M120.048,170.144c0.382,-0.16 0.794,-0.345 1.006,-0.751c0.221,-0.424 0.136,-1.032 -0.187,-1.352c0.271,-0.383 0.829,-0.359 1.132,-0.01c0.303,0.347 0.359,0.925 0.205,1.39c-0.157,0.475 -0.502,0.839 -0.885,1.074c-0.385,0.237 -0.812,0.357 -1.235,0.468c-0.587,0.153 -1.766,0.528 -2.269,-0.011c0.157,-0.225 0.529,-0.249 0.768,-0.311c0.5,-0.128 0.982,-0.295 1.465,-0.497Z" style="fill:#ffdb9d;fill-rule:nonzero;"/><path d="M110.051,168.268c-0.086,0.488 0.043,1.028 0.356,1.364c0.278,0.295 0.664,0.408 1.035,0.455c0.194,0.025 0.596,-0.045 0.475,-0.381c-0.062,-0.175 -0.815,-0.41 -0.983,-0.495l-0.211,-0.135c-0.144,-0.138 -0.203,-0.377 -0.17,-0.592c0.03,-0.216 0.141,-0.407 0.278,-0.552c0.438,-0.46 0.22,-0.85 -0.288,-0.486c-0.273,0.194 -0.426,0.456 -0.492,0.822Z" style="fill:#ffdb9d;fill-rule:nonzero;"/><path d="M106.855,167.37c-1.346,0 -2.436,-0.428 -2.436,-0.955c0,-0.526 1.09,-0.954 2.436,-0.954c1.344,0 2.436,0.428 2.436,0.954c0,0.527 -1.092,0.955 -2.436,0.955Zm6.81,-2.759c-0.231,0.144 -0.388,0.469 -0.514,0.712c-1.072,-0.946 -3.486,-1.606 -6.296,-1.606c-2.794,0 -5.194,0.652 -6.275,1.588c-0.128,-0.263 -0.305,-0.496 -0.552,-0.649c0,0 -0.336,1.092 -0.039,2.05l0.103,0.25l0.019,0.048l0.005,0.007c0.659,1.369 3.425,2.858 6.739,2.858c3.095,0 5.714,-1.299 6.584,-2.587c0.101,-0.102 0.229,-0.366 0.307,-0.617c0.295,-0.958 -0.081,-2.054 -0.081,-2.054Z" style="fill:#fec783;fill-rule:nonzero;"/><path d="M108.618,168.35c-1.505,0.283 -2.955,0.138 -4.437,-0.252c-1.795,-0.473 -3.616,-1.355 -4.164,-3.405c-0.049,0.175 -0.296,1.145 -0.028,2.013l0.103,0.25l0.019,0.048l0.005,0.007c0.659,1.369 3.425,2.858 6.739,2.858c2.084,0 3.95,-0.59 5.213,-1.368c-0.991,-0.672 -2.33,-0.363 -3.45,-0.151Z" style="fill:#d3a86f;fill-rule:nonzero;"/><path d="M108.51,167.113l2.566,0l0,-2.047l1.739,0c-1.191,-0.806 -3.412,-1.349 -5.96,-1.349c-1.992,0 -3.78,0.332 -5.038,0.862l0,2.534l3.382,0c-0.477,-0.175 -0.78,-0.422 -0.78,-0.698c0,-0.526 1.09,-0.954 2.436,-0.954c1.344,0 2.436,0.428 2.436,0.954c0,0.276 -0.303,0.523 -0.781,0.698Z" style="fill:#c49c67;fill-rule:nonzero;"/><path d="M106.855,166.27c-1.761,0 -3.186,-0.558 -3.186,-1.248c0,-0.688 1.425,-1.247 3.186,-1.247c1.759,0 3.185,0.559 3.185,1.247c0,0.69 -1.426,1.248 -3.185,1.248Zm0,-3.946c-3.806,0 -6.89,1.207 -6.89,2.698c0,1.491 3.084,3.199 6.89,3.199c3.805,0 6.891,-1.708 6.891,-3.199c0,-1.491 -3.086,-2.698 -6.891,-2.698Z" style="fill:#fec783;fill-rule:nonzero;"/><path d="M110.767,166.64c0.382,-0.159 0.793,-0.345 1.005,-0.751c0.221,-0.424 0.137,-1.032 -0.186,-1.352c0.271,-0.382 0.827,-0.359 1.132,-0.01c0.303,0.348 0.358,0.925 0.204,1.391c-0.157,0.475 -0.501,0.84 -0.885,1.075c-0.386,0.236 -0.811,0.356 -1.235,0.466c-0.586,0.154 -1.765,0.528 -2.27,-0.011c0.159,-0.225 0.531,-0.249 0.769,-0.311c0.501,-0.127 0.983,-0.295 1.466,-0.497Z" style="fill:#ffdb9d;fill-rule:nonzero;"/><path d="M100.769,164.766c-0.086,0.486 0.044,1.027 0.356,1.362c0.279,0.296 0.663,0.408 1.036,0.455c0.194,0.025 0.595,-0.044 0.475,-0.381c-0.062,-0.173 -0.816,-0.408 -0.984,-0.495l-0.21,-0.135c-0.145,-0.138 -0.203,-0.377 -0.171,-0.592c0.03,-0.215 0.141,-0.407 0.279,-0.552c0.437,-0.46 0.22,-0.85 -0.289,-0.486c-0.272,0.194 -0.427,0.455 -0.492,0.824Z" style="fill:#ffdb9d;fill-rule:nonzero;"/><path d="M118.748,164.922c-1.346,0 -2.438,-0.426 -2.438,-0.953c0,-0.528 1.092,-0.955 2.438,-0.955c1.346,0 2.434,0.427 2.434,0.955c0,0.527 -1.088,0.953 -2.434,0.953Zm6.81,-2.758c-0.232,0.142 -0.389,0.469 -0.515,0.711c-1.071,-0.946 -3.484,-1.607 -6.295,-1.607c-2.794,0 -5.195,0.653 -6.277,1.59c-0.126,-0.265 -0.304,-0.496 -0.551,-0.649c0,0 -0.334,1.092 -0.037,2.05l0.101,0.249l0.019,0.047l0.004,0.009c0.661,1.37 3.426,2.858 6.741,2.858c3.096,0 5.714,-1.3 6.583,-2.587c0.101,-0.101 0.229,-0.367 0.307,-0.617c0.295,-0.957 -0.08,-2.054 -0.08,-2.054Z" style="fill:#fec783;fill-rule:nonzero;"/><path d="M120.509,165.902c-1.501,0.284 -2.953,0.139 -4.436,-0.252c-1.795,-0.473 -3.615,-1.356 -4.163,-3.406c-0.05,0.177 -0.297,1.146 -0.027,2.015l0.101,0.249l0.019,0.047l0.004,0.009c0.661,1.37 3.426,2.858 6.741,2.858c2.084,0 3.95,-0.59 5.212,-1.368c-0.99,-0.673 -2.328,-0.364 -3.451,-0.152Z" style="fill:#d3a86f;fill-rule:nonzero;"/><path d="M120.403,164.664l2.566,0l0,-2.045l1.739,0c-1.192,-0.806 -3.412,-1.351 -5.96,-1.351c-1.992,0 -3.781,0.334 -5.039,0.863l0,2.533l3.383,0c-0.477,-0.173 -0.782,-0.42 -0.782,-0.695c0,-0.528 1.092,-0.955 2.438,-0.955c1.346,0 2.434,0.427 2.434,0.955c0,0.275 -0.303,0.522 -0.779,0.695Z" style="fill:#c49c67;fill-rule:nonzero;"/><path d="M118.748,163.823c-1.76,0 -3.187,-0.559 -3.187,-1.248c0,-0.689 1.427,-1.247 3.187,-1.247c1.759,0 3.185,0.558 3.185,1.247c0,0.689 -1.426,1.248 -3.185,1.248Zm0,-3.947c-3.807,0 -6.891,1.209 -6.891,2.699c0,1.491 3.084,3.2 6.891,3.2c3.805,0 6.89,-1.709 6.89,-3.2c0,-1.49 -3.085,-2.699 -6.89,-2.699Z" style="fill:#fec783;fill-rule:nonzero;"/><path d="M122.66,164.192c0.381,-0.157 0.793,-0.344 1.004,-0.751c0.222,-0.425 0.138,-1.032 -0.187,-1.351c0.273,-0.383 0.829,-0.359 1.133,-0.011c0.303,0.35 0.358,0.926 0.205,1.39c-0.157,0.475 -0.501,0.84 -0.886,1.077c-0.383,0.235 -0.812,0.356 -1.235,0.466c-0.586,0.153 -1.765,0.527 -2.269,-0.01c0.157,-0.226 0.531,-0.25 0.769,-0.31c0.499,-0.13 0.982,-0.297 1.466,-0.5Z" style="fill:#ffdb9d;fill-rule:nonzero;"/><path d="M112.663,162.319c-0.088,0.485 0.042,1.028 0.355,1.361c0.277,0.296 0.663,0.409 1.036,0.456c0.193,0.024 0.595,-0.046 0.474,-0.381c-0.061,-0.174 -0.816,-0.408 -0.983,-0.494l-0.21,-0.137c-0.146,-0.136 -0.203,-0.376 -0.172,-0.59c0.03,-0.217 0.141,-0.407 0.28,-0.554c0.436,-0.459 0.219,-0.848 -0.29,-0.485c-0.272,0.194 -0.425,0.456 -0.49,0.824Z" style="fill:#ffdb9d;fill-rule:nonzero;"/><path d="M127.757,170.388c-1.346,0 -2.437,-0.427 -2.437,-0.954c0,-0.527 1.091,-0.955 2.437,-0.955c1.345,0 2.436,0.428 2.436,0.955c0,0.527 -1.091,0.954 -2.436,0.954Zm6.811,-2.758c-0.232,0.142 -0.389,0.468 -0.515,0.71c-1.071,-0.945 -3.485,-1.606 -6.296,-1.606c-2.795,0 -5.194,0.652 -6.275,1.589c-0.129,-0.264 -0.306,-0.496 -0.553,-0.649c0,0 -0.334,1.093 -0.038,2.049l0.102,0.25l0.02,0.048l0.005,0.008c0.659,1.369 3.424,2.858 6.739,2.858c3.095,0 5.715,-1.299 6.584,-2.587c0.102,-0.102 0.229,-0.368 0.307,-0.616c0.296,-0.958 -0.08,-2.054 -0.08,-2.054Z" style="fill:#e48cba;fill-rule:nonzero;"/><path d="M129.519,171.367c-1.504,0.285 -2.953,0.14 -4.436,-0.252c-1.795,-0.473 -3.616,-1.355 -4.164,-3.405c-0.05,0.177 -0.297,1.146 -0.028,2.013l0.102,0.25l0.02,0.048l0.005,0.008c0.659,1.369 3.424,2.858 6.739,2.858c2.085,0 3.95,-0.59 5.213,-1.369c-0.991,-0.671 -2.329,-0.362 -3.451,-0.151Z" style="fill:#d27ab2;fill-rule:nonzero;"/><path d="M129.412,170.13l2.566,0l0,-2.046l1.74,0c-1.192,-0.805 -3.412,-1.35 -5.961,-1.35c-1.992,0 -3.781,0.334 -5.038,0.862l0,2.534l3.383,0c-0.479,-0.174 -0.782,-0.422 -0.782,-0.696c0,-0.527 1.091,-0.955 2.437,-0.955c1.345,0 2.436,0.428 2.436,0.955c0,0.274 -0.303,0.522 -0.781,0.696Z" style="fill:#c473a7;fill-rule:nonzero;"/><path d="M127.757,169.289c-1.761,0 -3.186,-0.56 -3.186,-1.248c0,-0.689 1.425,-1.249 3.186,-1.249c1.759,0 3.186,0.56 3.186,1.249c0,0.688 -1.427,1.248 -3.186,1.248Zm0,-3.948c-3.806,0 -6.89,1.209 -6.89,2.7c0,1.49 3.084,3.199 6.89,3.199c3.806,0 6.891,-1.709 6.891,-3.199c0,-1.491 -3.085,-2.7 -6.891,-2.7Z" style="fill:#e48cba;fill-rule:nonzero;"/><path d="M131.669,169.658c0.382,-0.159 0.793,-0.346 1.006,-0.751c0.22,-0.425 0.136,-1.032 -0.187,-1.353c0.271,-0.381 0.828,-0.358 1.132,-0.009c0.303,0.348 0.359,0.925 0.204,1.39c-0.157,0.475 -0.501,0.839 -0.884,1.075c-0.386,0.235 -0.812,0.358 -1.235,0.468c-0.588,0.153 -1.766,0.527 -2.27,-0.011c0.158,-0.227 0.53,-0.249 0.768,-0.311c0.501,-0.13 0.983,-0.295 1.466,-0.498Z" style="fill:#f5a3c7;fill-rule:nonzero;"/><path d="M121.671,167.783c-0.085,0.487 0.043,1.028 0.356,1.362c0.279,0.297 0.662,0.409 1.036,0.457c0.193,0.023 0.594,-0.046 0.475,-0.381c-0.062,-0.176 -0.815,-0.408 -0.983,-0.495l-0.211,-0.136c-0.145,-0.137 -0.203,-0.377 -0.172,-0.591c0.031,-0.216 0.14,-0.407 0.28,-0.553c0.437,-0.461 0.22,-0.849 -0.29,-0.485c-0.271,0.193 -0.425,0.455 -0.491,0.822Z" style="fill:#f5a3c7;fill-rule:nonzero;"/><path d="M133.71,161.888c-1.346,0 -2.436,-0.428 -2.436,-0.954c0,-0.527 1.09,-0.955 2.436,-0.955c1.346,0 2.436,0.428 2.436,0.955c0,0.526 -1.09,0.954 -2.436,0.954Zm6.811,-2.758c-0.233,0.143 -0.39,0.469 -0.515,0.712c-1.071,-0.947 -3.485,-1.607 -6.296,-1.607c-2.795,0 -5.193,0.652 -6.276,1.588c-0.127,-0.263 -0.304,-0.496 -0.552,-0.648c0,0 -0.335,1.092 -0.037,2.049l0.102,0.25l0.018,0.048l0.005,0.007c0.659,1.371 3.426,2.859 6.74,2.859c3.097,0 5.715,-1.3 6.583,-2.588c0.102,-0.101 0.23,-0.366 0.307,-0.616c0.296,-0.957 -0.079,-2.054 -0.079,-2.054Z" style="fill:#e48cba;fill-rule:nonzero;"/><path d="M135.473,162.868c-1.503,0.284 -2.954,0.138 -4.436,-0.251c-1.795,-0.474 -3.618,-1.356 -4.165,-3.406c-0.049,0.177 -0.297,1.145 -0.027,2.013l0.102,0.25l0.018,0.048l0.005,0.007c0.659,1.371 3.426,2.859 6.74,2.859c2.085,0 3.951,-0.591 5.214,-1.369c-0.991,-0.672 -2.33,-0.363 -3.451,-0.151Z" style="fill:#d27ab2;fill-rule:nonzero;"/><path d="M135.366,161.631l2.566,0l0,-2.047l1.739,0c-1.193,-0.806 -3.412,-1.349 -5.961,-1.349c-1.992,0 -3.781,0.334 -5.038,0.862l0,2.534l3.383,0c-0.479,-0.173 -0.781,-0.421 -0.781,-0.697c0,-0.527 1.09,-0.955 2.436,-0.955c1.346,0 2.436,0.428 2.436,0.955c0,0.276 -0.304,0.524 -0.78,0.697Z" style="fill:#c473a7;fill-rule:nonzero;"/><path d="M133.71,160.788c-1.759,0 -3.185,-0.558 -3.185,-1.247c0,-0.689 1.426,-1.248 3.185,-1.248c1.76,0 3.186,0.559 3.186,1.248c0,0.689 -1.426,1.247 -3.186,1.247Zm0,-3.946c-3.805,0 -6.891,1.208 -6.891,2.699c0,1.491 3.086,3.201 6.891,3.201c3.806,0 6.89,-1.71 6.89,-3.201c0,-1.491 -3.084,-2.699 -6.89,-2.699Z" style="fill:#e48cba;fill-rule:nonzero;"/><path d="M137.622,161.158c0.383,-0.159 0.795,-0.345 1.005,-0.751c0.221,-0.424 0.137,-1.032 -0.187,-1.352c0.272,-0.381 0.829,-0.359 1.132,-0.01c0.303,0.349 0.359,0.927 0.205,1.391c-0.158,0.475 -0.501,0.84 -0.885,1.075c-0.385,0.236 -0.812,0.357 -1.235,0.466c-0.585,0.154 -1.764,0.528 -2.269,-0.01c0.157,-0.225 0.531,-0.25 0.767,-0.31c0.502,-0.129 0.984,-0.297 1.467,-0.499Z" style="fill:#f5a3c7;fill-rule:nonzero;"/><path d="M127.625,159.284c-0.087,0.486 0.043,1.029 0.356,1.362c0.278,0.297 0.662,0.409 1.035,0.455c0.193,0.025 0.595,-0.044 0.475,-0.38c-0.061,-0.174 -0.816,-0.408 -0.983,-0.496l-0.21,-0.135c-0.145,-0.137 -0.203,-0.376 -0.172,-0.591c0.032,-0.215 0.141,-0.408 0.279,-0.553c0.437,-0.459 0.219,-0.847 -0.289,-0.485c-0.271,0.193 -0.426,0.455 -0.491,0.823Z" style="fill:#f5a3c7;fill-rule:nonzero;"/><path d="M109.435,164.49c-1.346,0 -2.434,-0.427 -2.434,-0.954c0,-0.528 1.088,-0.954 2.434,-0.954c1.346,0 2.436,0.426 2.436,0.954c0,0.527 -1.09,0.954 -2.436,0.954Zm6.811,-2.759c-0.231,0.142 -0.388,0.469 -0.513,0.711c-1.072,-0.945 -3.485,-1.604 -6.298,-1.604c-2.793,0 -5.193,0.652 -6.275,1.588c-0.127,-0.265 -0.303,-0.497 -0.551,-0.651c0,0 -0.336,1.093 -0.039,2.052l0.102,0.25l0.019,0.047l0.005,0.008c0.66,1.369 3.426,2.857 6.739,2.857c3.097,0 5.715,-1.3 6.585,-2.587c0.101,-0.101 0.229,-0.366 0.307,-0.616c0.295,-0.958 -0.081,-2.055 -0.081,-2.055Z" style="fill:#e48cba;fill-rule:nonzero;"/><path d="M111.198,165.47c-1.503,0.283 -2.954,0.138 -4.436,-0.251c-1.795,-0.474 -3.617,-1.355 -4.163,-3.405c-0.05,0.174 -0.297,1.143 -0.029,2.013l0.102,0.25l0.019,0.047l0.005,0.008c0.66,1.369 3.426,2.857 6.739,2.857c2.086,0 3.952,-0.589 5.214,-1.367c-0.991,-0.673 -2.33,-0.364 -3.451,-0.152Z" style="fill:#d27ab2;fill-rule:nonzero;"/><path d="M111.091,164.233l2.567,0l0,-2.047l1.739,0c-1.192,-0.805 -3.412,-1.348 -5.962,-1.348c-1.99,0 -3.779,0.331 -5.037,0.861l0,2.534l3.382,0c-0.476,-0.175 -0.779,-0.421 -0.779,-0.697c0,-0.528 1.088,-0.954 2.434,-0.954c1.346,0 2.436,0.426 2.436,0.954c0,0.276 -0.303,0.522 -0.78,0.697Z" style="fill:#c473a7;fill-rule:nonzero;"/><path d="M109.435,163.391c-1.759,0 -3.185,-0.559 -3.185,-1.248c0,-0.689 1.426,-1.248 3.185,-1.248c1.76,0 3.186,0.559 3.186,1.248c0,0.689 -1.426,1.248 -3.186,1.248Zm0,-3.946c-3.805,0 -6.89,1.207 -6.89,2.698c0,1.49 3.085,3.199 6.89,3.199c3.806,0 6.892,-1.709 6.892,-3.199c0,-1.491 -3.086,-2.698 -6.892,-2.698Z" style="fill:#e48cba;fill-rule:nonzero;"/><path d="M113.347,163.76c0.383,-0.158 0.795,-0.344 1.006,-0.752c0.222,-0.423 0.136,-1.032 -0.187,-1.35c0.271,-0.384 0.829,-0.359 1.132,-0.011c0.304,0.349 0.359,0.926 0.206,1.39c-0.157,0.476 -0.503,0.84 -0.886,1.076c-0.385,0.235 -0.813,0.356 -1.235,0.467c-0.586,0.152 -1.765,0.528 -2.269,-0.011c0.157,-0.225 0.531,-0.25 0.769,-0.31c0.499,-0.129 0.982,-0.297 1.464,-0.499Z" style="fill:#f5a3c7;fill-rule:nonzero;"/><path d="M103.351,161.886c-0.087,0.487 0.042,1.028 0.355,1.362c0.278,0.295 0.664,0.409 1.035,0.456c0.195,0.024 0.597,-0.046 0.476,-0.382c-0.062,-0.173 -0.815,-0.408 -0.984,-0.494l-0.21,-0.136c-0.145,-0.137 -0.203,-0.376 -0.171,-0.591c0.031,-0.217 0.141,-0.407 0.28,-0.553c0.437,-0.459 0.22,-0.849 -0.29,-0.486c-0.272,0.194 -0.426,0.456 -0.491,0.824Z" style="fill:#f5a3c7;fill-rule:nonzero;"/><path d="M82.95,167.22c-1.346,0 -2.436,-0.428 -2.436,-0.955c0,-0.527 1.09,-0.954 2.436,-0.954c1.346,0 2.436,0.427 2.436,0.954c0,0.527 -1.09,0.955 -2.436,0.955Zm6.81,-2.759c-0.232,0.143 -0.389,0.468 -0.513,0.711c-1.072,-0.946 -3.485,-1.605 -6.297,-1.605c-2.795,0 -5.194,0.652 -6.275,1.588c-0.128,-0.264 -0.305,-0.497 -0.552,-0.649c0,0 -0.336,1.091 -0.039,2.05l0.102,0.25l0.02,0.047l0.005,0.009c0.659,1.368 3.424,2.856 6.739,2.856c3.096,0 5.714,-1.299 6.583,-2.587c0.101,-0.101 0.23,-0.366 0.307,-0.616c0.296,-0.957 -0.08,-2.054 -0.08,-2.054Z" style="fill:#e48cba;fill-rule:nonzero;"/><path d="M84.713,168.2c-1.504,0.284 -2.955,0.139 -4.437,-0.252c-1.795,-0.474 -3.616,-1.355 -4.163,-3.405c-0.05,0.175 -0.298,1.144 -0.029,2.013l0.102,0.25l0.02,0.047l0.005,0.009c0.659,1.368 3.424,2.856 6.739,2.856c2.085,0 3.95,-0.589 5.213,-1.367c-0.991,-0.673 -2.33,-0.364 -3.45,-0.151Z" style="fill:#d27ab2;fill-rule:nonzero;"/><path d="M84.605,166.962l2.567,0l0,-2.047l1.738,0c-1.191,-0.805 -3.411,-1.348 -5.96,-1.348c-1.991,0 -3.781,0.333 -5.038,0.861l0,2.534l3.382,0c-0.477,-0.175 -0.78,-0.421 -0.78,-0.697c0,-0.527 1.09,-0.954 2.436,-0.954c1.346,0 2.436,0.427 2.436,0.954c0,0.276 -0.303,0.522 -0.781,0.697Z" style="fill:#c473a7;fill-rule:nonzero;"/><path d="M82.95,166.121c-1.76,0 -3.186,-0.56 -3.186,-1.249c0,-0.689 1.426,-1.248 3.186,-1.248c1.759,0 3.185,0.559 3.185,1.248c0,0.689 -1.426,1.249 -3.185,1.249Zm0,-3.947c-3.806,0 -6.89,1.207 -6.89,2.698c0,1.491 3.084,3.2 6.89,3.2c3.805,0 6.89,-1.709 6.89,-3.2c0,-1.491 -3.085,-2.698 -6.89,-2.698Z" style="fill:#e48cba;fill-rule:nonzero;"/><path d="M86.862,166.49c0.382,-0.159 0.794,-0.345 1.005,-0.752c0.221,-0.423 0.137,-1.032 -0.188,-1.351c0.273,-0.382 0.831,-0.359 1.132,-0.011c0.304,0.349 0.359,0.927 0.206,1.392c-0.157,0.475 -0.501,0.839 -0.885,1.074c-0.385,0.235 -0.813,0.356 -1.236,0.467c-0.585,0.153 -1.764,0.529 -2.268,-0.011c0.156,-0.225 0.53,-0.25 0.769,-0.31c0.5,-0.129 0.982,-0.297 1.465,-0.498Z" style="fill:#f5a3c7;fill-rule:nonzero;"/><path d="M76.865,164.615c-0.087,0.487 0.042,1.028 0.355,1.363c0.279,0.295 0.663,0.409 1.036,0.456c0.193,0.024 0.596,-0.045 0.475,-0.383c-0.062,-0.173 -0.816,-0.408 -0.984,-0.493l-0.21,-0.135c-0.145,-0.139 -0.203,-0.378 -0.172,-0.593c0.032,-0.215 0.142,-0.407 0.281,-0.552c0.436,-0.46 0.22,-0.85 -0.29,-0.486c-0.272,0.193 -0.425,0.455 -0.491,0.823Z" style="fill:#f5a3c7;fill-rule:nonzero;"/><path d="M102.391,157.763c-1.346,0 -2.436,-0.427 -2.436,-0.954c0,-0.527 1.09,-0.953 2.436,-0.953c1.346,0 2.436,0.426 2.436,0.953c0,0.527 -1.09,0.954 -2.436,0.954Zm6.811,-2.757c-0.233,0.142 -0.39,0.468 -0.515,0.711c-1.07,-0.946 -3.485,-1.606 -6.296,-1.606c-2.794,0 -5.194,0.652 -6.275,1.589c-0.128,-0.265 -0.305,-0.496 -0.553,-0.65c0,0 -0.334,1.093 -0.037,2.05l0.101,0.25l0.02,0.047l0.005,0.009c0.659,1.369 3.424,2.858 6.739,2.858c3.096,0 5.714,-1.301 6.583,-2.587c0.101,-0.102 0.23,-0.368 0.307,-0.618c0.297,-0.957 -0.079,-2.053 -0.079,-2.053Z" style="fill:#e48cba;fill-rule:nonzero;"/><path d="M104.154,158.743c-1.503,0.285 -2.955,0.139 -4.437,-0.251c-1.795,-0.474 -3.616,-1.356 -4.163,-3.406c-0.049,0.177 -0.298,1.146 -0.028,2.014l0.101,0.25l0.02,0.047l0.005,0.009c0.659,1.369 3.424,2.858 6.739,2.858c2.084,0 3.95,-0.59 5.213,-1.369c-0.991,-0.673 -2.329,-0.363 -3.45,-0.152Z" style="fill:#d27ab2;fill-rule:nonzero;"/><path d="M104.046,157.506l2.567,0l0,-2.046l1.739,0c-1.193,-0.807 -3.413,-1.349 -5.961,-1.349c-1.991,0 -3.781,0.333 -5.038,0.861l0,2.534l3.382,0c-0.477,-0.173 -0.78,-0.421 -0.78,-0.697c0,-0.527 1.09,-0.953 2.436,-0.953c1.346,0 2.436,0.426 2.436,0.953c0,0.276 -0.302,0.524 -0.781,0.697Z" style="fill:#c473a7;fill-rule:nonzero;"/><path d="M102.391,156.663c-1.759,0 -3.186,-0.558 -3.186,-1.247c0,-0.689 1.427,-1.247 3.186,-1.247c1.759,0 3.186,0.558 3.186,1.247c0,0.689 -1.427,1.247 -3.186,1.247Zm0,-3.945c-3.806,0 -6.89,1.209 -6.89,2.698c0,1.491 3.084,3.201 6.89,3.201c3.805,0 6.89,-1.71 6.89,-3.201c0,-1.489 -3.085,-2.698 -6.89,-2.698Z" style="fill:#e48cba;fill-rule:nonzero;"/><path d="M106.303,157.033c0.382,-0.159 0.794,-0.345 1.006,-0.751c0.22,-0.424 0.136,-1.031 -0.188,-1.351c0.272,-0.382 0.83,-0.358 1.132,-0.011c0.303,0.35 0.358,0.927 0.205,1.391c-0.157,0.475 -0.501,0.84 -0.886,1.075c-0.383,0.236 -0.811,0.357 -1.235,0.466c-0.585,0.154 -1.764,0.529 -2.269,-0.008c0.158,-0.227 0.531,-0.251 0.769,-0.311c0.501,-0.13 0.982,-0.298 1.466,-0.5Z" style="fill:#f5a3c7;fill-rule:nonzero;"/><path d="M96.306,155.16c-0.086,0.486 0.042,1.028 0.355,1.361c0.279,0.297 0.664,0.41 1.036,0.455c0.193,0.025 0.595,-0.044 0.475,-0.379c-0.062,-0.175 -0.814,-0.409 -0.984,-0.495l-0.21,-0.136c-0.145,-0.136 -0.203,-0.376 -0.172,-0.59c0.032,-0.217 0.142,-0.409 0.281,-0.555c0.437,-0.459 0.22,-0.847 -0.291,-0.485c-0.271,0.193 -0.424,0.457 -0.49,0.824Z" style="fill:#f5a3c7;fill-rule:nonzero;"/><path d="M124.116,164.617c-1.445,0 -2.617,-1.17 -2.617,-2.616c0,-1.445 1.172,-2.617 2.617,-2.617c1.446,0 2.618,1.172 2.618,2.617c0,1.446 -1.172,2.616 -2.618,2.616Zm0,-8.654c-3.334,0 -6.036,2.703 -6.036,6.038c0,3.334 2.702,6.037 6.036,6.037c3.335,0 6.039,-2.703 6.039,-6.037c0,-3.335 -2.704,-6.038 -6.039,-6.038Z" style="fill:#a5d495;fill-rule:nonzero;"/><path d="M126.734,162.001c0,1.446 -1.172,2.616 -2.618,2.616c-1.445,0 -2.617,-1.17 -2.617,-2.616c0,-0.324 0.067,-0.631 0.175,-0.918c-0.23,0.408 -0.373,0.871 -0.373,1.372c0,1.555 1.261,2.814 2.815,2.814c1.554,0 2.814,-1.259 2.814,-2.814c0,-0.501 -0.141,-0.965 -0.371,-1.372c0.108,0.285 0.175,0.594 0.175,0.918Z" style="fill:#75ac7a;fill-rule:nonzero;"/><path d="M119.617,160.707c-0.346,-0.07 -0.418,1.202 -0.376,1.661c0.08,0.893 0.331,1.785 0.79,2.559c0.289,0.49 1.984,2.335 2.258,1.67c0.253,-0.62 -1.398,-1.882 -1.761,-2.508c-0.599,-1.038 -0.794,-2.208 -0.911,-3.382Z" style="fill:#75ac7a;fill-rule:nonzero;"/><path d="M128.979,165.173c0.636,-0.522 0.675,-1.752 0.67,-2.502c-0.013,-1.393 -0.518,-3.584 -1.867,-4.349c-0.776,-0.183 -1.568,-0.21 -1.037,0.999c0.293,0.663 1.012,1.076 1.413,1.678c0.647,0.974 0.43,1.828 0.14,2.886c-0.151,0.548 -0.735,2.451 0.681,1.288Z" style="fill:#daebca;fill-rule:nonzero;"/><path d="M124.116,156.609c3.226,0 5.853,2.53 6.021,5.715l0.018,-0.323c0,-3.335 -2.704,-6.038 -6.039,-6.038c-3.334,0 -6.036,2.703 -6.036,6.038l0.016,0.323c0.168,-3.185 2.795,-5.715 6.02,-5.715Z" style="fill:#daebca;fill-rule:nonzero;"/><path d="M95.893,164.033c-1.446,0 -2.618,-1.172 -2.618,-2.619c0,-1.445 1.172,-2.616 2.618,-2.616c1.445,0 2.617,1.171 2.617,2.616c0,1.447 -1.172,2.619 -2.617,2.619Zm0,-8.656c-3.334,0 -6.037,2.704 -6.037,6.037c0,3.336 2.703,6.038 6.037,6.038c3.333,0 6.036,-2.702 6.036,-6.038c0,-3.333 -2.703,-6.037 -6.036,-6.037Z" style="fill:#a5d495;fill-rule:nonzero;"/><path d="M98.51,161.414c0,1.447 -1.172,2.619 -2.617,2.619c-1.446,0 -2.618,-1.172 -2.618,-2.619c0,-0.323 0.066,-0.629 0.173,-0.917c-0.228,0.408 -0.37,0.871 -0.37,1.373c0,1.553 1.26,2.814 2.815,2.814c1.554,0 2.813,-1.261 2.813,-2.814c0,-0.502 -0.141,-0.965 -0.369,-1.373c0.106,0.288 0.173,0.594 0.173,0.917Z" style="fill:#75ac7a;fill-rule:nonzero;"/><path d="M91.393,160.12c-0.345,-0.068 -0.418,1.203 -0.376,1.662c0.081,0.893 0.331,1.786 0.79,2.559c0.289,0.489 1.985,2.335 2.256,1.669c0.256,-0.619 -1.397,-1.879 -1.758,-2.506c-0.6,-1.038 -0.794,-2.207 -0.912,-3.384Z" style="fill:#75ac7a;fill-rule:nonzero;"/><path d="M100.755,164.588c0.636,-0.524 0.675,-1.752 0.668,-2.502c-0.011,-1.394 -0.517,-3.584 -1.865,-4.349c-0.776,-0.184 -1.569,-0.21 -1.037,0.997c0.293,0.665 1.012,1.077 1.413,1.679c0.647,0.975 0.43,1.829 0.138,2.887c-0.151,0.547 -0.735,2.451 0.683,1.288Z" style="fill:#daebca;fill-rule:nonzero;"/><path d="M95.893,156.023c3.224,0 5.852,2.531 6.02,5.714l0.016,-0.323c0,-3.333 -2.703,-6.037 -6.036,-6.037c-3.334,0 -6.037,2.704 -6.037,6.037l0.016,0.323c0.169,-3.183 2.796,-5.714 6.021,-5.714Z" style="fill:#daebca;fill-rule:nonzero;"/><path d="M96.731,169.47c-1.346,0 -2.438,-0.428 -2.438,-0.954c0,-0.527 1.092,-0.955 2.438,-0.955c1.344,0 2.434,0.428 2.434,0.955c0,0.526 -1.09,0.954 -2.434,0.954Zm6.81,-2.758c-0.232,0.142 -0.389,0.468 -0.514,0.711c-1.073,-0.946 -3.487,-1.607 -6.296,-1.607c-2.795,0 -5.195,0.652 -6.277,1.589c-0.127,-0.264 -0.304,-0.496 -0.551,-0.649c0,0 -0.334,1.093 -0.039,2.049l0.103,0.25l0.02,0.048l0.003,0.008c0.661,1.368 3.426,2.859 6.741,2.859c3.095,0 5.714,-1.3 6.583,-2.588c0.101,-0.102 0.23,-0.366 0.305,-0.616c0.297,-0.958 -0.078,-2.054 -0.078,-2.054Z" style="fill:#fec783;fill-rule:nonzero;"/><path d="M98.494,170.449c-1.505,0.285 -2.955,0.139 -4.437,-0.252c-1.796,-0.473 -3.616,-1.355 -4.166,-3.405c-0.048,0.177 -0.295,1.146 -0.027,2.013l0.103,0.25l0.02,0.048l0.003,0.008c0.661,1.368 3.426,2.859 6.741,2.859c2.083,0 3.949,-0.591 5.213,-1.37c-0.991,-0.671 -2.329,-0.362 -3.45,-0.151Z" style="fill:#d3a86f;fill-rule:nonzero;"/><path d="M98.386,169.212l2.566,0l0,-2.046l1.738,0c-1.191,-0.807 -3.412,-1.35 -5.959,-1.35c-1.993,0 -3.781,0.333 -5.039,0.862l0,2.534l3.383,0c-0.478,-0.175 -0.782,-0.42 -0.782,-0.696c0,-0.527 1.092,-0.955 2.438,-0.955c1.344,0 2.434,0.428 2.434,0.955c0,0.276 -0.303,0.521 -0.779,0.696Z" style="fill:#c49c67;fill-rule:nonzero;"/><path d="M96.731,168.37c-1.761,0 -3.186,-0.558 -3.186,-1.247c0,-0.689 1.425,-1.249 3.186,-1.249c1.759,0 3.184,0.56 3.184,1.249c0,0.689 -1.425,1.247 -3.184,1.247Zm0,-3.947c-3.806,0 -6.891,1.209 -6.891,2.7c0,1.49 3.085,3.2 6.891,3.2c3.804,0 6.888,-1.71 6.888,-3.2c0,-1.491 -3.084,-2.7 -6.888,-2.7Z" style="fill:#fec783;fill-rule:nonzero;"/><path d="M100.643,168.74c0.381,-0.16 0.791,-0.346 1.004,-0.751c0.22,-0.425 0.138,-1.032 -0.187,-1.353c0.273,-0.382 0.829,-0.358 1.132,-0.009c0.304,0.347 0.359,0.925 0.205,1.39c-0.158,0.475 -0.5,0.84 -0.885,1.075c-0.385,0.237 -0.812,0.357 -1.235,0.467c-0.585,0.153 -1.765,0.528 -2.27,-0.01c0.158,-0.227 0.532,-0.25 0.768,-0.311c0.503,-0.13 0.984,-0.297 1.468,-0.498Z" style="fill:#ffdb9d;fill-rule:nonzero;"/><path d="M90.645,166.865c-0.087,0.487 0.043,1.028 0.356,1.362c0.277,0.296 0.662,0.41 1.036,0.456c0.193,0.024 0.594,-0.045 0.475,-0.38c-0.062,-0.176 -0.817,-0.408 -0.984,-0.496l-0.21,-0.135c-0.145,-0.137 -0.203,-0.377 -0.172,-0.593c0.03,-0.214 0.141,-0.407 0.28,-0.551c0.436,-0.461 0.219,-0.849 -0.291,-0.485c-0.27,0.193 -0.425,0.455 -0.49,0.822Z" style="fill:#ffdb9d;fill-rule:nonzero;"/><path d="M159.404,163.537l0,2.045l-3.023,0c-1.567,3.657 -18.921,6.539 -40.115,6.539c-21.193,0 -38.547,-2.882 -40.114,-6.539l-3.547,0c1.335,4.794 20.37,8.595 43.661,8.595c24.16,0 43.743,-4.089 43.743,-9.132c0,-0.513 -0.213,-1.017 -0.605,-1.508Z" style="fill:#cdb3b1;fill-rule:nonzero;"/><path d="M133.645,156.463c-1.345,0 -2.436,-0.427 -2.436,-0.954c0,-0.527 1.091,-0.955 2.436,-0.955c1.346,0 2.436,0.428 2.436,0.955c0,0.527 -1.09,0.954 -2.436,0.954Zm6.81,-2.758c-0.232,0.143 -0.388,0.468 -0.513,0.71c-1.071,-0.946 -3.485,-1.605 -6.297,-1.605c-2.794,0 -5.194,0.653 -6.277,1.588c-0.126,-0.263 -0.303,-0.496 -0.551,-0.649c0,0 -0.333,1.092 -0.037,2.05l0.102,0.25l0.019,0.048l0.003,0.007c0.661,1.37 3.426,2.858 6.741,2.858c3.096,0 5.714,-1.299 6.583,-2.587c0.101,-0.101 0.23,-0.367 0.307,-0.616c0.297,-0.958 -0.08,-2.054 -0.08,-2.054Z" style="fill:#fec783;fill-rule:nonzero;"/><path d="M135.408,157.442c-1.503,0.284 -2.953,0.141 -4.437,-0.252c-1.795,-0.473 -3.616,-1.353 -4.164,-3.404c-0.05,0.175 -0.296,1.145 -0.027,2.013l0.102,0.25l0.019,0.048l0.003,0.007c0.661,1.37 3.426,2.858 6.741,2.858c2.086,0 3.95,-0.59 5.213,-1.368c-0.991,-0.672 -2.329,-0.363 -3.45,-0.152Z" style="fill:#d3a86f;fill-rule:nonzero;"/><path d="M135.3,156.204l2.567,0l0,-2.045l1.738,0c-1.191,-0.805 -3.41,-1.349 -5.96,-1.349c-1.991,0 -3.781,0.332 -5.038,0.862l0,2.532l3.382,0c-0.477,-0.173 -0.78,-0.419 -0.78,-0.695c0,-0.527 1.091,-0.955 2.436,-0.955c1.346,0 2.436,0.428 2.436,0.955c0,0.276 -0.302,0.522 -0.781,0.695Z" style="fill:#c49c67;fill-rule:nonzero;"/><path d="M133.645,155.364c-1.76,0 -3.186,-0.559 -3.186,-1.248c0,-0.69 1.426,-1.248 3.186,-1.248c1.759,0 3.185,0.558 3.185,1.248c0,0.689 -1.426,1.248 -3.185,1.248Zm0,-3.947c-3.805,0 -6.891,1.208 -6.891,2.699c0,1.491 3.086,3.199 6.891,3.199c3.805,0 6.89,-1.708 6.89,-3.199c0,-1.491 -3.085,-2.699 -6.89,-2.699Z" style="fill:#fec783;fill-rule:nonzero;"/><path d="M137.557,155.733c0.383,-0.158 0.794,-0.345 1.006,-0.752c0.22,-0.425 0.136,-1.031 -0.189,-1.351c0.273,-0.382 0.831,-0.359 1.134,-0.01c0.302,0.349 0.357,0.927 0.204,1.391c-0.157,0.475 -0.501,0.838 -0.885,1.075c-0.384,0.235 -0.813,0.356 -1.234,0.467c-0.587,0.152 -1.766,0.527 -2.269,-0.011c0.155,-0.226 0.53,-0.25 0.768,-0.31c0.5,-0.13 0.982,-0.297 1.465,-0.499Z" style="fill:#ffdb9d;fill-rule:nonzero;"/><path d="M127.56,153.859c-0.088,0.486 0.042,1.028 0.357,1.362c0.277,0.296 0.661,0.409 1.034,0.456c0.193,0.024 0.596,-0.044 0.476,-0.382c-0.063,-0.174 -0.815,-0.408 -0.985,-0.494l-0.21,-0.136c-0.144,-0.137 -0.203,-0.376 -0.172,-0.591c0.032,-0.215 0.142,-0.407 0.281,-0.554c0.438,-0.459 0.22,-0.848 -0.29,-0.484c-0.273,0.193 -0.426,0.455 -0.491,0.823Z" style="fill:#ffdb9d;fill-rule:nonzero;"/><path d="M126.923,153.991c-1.345,0 -2.436,-0.427 -2.436,-0.954c0,-0.528 1.091,-0.955 2.436,-0.955c1.346,0 2.436,0.427 2.436,0.955c0,0.527 -1.09,0.954 -2.436,0.954Zm6.811,-2.758c-0.232,0.143 -0.389,0.468 -0.514,0.711c-1.071,-0.947 -3.485,-1.606 -6.297,-1.606c-2.794,0 -5.194,0.653 -6.275,1.588c-0.127,-0.263 -0.304,-0.496 -0.553,-0.649c0,0 -0.333,1.092 -0.037,2.05l0.101,0.25l0.02,0.047l0.005,0.008c0.659,1.37 3.425,2.858 6.739,2.858c3.097,0 5.716,-1.3 6.584,-2.587c0.102,-0.101 0.229,-0.367 0.307,-0.616c0.296,-0.957 -0.08,-2.054 -0.08,-2.054Z" style="fill:#e48cba;fill-rule:nonzero;"/><path d="M128.686,154.971c-1.503,0.283 -2.953,0.14 -4.437,-0.252c-1.795,-0.474 -3.616,-1.354 -4.163,-3.405c-0.049,0.175 -0.298,1.144 -0.028,2.013l0.101,0.25l0.02,0.047l0.005,0.008c0.659,1.37 3.425,2.858 6.739,2.858c2.086,0 3.952,-0.59 5.214,-1.368c-0.99,-0.673 -2.329,-0.364 -3.451,-0.151Z" style="fill:#d27ab2;fill-rule:nonzero;"/><path d="M128.578,153.733l2.569,0l0,-2.046l1.738,0c-1.193,-0.805 -3.412,-1.349 -5.962,-1.349c-1.991,0 -3.781,0.332 -5.038,0.862l0,2.533l3.383,0c-0.478,-0.174 -0.781,-0.42 -0.781,-0.696c0,-0.528 1.091,-0.955 2.436,-0.955c1.346,0 2.436,0.427 2.436,0.955c0,0.276 -0.302,0.522 -0.781,0.696Z" style="fill:#c473a7;fill-rule:nonzero;"/><path d="M126.923,152.892c-1.759,0 -3.186,-0.559 -3.186,-1.248c0,-0.69 1.427,-1.248 3.186,-1.248c1.759,0 3.187,0.558 3.187,1.248c0,0.689 -1.428,1.248 -3.187,1.248Zm0,-3.947c-3.804,0 -6.89,1.208 -6.89,2.699c0,1.49 3.086,3.2 6.89,3.2c3.807,0 6.891,-1.71 6.891,-3.2c0,-1.491 -3.084,-2.699 -6.891,-2.699Z" style="fill:#e48cba;fill-rule:nonzero;"/><path d="M130.836,153.261c0.381,-0.158 0.793,-0.345 1.005,-0.752c0.221,-0.424 0.136,-1.031 -0.187,-1.351c0.271,-0.382 0.83,-0.359 1.132,-0.01c0.303,0.349 0.359,0.927 0.205,1.391c-0.157,0.475 -0.501,0.838 -0.885,1.075c-0.385,0.235 -0.812,0.356 -1.235,0.467c-0.586,0.153 -1.766,0.527 -2.269,-0.011c0.157,-0.226 0.532,-0.25 0.768,-0.31c0.5,-0.13 0.983,-0.297 1.466,-0.499Z" style="fill:#f5a3c7;fill-rule:nonzero;"/><path d="M120.839,151.387c-0.087,0.486 0.042,1.028 0.355,1.362c0.278,0.296 0.663,0.409 1.035,0.456c0.193,0.024 0.596,-0.045 0.475,-0.382c-0.062,-0.174 -0.814,-0.408 -0.983,-0.493l-0.211,-0.137c-0.144,-0.137 -0.203,-0.376 -0.172,-0.591c0.033,-0.215 0.143,-0.407 0.281,-0.554c0.437,-0.459 0.22,-0.848 -0.289,-0.484c-0.272,0.193 -0.426,0.455 -0.491,0.823Z" style="fill:#f5a3c7;fill-rule:nonzero;"/><path d="M121.383,141.055c-1.196,0.612 -2.363,0.727 -2.603,0.259c-0.239,-0.471 0.538,-1.346 1.736,-1.959c1.198,-0.611 2.364,-0.726 2.604,-0.256c0.24,0.469 -0.538,1.345 -1.737,1.956Zm4.814,-5.551c-0.141,0.231 -0.134,0.592 -0.135,0.866c-1.383,-0.355 -3.834,0.154 -6.338,1.431c-2.489,1.271 -4.33,2.942 -4.868,4.269c-0.233,-0.179 -0.497,-0.305 -0.787,-0.328c0,0 0.199,1.124 0.898,1.843l0.205,0.177l0.039,0.032l0.007,0.005c1.21,0.921 4.35,0.99 7.302,-0.517c2.758,-1.408 4.5,-3.755 4.688,-5.296c0.045,-0.138 0.038,-0.432 -0.007,-0.69c-0.17,-0.987 -1.004,-1.792 -1.004,-1.792Z" style="fill:#e48cba;fill-rule:nonzero;"/><path d="M123.398,141.128c-1.208,0.937 -2.567,1.465 -4.065,1.791c-1.815,0.394 -3.835,0.437 -5.257,-1.14c0.037,0.179 0.256,1.155 0.891,1.806l0.205,0.177l0.039,0.032l0.007,0.005c1.21,0.921 4.35,0.99 7.302,-0.517c1.857,-0.948 3.25,-2.321 4.022,-3.588c-1.189,-0.148 -2.241,0.735 -3.144,1.434Z" style="fill:#d27ab2;fill-rule:nonzero;"/><path d="M122.741,140.074l2.287,-1.167l-0.931,-1.822l1.549,-0.789c-1.427,-0.177 -3.652,0.347 -5.922,1.505c-1.774,0.906 -3.217,2.016 -4.096,3.059l1.151,2.256l3.013,-1.538c-0.505,0.062 -0.886,-0.018 -1.012,-0.264c-0.239,-0.471 0.538,-1.346 1.736,-1.959c1.198,-0.611 2.364,-0.726 2.604,-0.256c0.125,0.245 -0.033,0.604 -0.379,0.975Z" style="fill:#c473a7;fill-rule:nonzero;"/><path d="M120.884,140.076c-1.566,0.801 -3.091,0.952 -3.404,0.337c-0.315,-0.614 0.704,-1.759 2.27,-2.56c1.567,-0.799 3.092,-0.95 3.405,-0.335c0.313,0.614 -0.703,1.759 -2.271,2.558Zm-1.794,-3.516c-3.388,1.731 -5.588,4.209 -4.91,5.537c0.677,1.327 4.203,1.447 7.591,-0.281c3.39,-1.731 5.361,-4.654 4.683,-5.982c-0.678,-1.329 -3.975,-1.002 -7.364,0.726Z" style="fill:#e48cba;fill-rule:nonzero;"/><path d="M124.537,138.628c0.268,-0.316 0.55,-0.668 0.554,-1.126c0.003,-0.479 -0.348,-0.983 -0.781,-1.119c0.068,-0.465 0.575,-0.697 1.003,-0.524c0.43,0.173 0.742,0.662 0.815,1.145c0.076,0.495 -0.064,0.977 -0.3,1.36c-0.235,0.385 -0.56,0.687 -0.888,0.979c-0.453,0.402 -1.333,1.272 -2.025,1.022c0.037,-0.274 0.36,-0.464 0.543,-0.626c0.387,-0.344 0.741,-0.712 1.079,-1.111Z" style="fill:#f5a3c7;fill-rule:nonzero;"/><path d="M114.781,141.503c0.144,0.471 0.505,0.896 0.936,1.05c0.382,0.139 0.775,0.063 1.129,-0.064c0.183,-0.066 0.51,-0.311 0.25,-0.556c-0.135,-0.126 -0.913,0.007 -1.101,0.007l-0.25,-0.025c-0.19,-0.057 -0.35,-0.244 -0.422,-0.449c-0.07,-0.207 -0.059,-0.427 -0.001,-0.62c0.181,-0.608 -0.189,-0.855 -0.479,-0.301c-0.155,0.296 -0.172,0.6 -0.062,0.958Z" style="fill:#f5a3c7;fill-rule:nonzero;"/><path d="M128.111,189.621c-0.12,-0.132 -0.258,-0.265 -0.411,-0.395c-2.025,-1.705 -5.691,-0.189 -7.935,0.166c-1.401,0.22 -2.05,0.364 -4.178,0.517c-1.852,-0.111 -2.779,-0.297 -4.18,-0.517c-2.244,-0.355 -5.91,-1.871 -7.935,-0.166c-0.153,0.13 -0.289,0.263 -0.411,0.395c-1.975,2.19 0.468,4.808 2.749,6.002c3.003,1.57 6.388,2.392 9.777,2.427c3.388,-0.035 6.772,-0.857 9.775,-2.427c2.281,-1.194 4.725,-3.812 2.749,-6.002Z" style="fill:#55051d;fill-rule:nonzero;"/><path d="M113.187,192.033c0.534,0.292 1.755,0.174 2.366,0.198c0.248,0.009 0.812,0.031 0.92,-0.191c0.121,-0.254 0.085,-0.666 0.058,-0.899c-0.054,-0.433 -0.131,-0.862 -0.175,-1.292c-0.235,0.019 -0.488,0.04 -0.769,0.06c-1.026,-0.062 -1.768,-0.146 -2.464,-0.247c-0.263,0.866 -0.574,2.024 0.064,2.371Z" style="fill:#fff;fill-rule:nonzero;"/><path d="M119.365,191.833c0.481,0.251 1.396,-0.074 2.148,-0.466c0.381,-0.198 0.554,-0.647 0.409,-1.051c-0.154,-0.429 -0.261,-0.87 -0.335,-1.321c-0.662,0.158 -1.283,0.31 -1.822,0.397c-0.41,0.063 -0.754,0.121 -1.092,0.175c0.083,0.778 0.221,2.02 0.692,2.266Z" style="fill:#fff;fill-rule:nonzero;"/><path d="M110.329,190.88c0.148,-0.537 0.285,-1.075 0.438,-1.612c-0.682,-0.144 -1.448,-0.345 -2.241,-0.516c-0.035,0.118 -0.072,0.235 -0.111,0.354c-0.148,0.447 -0.519,1.132 -0.363,1.617c0.14,0.435 0.735,0.618 1.349,0.729c0.409,0.073 0.816,-0.17 0.928,-0.572Z" style="fill:#fff;fill-rule:nonzero;"/><path d="M118.036,194.082c-3.339,-1.027 -7.89,-0.492 -9.963,2.555c2.393,0.909 4.951,1.387 7.514,1.413c2.255,-0.024 4.507,-0.403 6.647,-1.112c-1.05,-1.303 -2.427,-2.313 -4.198,-2.856Z" style="fill:#c0564e;fill-rule:nonzero;"/><path d="M110.45,197.384c0.761,0.192 1.533,0.338 2.31,0.448c0.109,-0.705 0.204,-1.411 0.255,-2.123c0.013,-0.19 -0.125,-0.364 -0.313,-0.395c-0.476,-0.081 -0.951,-0.153 -1.428,-0.202c-0.194,-0.02 -0.366,0.118 -0.4,0.311c-0.11,0.66 -0.262,1.311 -0.424,1.961Z" style="fill:#fff;fill-rule:nonzero;"/><path d="M116.109,195.637c-0.524,-0.021 -1.013,-0.032 -1.532,-0.011c-0.241,0.009 -0.43,0.216 -0.424,0.456l0.043,1.671l-0.054,0.249c0.368,0.024 0.738,0.044 1.108,0.048c0.496,-0.005 0.992,-0.004 1.487,-0.043c-0.013,-0.553 -0.148,-1.344 -0.205,-1.971c-0.02,-0.22 -0.203,-0.39 -0.423,-0.399Z" style="fill:#fff;fill-rule:nonzero;"/><path d="M120.074,195.577c-0.071,-0.162 -0.241,-0.258 -0.417,-0.233c-0.464,0.069 -0.966,0.097 -1.323,0.309c-0.405,0.243 -0.24,0.521 -0.127,0.961c0.105,0.408 0.2,0.715 0.374,1.19c0.798,-0.097 1.514,-0.233 2.361,-0.482c-0.355,-0.593 -0.603,-1.125 -0.868,-1.745Z" style="fill:#fff;fill-rule:nonzero;"/><path d="M103.033,182.87c0.112,-0.495 0.427,-0.933 0.886,-1.278c0.456,-0.343 1.05,-0.574 1.628,-0.641c0.146,-0.016 0.292,-0.026 0.435,-0.026c0.529,0 1.031,0.115 1.443,0.356c0.518,0.297 0.901,0.844 0.941,1.362c0.036,0.392 0.384,0.681 0.776,0.645c0.392,-0.036 0.681,-0.384 0.645,-0.776c-0.107,-1.075 -0.78,-1.956 -1.644,-2.463c-0.676,-0.394 -1.431,-0.55 -2.161,-0.55c-0.203,0 -0.403,0.013 -0.6,0.036c-0.829,0.097 -1.641,0.41 -2.318,0.916c-0.674,0.503 -1.22,1.219 -1.42,2.104c-0.088,0.384 0.153,0.766 0.536,0.853c0.385,0.088 0.766,-0.154 0.854,-0.537l-0.001,-0.001Z" style="fill:#231f20;fill-rule:nonzero;"/><path d="M121.748,182.87c0.112,-0.495 0.427,-0.933 0.886,-1.278c0.455,-0.343 1.05,-0.574 1.627,-0.641c0.147,-0.016 0.293,-0.026 0.435,-0.026c0.528,0 1.032,0.115 1.444,0.356c0.518,0.297 0.901,0.844 0.941,1.362c0.036,0.392 0.384,0.681 0.776,0.645c0.392,-0.036 0.682,-0.384 0.646,-0.776c-0.108,-1.075 -0.781,-1.956 -1.646,-2.463c-0.676,-0.394 -1.43,-0.55 -2.161,-0.55c-0.202,0 -0.402,0.013 -0.6,0.036c-0.829,0.097 -1.64,0.41 -2.317,0.916c-0.674,0.503 -1.22,1.219 -1.42,2.104c-0.088,0.384 0.153,0.766 0.536,0.853c0.385,0.088 0.766,-0.154 0.854,-0.537l-0.001,-0.001Z" style="fill:#231f20;fill-rule:nonzero;"/><path d="M147.621,185.202c0.05,0.034 1.01,0.746 2.561,1.463c1.552,0.714 3.701,1.444 6.14,1.448c2.241,0.006 4.739,-0.65 7.033,-2.486c2.296,-1.832 4.368,-4.78 6.002,-9.266c0.234,-0.645 -0.097,-1.359 -0.742,-1.593c-0.646,-0.235 -1.358,0.097 -1.593,0.743c-1.526,4.188 -3.375,6.707 -5.218,8.173c-1.844,1.463 -3.699,1.937 -5.482,1.943c-1.93,0.003 -3.762,-0.6 -5.097,-1.218c-0.668,-0.308 -1.211,-0.618 -1.58,-0.847c-0.185,-0.113 -0.326,-0.207 -0.418,-0.271l-0.101,-0.069l-0.021,-0.016l-0.002,0c-0.551,-0.409 -1.328,-0.294 -1.738,0.257c-0.409,0.551 -0.294,1.329 0.257,1.739l-0.001,0Z" style="fill:#d1ac9f;fill-rule:nonzero;"/><path d="M167.186,172.363c-0.02,-0.326 -0.042,-0.673 0.115,-0.957c0.157,-0.287 0.571,-0.457 0.82,-0.248l0.212,0.138l0.186,-0.125c0.397,-0.519 0.679,-1.203 1.292,-1.426c0.568,-0.206 1.235,0.103 1.558,0.612c0.323,0.509 0.347,1.163 0.198,1.748c-0.148,0.584 -0.45,1.115 -0.75,1.639c-0.513,0.898 -1.025,1.796 -1.539,2.696c-0.2,0.35 -0.446,0.736 -0.843,0.815c-0.184,0.037 -0.373,0.001 -0.556,-0.036c-1.074,-0.212 -0.967,-0.723 -0.794,-1.576c0.216,-1.066 0.172,-2.201 0.101,-3.28Z" style="fill:#d1ac9f;fill-rule:nonzero;"/><path d="M64.9,174.59c-0.029,-0.325 -0.062,-0.67 -0.262,-0.929c-0.199,-0.258 -0.632,-0.361 -0.848,-0.116l-0.188,0.168l-0.201,-0.095c-0.473,-0.45 -0.858,-1.081 -1.5,-1.209c-0.59,-0.116 -1.202,0.292 -1.444,0.846c-0.24,0.552 -0.16,1.202 0.076,1.757c0.236,0.554 0.617,1.033 0.993,1.503c0.646,0.81 1.293,1.617 1.939,2.425c0.251,0.316 0.554,0.658 0.958,0.676c0.188,0.008 0.368,-0.057 0.545,-0.12c1.027,-0.376 0.844,-0.866 0.54,-1.68c-0.378,-1.021 -0.51,-2.148 -0.608,-3.226Z" style="fill:#d1ac9f;fill-rule:nonzero;"/><path d="M148.315,164.473c0.636,-0.524 0.673,-1.752 0.67,-2.502c-0.013,-1.393 -0.518,-3.584 -1.866,-4.349c-0.776,-0.184 -1.569,-0.21 -1.037,0.999c0.292,0.663 1.011,1.076 1.411,1.677c0.648,0.975 0.433,1.829 0.141,2.887c-0.151,0.546 -0.735,2.449 0.681,1.288Z" style="fill:#daebca;fill-rule:nonzero;"/><path d="M145.232,168.417c0.383,-0.157 0.793,-0.344 1.005,-0.751c0.221,-0.425 0.136,-1.032 -0.188,-1.351c0.273,-0.383 0.83,-0.359 1.133,-0.011c0.304,0.35 0.359,0.928 0.205,1.391c-0.157,0.474 -0.501,0.839 -0.885,1.076c-0.385,0.235 -0.812,0.356 -1.235,0.467c-0.587,0.152 -1.766,0.526 -2.269,-0.011c0.158,-0.226 0.531,-0.25 0.768,-0.31c0.501,-0.13 0.982,-0.297 1.466,-0.5Z" style="fill:#ffdb9d;fill-rule:nonzero;"/><path d="M151.351,165.241c0.381,-0.16 0.793,-0.345 1.005,-0.751c0.221,-0.424 0.136,-1.032 -0.187,-1.352c0.271,-0.383 0.829,-0.359 1.132,-0.01c0.303,0.349 0.359,0.926 0.206,1.39c-0.159,0.475 -0.501,0.84 -0.886,1.075c-0.385,0.237 -0.812,0.357 -1.235,0.467c-0.586,0.153 -1.765,0.528 -2.269,-0.01c0.157,-0.225 0.531,-0.25 0.768,-0.311c0.5,-0.128 0.983,-0.296 1.466,-0.498Z" style="fill:#ffdb9d;fill-rule:nonzero;"/><path d="M167.901,147.766c-1.706,-4.558 -8.52,-12.979 -12.484,-11.495c-3.965,1.483 -3.578,12.307 -1.872,16.868c1.446,3.865 4.971,6.245 8.426,5.975l11.207,29.948l2.174,8.137c0.388,1.566 2.056,2.443 3.568,1.878c1.544,-0.578 2.214,-2.394 1.416,-3.837l-3.708,-7.611l-11.16,-29.825c2.783,-2.065 3.88,-6.172 2.433,-10.038Z" style="fill:#fde1d5;fill-rule:nonzero;"/><path d="M180.336,195.24l-3.708,-7.61l-11.16,-29.825c2.783,-2.066 3.88,-6.173 2.433,-10.039c-1.706,-4.558 -8.52,-12.979 -12.484,-11.495c-0.198,0.075 -0.383,0.178 -0.558,0.296c3.897,1.263 8.805,7.671 10.215,11.442c1.447,3.865 1.422,8.079 -0.231,9.961l10.089,29.72l2.579,7.793c0.67,1.216 0.299,2.691 -0.755,3.473c0.646,0.327 1.423,0.397 2.164,0.121c1.544,-0.578 2.214,-2.394 1.416,-3.837Z" style="fill:#d7c1b8;fill-rule:nonzero;"/></g><path d="M-173.971,98.39l358.837,-207.174" style="fill:none;stroke:#fff;stroke-width:6px;"/><path d="M-160.303,122.063l358.836,-207.174" style="fill:none;stroke:#fff;stroke-width:6px;"/><path d="M-146.635,145.736l358.836,-207.174" style="fill:none;stroke:#fff;stroke-width:6px;"/><path d="M-132.968,169.409l358.837,-207.174" style="fill:none;stroke:#fff;stroke-width:6px;"/><path d="M-119.3,193.082l358.836,-207.174" style="fill:none;stroke:#fff;stroke-width:6px;"/><path d="M-105.633,216.755l358.837,-207.174" style="fill:none;stroke:#fff;stroke-width:6px;"/><path d="M-91.965,240.428l358.837,-207.174" style="fill:none;stroke:#fff;stroke-width:6px;"/><path d="M-37.294,335.121l358.836,-207.175" style="fill:none;stroke:#fff;stroke-width:6px;"/><path d="M-23.627,358.794l358.837,-207.174" style="fill:none;stroke:#fff;stroke-width:6px;"/><path d="M-9.959,382.467l358.837,-207.174" style="fill:none;stroke:#fff;stroke-width:6px;"/><path d="M3.709,406.14l358.836,-207.174" style="fill:none;stroke:#fff;stroke-width:6px;"/><path d="M17.376,429.813l358.837,-207.174" style="fill:none;stroke:#fff;stroke-width:6px;"/><path d="M31.044,453.486l358.836,-207.174" style="fill:none;stroke:#fff;stroke-width:6px;"/><path d="M44.712,477.159l358.836,-207.174" style="fill:none;stroke:#fff;stroke-width:6px;"/></g></svg>