<?xml version="1.0" encoding="UTF-8" standalone="no"?><!DOCTYPE svg PUBLIC "-//W3C//DTD SVG 1.1//EN" "http://www.w3.org/Graphics/SVG/1.1/DTD/svg11.dtd"><svg width="100%" height="100%" viewBox="0 0 241 361" version="1.1" xmlns="http://www.w3.org/2000/svg" xmlns:xlink="http://www.w3.org/1999/xlink" xml:space="preserve" xmlns:serif="http://www.serif.com/" style="fill-rule:evenodd;clip-rule:evenodd;stroke-linecap:round;stroke-linejoin:round;stroke-miterlimit:1.5;"><rect id="b1" x="0.493" y="0.801" width="240" height="360" style="fill:none;"/><clipPath id="_clip1"><rect x="0.493" y="0.801" width="240" height="360"/></clipPath><g clip-path="url(#_clip1)"><path d="M240.493,30.801c0,-16.558 -13.442,-30 -30,-30l-180,0c-16.557,0 -30,13.442 -30,30l0,300c0,16.557 13.443,30 30,30l180,0c16.558,0 30,-13.443 30,-30l0,-300Z" style="fill:#2b2b2b;"/><path d="M44.722,50.115c7.598,0.085 12.272,-4.751 9.701,-9.84c-2.571,-5.09 -5.134,-6.236 -9.17,-9.926c-4.038,-3.69 -9.909,-10.074 -9.882,-11.579c0.03,1.505 -5.6,7.889 -9.638,11.579c-4.036,3.69 -6.597,4.836 -9.17,9.926c-2.571,5.089 2.105,9.925 9.702,9.84c5.215,-0.058 7.562,-3.034 8.519,-4.895l0,2.435c0,0 -1.665,8.784 -13.416,9.746l-1.873,0l0,1.369l31.998,0l0,-1.369l-1.875,0c-11.749,-0.962 -13.416,-9.746 -13.416,-9.746l0,-2.115c1.128,1.862 3.594,4.52 8.52,4.575" style="fill:#fff;fill-rule:nonzero;"/><path d="M219.393,324.64l-20.183,-20.183l-20.182,20.183l20.182,20.183l20.183,-20.183Z" style="fill:#fff;"/><g><path d="M199.493,25.33c4.4,-8.36 13.2,-8.36 17.6,-4.18c4.4,4.18 4.4,12.54 0,20.9c-3.08,6.27 -11,12.54 -17.6,16.72c-6.6,-4.18 -14.52,-10.45 -17.6,-16.72c-4.4,-8.36 -4.4,-16.72 0,-20.9c4.4,-4.18 13.2,-4.18 17.6,4.18Z" style="fill:#fff;"/></g><path d="M47.131,317.956c-1.264,0 -2.468,0.248 -3.566,0.694c1.031,-1.46 1.636,-3.227 1.636,-5.134c0,-5.003 -4.157,-9.059 -9.285,-9.059c-5.128,0 -9.285,4.056 -9.285,9.059c0,1.815 0.549,3.504 1.491,4.921c-0.936,-0.31 -1.94,-0.481 -2.984,-0.481c-5.128,0 -9.285,4.056 -9.285,9.059c0,5.003 4.157,9.059 9.285,9.059c1.158,0 2.266,-0.209 3.288,-0.587c0,0.002 4.322,-1.136 7.162,-6.181l0,3.038c0,0 -1.456,9.573 -11.724,10.621l-1.639,0l0,1.492l27.965,0l0,-1.492l-1.639,0c-10.268,-1.048 -11.725,-10.621 -11.725,-10.621l0,-2.833c0.529,1.137 3.455,6.694 10.029,6.556c0.092,0.003 0.183,0.007 0.276,0.007c5.128,0 9.285,-4.056 9.285,-9.059c0,-5.003 -4.157,-9.059 -9.285,-9.059Z" style="fill:#fff;fill-rule:nonzero;"/><path d="M-173.971,98.39l358.837,-207.174" style="fill:none;stroke:#fff;stroke-width:6px;"/><path d="M44.712,477.159l358.836,-207.174" style="fill:none;stroke:#fff;stroke-width:6px;"/><path d="M90.629,229.996c0,-5.197 1.806,-9.474 5.42,-12.833c3.613,-3.359 8.609,-5.038 14.985,-5.038c6.377,0 11.372,1.679 14.986,5.038c3.613,3.359 5.42,7.636 5.42,12.833c0,5.196 -1.807,9.474 -5.42,12.833c-3.614,3.358 -8.609,5.038 -14.986,5.038c-6.376,0 -11.372,-1.68 -14.985,-5.038c-3.614,-3.359 -5.42,-7.637 -5.42,-12.833Zm7.014,-24.905c-2.409,-1.141 -4.676,-3.201 -6.802,-6.179c-2.125,-2.979 -3.188,-6.496 -3.188,-10.551c0,-3.93 1.169,-6.876 3.507,-8.841c2.338,-1.964 5.775,-3.454 10.309,-4.468l16.58,-3.612c7.085,-1.647 10.628,-4.689 10.628,-9.125c0,-2.408 -1.311,-4.5 -3.933,-6.274c-2.621,-1.775 -7.12,-2.662 -13.497,-2.662c-5.81,0 -11.266,0.666 -16.367,1.996c-5.102,1.331 -9.211,2.884 -12.329,4.658c-2.409,-1.647 -4.463,-3.644 -6.164,-5.988c-1.7,-2.345 -2.551,-5.165 -2.551,-8.46c0,-3.296 1.063,-6.179 3.189,-8.651c2.125,-2.471 5.066,-4.499 8.821,-6.083c3.755,-1.585 8.219,-2.757 13.391,-3.518c5.173,-0.76 10.876,-1.14 17.111,-1.14c16.722,0 29.369,3.327 37.942,9.981c8.574,6.654 12.86,15.367 12.86,26.141c0,20.279 -16.013,33.27 -48.038,38.973l-21.469,3.803Z" style="fill:#fff;fill-rule:nonzero;"/></g></svg>