<?xml version="1.0" encoding="UTF-8" standalone="no"?><!DOCTYPE svg PUBLIC "-//W3C//DTD SVG 1.1//EN" "http://www.w3.org/Graphics/SVG/1.1/DTD/svg11.dtd"><svg width="100%" height="100%" viewBox="0 0 241 360" version="1.1" xmlns="http://www.w3.org/2000/svg" xmlns:xlink="http://www.w3.org/1999/xlink" xml:space="preserve" xmlns:serif="http://www.serif.com/" style="fill-rule:evenodd;clip-rule:evenodd;stroke-linejoin:round;stroke-miterlimit:2;"><rect id="c2" x="0.077" y="0" width="240" height="360" style="fill:none;"/><clipPath id="_clip1"><rect x="0.077" y="0" width="240" height="360"/></clipPath><g clip-path="url(#_clip1)"><rect x="0.077" y="0" width="240" height="360" style="fill:#c42532;"/><g id="Layer1"></g><path d="M114.126,126.193c8.077,0 15.233,0.919 21.468,2.756c6.235,1.838 11.549,4.341 15.942,7.51c4.393,3.169 7.723,6.907 9.991,11.217c2.267,4.309 3.401,8.935 3.401,13.878c0,13.308 -8.432,25.983 -25.295,38.023l-27.845,19.962l51.014,0c0.85,1.395 1.665,3.169 2.444,5.324c0.78,2.154 1.17,4.499 1.17,7.034c0,4.563 -1.134,7.826 -3.401,9.791c-2.268,1.964 -5.244,2.947 -8.928,2.947l-73.758,0c-3.118,-1.901 -5.562,-4.341 -7.334,-7.32c-1.771,-2.978 -2.657,-6.495 -2.657,-10.551c0,-4.309 0.992,-7.953 2.976,-10.932c1.984,-2.978 4.181,-5.355 6.59,-7.129l29.333,-22.434c3.684,-2.788 6.731,-5.291 9.14,-7.509c2.409,-2.218 4.357,-4.215 5.845,-5.989c1.488,-1.774 2.551,-3.422 3.189,-4.943c0.637,-1.521 0.956,-2.978 0.956,-4.373c0,-3.548 -1.736,-6.337 -5.207,-8.365c-3.472,-2.028 -7.759,-3.042 -12.86,-3.042c-5.669,0 -10.735,0.793 -15.198,2.377c-4.464,1.584 -8.184,3.264 -11.16,5.038c-2.409,-1.521 -4.393,-3.422 -5.951,-5.704c-1.559,-2.281 -2.339,-4.943 -2.339,-7.984c0,-6.591 3.472,-11.502 10.416,-14.734c6.943,-3.232 16.296,-4.848 28.058,-4.848Z" style="fill:#fff;fill-rule:nonzero;"/><path d="M140.26,32.786l-20.183,-20.182l-20.182,20.182l20.182,20.183l20.183,-20.183Z" style="fill:#fff;"/></g></svg>