<?xml version="1.0" encoding="UTF-8" standalone="no"?><!DOCTYPE svg PUBLIC "-//W3C//DTD SVG 1.1//EN" "http://www.w3.org/Graphics/SVG/1.1/DTD/svg11.dtd"><svg width="100%" height="100%" viewBox="0 0 241 360" version="1.1" xmlns="http://www.w3.org/2000/svg" xmlns:xlink="http://www.w3.org/1999/xlink" xml:space="preserve" xmlns:serif="http://www.serif.com/" style="fill-rule:evenodd;clip-rule:evenodd;stroke-linejoin:round;stroke-miterlimit:2;"><rect id="c6" x="0.387" y="0" width="240" height="360" style="fill:none;"/><clipPath id="_clip1"><rect x="0.387" y="0" width="240" height="360"/></clipPath><g clip-path="url(#_clip1)"><g id="Layer1"><g><path d="M240.387,30c0,-16.557 -13.442,-30 -30,-30l-180,0c-16.557,0 -30,13.443 -30,30l0,300c0,16.557 13.443,30 30,30l180,0c16.558,0 30,-13.443 30,-30l0,-300Z" style="fill:#c42532;"/></g></g><path d="M162.049,143.113c0,2.662 -0.673,5.228 -2.019,7.7c-1.347,2.471 -2.941,4.341 -4.783,5.608c-3.826,-1.521 -7.829,-2.693 -12.01,-3.517c-4.18,-0.824 -8.041,-1.236 -11.584,-1.236c-8.502,0 -15.056,1.996 -19.662,5.989c-4.605,3.992 -7.687,9.727 -9.246,17.205c2.834,-1.774 6.589,-3.39 11.265,-4.848c4.677,-1.457 9.495,-2.186 14.455,-2.186c13.037,0 23.417,3.359 31.14,10.076c7.723,6.718 11.584,16.35 11.584,28.898c0,5.45 -1.063,10.646 -3.188,15.589c-2.126,4.943 -5.314,9.284 -9.566,13.023c-4.251,3.739 -9.529,6.718 -15.835,8.936c-6.306,2.218 -13.64,3.327 -22,3.327c-16.722,0 -29.865,-5.007 -39.43,-15.02c-9.565,-10.012 -14.348,-24.271 -14.348,-42.776c0,-10.519 1.453,-19.772 4.358,-27.756c2.905,-7.985 7.014,-14.639 12.328,-19.963c5.314,-5.323 11.655,-9.315 19.024,-11.977c7.369,-2.661 15.517,-3.992 24.445,-3.992c11.336,0 20.016,1.394 26.038,4.182c6.023,2.789 9.034,7.035 9.034,12.738Zm-41.662,49.43c-2.692,0 -5.562,0.507 -8.608,1.521c-3.047,1.014 -5.492,2.408 -7.334,4.183l0,4.752c0,6.845 1.594,11.724 4.783,14.639c3.188,2.915 7.05,4.373 11.584,4.373c4.677,0 8.184,-1.394 10.522,-4.183c2.338,-2.788 3.507,-6.4 3.507,-10.836c0,-4.436 -1.24,-7.953 -3.719,-10.552c-2.48,-2.598 -6.058,-3.897 -10.735,-3.897Z" style="fill:#fff;fill-rule:nonzero;"/><path d="M140.57,32.786l-20.183,-20.182l-20.182,20.182l20.182,20.183l20.183,-20.183Z" style="fill:#fff;"/></g></svg>