<?xml version="1.0" encoding="UTF-8" standalone="no"?><!DOCTYPE svg PUBLIC "-//W3C//DTD SVG 1.1//EN" "http://www.w3.org/Graphics/SVG/1.1/DTD/svg11.dtd"><svg width="100%" height="100%" viewBox="0 0 241 360" version="1.1" xmlns="http://www.w3.org/2000/svg" xmlns:xlink="http://www.w3.org/1999/xlink" xml:space="preserve" xmlns:serif="http://www.serif.com/" style="fill-rule:evenodd;clip-rule:evenodd;stroke-linejoin:round;stroke-miterlimit:2;"><rect id="c7" x="0.465" y="0" width="240" height="360" style="fill:none;"/><clipPath id="_clip1"><rect x="0.465" y="0" width="240" height="360"/></clipPath><g clip-path="url(#_clip1)"><rect x="0.465" y="0" width="240" height="360" style="fill:#c42532;"/><g id="Layer1"></g><path d="M158.513,129.044c2.409,1.395 4.57,3.327 6.483,5.799c1.913,2.471 2.87,5.545 2.87,9.221c0,2.027 -0.213,4.087 -0.638,6.178c-0.425,2.092 -1.134,4.151 -2.126,6.179l-44.212,89.545c-1.984,0.126 -3.862,0.19 -5.633,0.19l-4.995,0c-6.377,0 -11.549,-1.078 -15.517,-3.232c-3.968,-2.155 -5.952,-5.894 -5.952,-11.217c0,-2.662 0.709,-5.545 2.126,-8.65c1.417,-3.106 3.33,-6.813 5.739,-11.122l31.034,-56.845l-52.077,0c-0.851,-1.394 -1.701,-3.232 -2.551,-5.513c-0.85,-2.281 -1.276,-4.69 -1.276,-7.224c0,-4.817 1.205,-8.239 3.614,-10.267c2.409,-2.028 5.456,-3.042 9.14,-3.042l73.971,0Z" style="fill:#fff;fill-rule:nonzero;"/><path d="M140.647,32.786l-20.182,-20.182l-20.183,20.182l20.183,20.183l20.182,-20.183Z" style="fill:#fff;"/></g></svg>