<?xml version="1.0" encoding="UTF-8" standalone="no"?><!DOCTYPE svg PUBLIC "-//W3C//DTD SVG 1.1//EN" "http://www.w3.org/Graphics/SVG/1.1/DTD/svg11.dtd"><svg width="100%" height="100%" viewBox="0 0 241 360" version="1.1" xmlns="http://www.w3.org/2000/svg" xmlns:xlink="http://www.w3.org/1999/xlink" xml:space="preserve" xmlns:serif="http://www.serif.com/" style="fill-rule:evenodd;clip-rule:evenodd;stroke-linejoin:round;stroke-miterlimit:2;"><rect id="ck" x="0.929" y="0" width="240" height="360" style="fill:none;"/><clipPath id="_clip1"><rect x="0.929" y="0" width="240" height="360"/></clipPath><g clip-path="url(#_clip1)"><rect x="0.929" y="0" width="240" height="360" style="fill:#c42532;"/><g id="Layer1"></g><g><path d="M121.082,255.604c-43.365,0 -80.126,48.785 -84.744,94.808l167.056,0c-4.336,-46.023 -38.947,-94.808 -82.312,-94.808" style="fill:#e34e45;fill-rule:nonzero;"/><path d="M35.844,360l184.134,0l0,-9.588l-183.593,0c-0.355,3.211 -0.541,6.418 -0.541,9.588Z" style="fill:#aa3730;fill-rule:nonzero;"/><path d="M219.978,266.62c0,-11.21 -9.105,-20.301 -20.331,-20.301c-11.222,0 -20.327,9.091 -20.327,20.301l0,1.966l40.658,0l0,-1.966" style="fill:#f1d2ac;fill-rule:nonzero;"/><rect x="179.32" y="267.426" width="40.657" height="10.122" style="fill:#aa3730;"/><rect x="179.32" y="277.548" width="40.657" height="72.865" style="fill:#e34e45;"/><path d="M186.745,206.319c0,40.129 -29.873,82.571 -66.729,82.571c-36.86,0 -66.737,-42.442 -66.737,-82.571c0,-40.136 5.187,-72.664 66.737,-72.664c66.729,0 66.729,32.528 66.729,72.664" style="fill:#f1d2ac;fill-rule:nonzero;"/><path d="M53.082,213.158c1.737,0 4.073,-2.34 6.219,-7.764c3.699,-9.36 18.906,-17.907 27.844,-25.029c6.222,-4.962 10.19,-3.571 14.233,-0.762c23.495,16.322 54.574,13.72 70.068,16.577c11.444,2.109 9.128,14.264 14.564,13.509c5.443,-0.755 6.028,-15.254 4.094,-26.3c-4.162,-13.656 -6.005,-27.341 -18.934,-37.137c-14.434,-10.937 -33.559,-17.362 -51.195,-17.362c-17.555,0 -36.798,5.789 -50.644,16.784c-12.281,9.748 -16.9,27.794 -18.399,38.49c-1.495,10.69 -8.16,27.338 2.15,28.994" style="fill:#775b35;fill-rule:nonzero;"/><path d="M116.981,229.678l0.001,0c7.966,0.001 16.651,1.853 25.115,5.359c1.829,0.569 3.816,1.49 4.564,1.836l0.084,0.039c0.763,0.349 1.496,0.821 2.378,1.529c3.083,2.026 5.816,5.436 8.123,10.134c1.905,3.88 3.537,8.668 4.85,14.231c2.311,9.785 3.019,19.266 3.216,22.888l0.027,0.55c0.025,0.49 0.034,0.78 0.034,0.78l-0.008,-0.009l0.022,0.627c0,5.049 -1.2,9.947 -3.566,14.558c-2.285,4.454 -5.557,8.454 -9.724,11.889c-4.167,3.435 -9.02,6.132 -14.423,8.015c-5.594,1.951 -11.537,2.94 -17.663,2.94c-6.125,0 -12.067,-0.989 -17.662,-2.94c-5.403,-1.883 -10.256,-4.58 -14.423,-8.015c-4.168,-3.435 -7.44,-7.435 -9.726,-11.889c-2.366,-4.611 -3.566,-9.509 -3.566,-14.558c0,-1.27 0.084,-2.425 0.249,-3.435c-0.003,-0.056 -0.027,-7.332 1.605,-16.351c0.954,-5.266 2.277,-10.064 3.933,-14.261c2.07,-5.245 4.669,-9.561 7.726,-12.826c1.082,-1.288 2.19,-2.292 3.387,-3.069l0.213,-0.167c7.087,-5.212 15.577,-7.855 25.234,-7.855Zm11.967,18.054c-0.149,0 -0.304,-0.011 -0.461,-0.031c-1.524,-0.196 -2.744,-1.001 -3.625,-2.395c-0.146,-0.318 -0.323,-0.638 -0.544,-0.979l-0.168,-0.293l-0.014,-0.008c-1.096,-1.552 -2.561,-2.406 -4.125,-2.406c-2.015,0 -3.906,1.498 -4.935,3.91c-0.536,1.649 -1.243,2.45 -2.161,2.45c-0.385,0 -0.742,-0.144 -1.003,-0.249l-0.085,-0.034c-0.085,-0.025 -0.379,-0.19 -0.824,-0.439c-1.907,-1.068 -6.97,-3.904 -10.45,-3.904c-0.066,0 -0.131,0.001 -0.196,0.003c-4.278,0.133 -5.437,1.244 -7.541,3.261l-0.565,0.469l-0.073,0.184c-3.119,3.395 -4.907,8.442 -4.907,13.85l0,4.343c0,9.793 5.87,17.76 13.086,17.76c6.64,0 12.224,-6.748 12.989,-15.696l0.035,-0.129c0.049,-0.443 0.12,-0.857 0.218,-1.266l0.004,-0.077l0.027,-0.038c0.857,-3.408 3.354,-5.698 6.215,-5.698c3.337,0 6.123,3.11 6.479,7.235l0.01,0.028c0.785,8.917 6.369,15.641 12.987,15.641c7.211,0 13.078,-7.967 13.078,-17.76l0,-3.667c0,-9.795 -5.867,-17.763 -13.078,-17.763c-4.183,0 -6.044,1.354 -7.539,2.443c-0.963,0.701 -1.724,1.255 -2.834,1.255Z" style="fill:#775b35;fill-rule:nonzero;"/><path d="M119.91,69.268l1.682,0l0.648,0.152c1.838,0.419 3.429,1.595 4.366,3.226c0.939,1.635 1.147,3.522 0.586,5.313c-0.703,2.229 -2.219,3.735 -4.506,4.475l-0.438,0.149l0.036,0.179c6.317,12.674 12.869,25.842 17.252,34.656c0.036,0.07 0.07,0.14 0.104,0.209c0.386,0.777 0.72,1.449 1.419,1.449c0.496,0 1.135,-0.324 2.012,-1.019c4.038,-3.204 8.017,-7.348 11.865,-11.356c1.61,-1.676 3.13,-3.259 4.64,-4.762l0.14,-0.176l-0.498,-0.402c-1.974,-1.589 -2.701,-4.259 -1.809,-6.644c0.882,-2.344 3.061,-3.859 5.552,-3.859c1.036,0 2.058,0.273 2.957,0.787c2.214,1.269 3.343,3.705 2.875,6.206c-0.596,3.169 -3.303,4.828 -5.668,4.828c-0.044,0 -0.089,-0.001 -0.133,-0.002l-0.439,0.046c0.916,7.61 1.826,15.202 2.734,22.783c0.135,1.148 0.666,2.373 1.754,2.373c0.427,0 0.916,-0.185 1.455,-0.551c5.135,-3.505 14.901,-11.773 15.139,-12.004l-0.316,-0.47c-1.415,-2.137 -0.938,-5.034 1.087,-6.594c0.888,-0.68 1.887,-1.011 3.056,-1.011c0.097,0 0.194,0.002 0.293,0.007c2.033,0.105 3.862,1.615 4.349,3.592l0.088,0.125l0,2.312l-0.083,0.127c-0.143,0.762 -0.515,1.446 -1.136,2.088c-0.982,1.011 -2.172,1.524 -3.539,1.524c-0.198,0 -0.403,-0.011 -0.611,-0.032l-0.54,0.017l-0.086,0.558c-0.076,0.607 -0.149,1.216 -0.221,1.826c-0.048,0.403 -0.095,0.8 -0.143,1.195c-0.091,0.77 -0.186,1.544 -0.282,2.317c-0.066,0.531 -0.131,1.061 -0.195,1.59c-0.079,0.639 -0.156,1.28 -0.232,1.92l-0.002,0.017c-0.074,0.623 -0.149,1.247 -0.226,1.87c-0.072,0.585 -0.145,1.172 -0.218,1.761l-0.002,0.014c-0.086,0.692 -0.172,1.385 -0.257,2.075c-0.086,0.713 -0.17,1.424 -0.254,2.135c-0.105,0.887 -0.21,1.773 -0.319,2.661c-0.126,0.999 -0.249,2.002 -0.372,3.004c-0.082,0.669 -0.164,1.334 -0.247,1.998l-0.139,0.684l-0.508,0.067c-0.475,0.044 -0.941,0.088 -1.414,0.144c-0.473,0.044 -0.944,0.092 -1.414,0.141c-0.472,0.048 -0.943,0.096 -1.416,0.14c-0.558,0.056 -1.125,0.107 -1.673,0.156c-0.33,0.029 -0.661,0.059 -0.99,0.09c-0.35,0.031 -0.698,0.063 -1.045,0.096c-0.623,0.057 -1.258,0.116 -1.888,0.168c-0.758,0.061 -1.517,0.12 -2.274,0.178l-0.92,0.071c-0.544,0.041 -1.088,0.083 -1.631,0.124c-1.115,0.085 -2.268,0.173 -3.404,0.254c-1.441,0.091 -2.854,0.173 -4.199,0.245c-1.765,0.106 -3.661,0.216 -5.562,0.306c-1.06,0.052 -2.121,0.1 -3.183,0.149l-0.037,0.001c-0.85,0.039 -1.701,0.078 -2.552,0.119c-0.324,0.012 -0.649,0.02 -0.974,0.028c-0.391,0.01 -0.789,0.02 -1.18,0.037c-0.713,0.023 -1.426,0.051 -2.139,0.079c-0.78,0.031 -1.585,0.062 -2.38,0.087c-1.059,0.033 -2.142,0.054 -3.188,0.074c-0.569,0.01 -1.133,0.021 -1.696,0.034c-2.055,0.046 -3.628,0.079 -5.1,0.105c-1.528,0.018 -3.082,0.027 -4.585,0.035l-0.67,0.003c-2.404,0 -5.011,-0.007 -8.206,-0.023c-1.351,-0.005 -2.72,-0.017 -4.044,-0.029l-0.012,0c-0.664,-0.006 -1.326,-0.012 -1.988,-0.017c-0.717,-0.005 -1.479,-0.018 -2.474,-0.044c-0.781,-0.015 -1.561,-0.032 -2.341,-0.049l-0.033,0c-0.769,-0.017 -1.537,-0.033 -2.308,-0.048c-0.251,-0.005 -0.502,-0.009 -0.754,-0.012l-0.019,-0.001c-0.504,-0.007 -1.025,-0.015 -1.534,-0.028c-0.836,-0.025 -1.684,-0.056 -2.505,-0.086l-0.01,-0.001c-0.756,-0.028 -1.511,-0.056 -2.267,-0.079c-0.945,-0.037 -1.893,-0.072 -2.841,-0.107c-0.967,-0.035 -1.925,-0.07 -2.879,-0.108c-0.536,-0.022 -1.071,-0.043 -1.605,-0.064l-0.038,-0.002c-1.111,-0.044 -2.26,-0.09 -3.4,-0.141c-1.233,-0.053 -2.463,-0.115 -3.617,-0.174c-0.829,-0.043 -1.657,-0.09 -2.483,-0.137l-0.013,-0.003l0,0.002c-0.676,-0.039 -1.35,-0.077 -2.024,-0.113l-0.382,-0.022c-1.285,-0.074 -2.614,-0.151 -3.923,-0.231c-0.567,-0.032 -1.182,-0.073 -1.935,-0.128c-0.728,-0.051 -1.455,-0.103 -2.182,-0.156l-0.043,-0.003c-0.499,-0.036 -0.997,-0.072 -1.497,-0.108c-0.589,-0.044 -1.18,-0.085 -1.772,-0.126c-0.585,-0.041 -1.164,-0.081 -1.742,-0.125c-1.058,-0.087 -2.114,-0.176 -3.168,-0.265l-1.284,-0.108c-0.745,-0.064 -1.491,-0.129 -2.238,-0.195l-0.033,-0.003c-0.569,-0.05 -1.139,-0.1 -1.71,-0.149l-0.439,-0.082c-0.107,-1.117 -0.186,-2.252 -0.263,-3.35c-0.043,-0.612 -0.086,-1.223 -0.134,-1.833c-0.073,-0.953 -0.14,-1.922 -0.204,-2.858c-0.052,-0.757 -0.104,-1.514 -0.16,-2.271c-0.066,-0.9 -0.133,-1.803 -0.201,-2.704c-0.062,-0.827 -0.123,-1.653 -0.184,-2.476c-0.041,-0.57 -0.08,-1.141 -0.119,-1.711c-0.078,-1.121 -0.158,-2.281 -0.249,-3.422c-0.047,-0.617 -0.09,-1.235 -0.133,-1.851c-0.076,-1.086 -0.154,-2.203 -0.254,-3.285l-0.09,-0.059l-0.308,-0.021c-0.957,-0.008 -1.852,-0.299 -2.661,-0.865c-1.031,-0.717 -1.697,-1.705 -1.979,-2.935l-0.225,-0.513l0,-1.159l0.215,-0.456c0.484,-2.233 2.493,-3.854 4.776,-3.854c0.358,0 0.721,0.039 1.079,0.116c2.589,0.552 4.235,3.06 3.749,5.709c-0.216,1.161 -0.806,2.138 -1.753,2.905l-0.331,0.293c1.008,0.91 2.016,1.819 3.023,2.727l0.024,0.022c2.768,2.497 5.622,5.072 8.417,7.604c0.101,0.091 0.21,0.192 0.325,0.298c0.911,0.841 2.155,1.989 3.007,1.989c0.405,0 0.68,-0.269 0.818,-0.798c0.238,-0.924 0.365,-1.891 0.489,-2.826c0.061,-0.465 0.124,-0.946 0.201,-1.418c0.093,-0.572 0.187,-1.142 0.281,-1.712l0.005,-0.033c0.131,-0.799 0.262,-1.596 0.392,-2.397c0.129,-0.778 0.256,-1.556 0.382,-2.334l0.004,-0.026c0.1,-0.612 0.199,-1.223 0.3,-1.834l0.159,-0.967l0.003,-0.019c0.173,-1.054 0.352,-2.144 0.522,-3.215c0.21,-1.265 0.454,-2.737 0.684,-4.192c0.108,-0.681 0.219,-1.359 0.33,-2.038c0.094,-0.581 0.189,-1.162 0.283,-1.746l-0.006,-0.268l-0.345,-0.014c-1.554,-0.097 -2.868,-0.702 -3.906,-1.799c-1.47,-1.543 -1.974,-3.387 -1.498,-5.479c0.591,-2.628 2.999,-4.536 5.726,-4.536c0.395,-0.001 0.798,0.038 1.198,0.114c1.511,0.286 2.882,1.198 3.759,2.503c0.888,1.32 1.2,2.919 0.879,4.502c-0.29,1.371 -0.997,2.521 -2.102,3.418l-0.377,0.369l0.289,0.307c1.013,0.989 1.996,1.955 2.92,2.87c0.829,0.818 1.659,1.635 2.489,2.452l0.036,0.035c0.818,0.806 1.636,1.611 2.454,2.417c0.91,0.905 1.823,1.807 2.735,2.708c0.71,0.702 1.415,1.398 2.118,2.095c0.577,0.571 1.152,1.142 1.727,1.712l0.01,0.01c0.766,0.76 1.531,1.519 2.3,2.277c0.203,0.203 0.603,0.329 1.045,0.329c0.914,0 1.722,-0.503 2.164,-1.345c4.706,-8.918 18.193,-34.706 18.344,-35.127l-0.441,-0.126c-1.859,-0.487 -3.375,-1.685 -4.269,-3.374c-0.891,-1.684 -1.03,-3.604 -0.39,-5.407c0.963,-2.719 3.433,-4.175 5.32,-4.377l0.188,-0.083Zm1.023,68.507l0,-0.002c0.557,0 1.11,-0.487 1.644,-1.448c0.552,-0.99 1.241,-2.226 1.936,-3.472l0.094,-0.168c1.056,-1.893 2.113,-3.787 2.712,-4.866l0.006,-0.014l0.201,-0.35l0.27,-0.483l0.036,-0.069l0,-0.013c0.329,-0.66 0.615,-1.383 0.849,-2.15c0.439,-1.454 0.661,-3.004 0.661,-4.608c0,-2.292 -0.468,-4.513 -1.353,-6.422l-0.118,-0.268l-0.069,-0.119c-0.155,-0.314 -0.326,-0.622 -0.508,-0.915c-0.779,-1.405 -1.547,-2.768 -2.225,-3.969c-1.22,-2.166 -2.184,-3.876 -2.693,-4.9c-0.411,-0.822 -0.87,-1.239 -1.366,-1.239c-0.864,0 -1.545,1.276 -1.552,1.289l-4.238,7.809l0,0l-0.008,0.008c-0.739,0.95 -1.343,2.063 -1.793,3.308l-0.484,0.891l0.007,0.676c-0.305,1.239 -0.46,2.534 -0.46,3.851c0,1.434 0.178,2.828 0.527,4.142l0.008,0.466l0.32,0.582c0.485,1.428 1.174,2.691 2.046,3.755l3.893,7.135c0.007,0.016 0.672,1.561 1.657,1.561l0,0.002Zm-31.761,-0.448c2.586,0 4.69,-3.332 4.69,-7.428c0,-4.093 -2.104,-7.424 -4.69,-7.424c-2.586,0 -4.69,3.331 -4.69,7.424c0,4.096 2.104,7.428 4.69,7.428Zm61.777,0c2.586,0 4.69,-3.332 4.69,-7.428c0,-4.093 -2.104,-7.424 -4.69,-7.424c-2.586,0 -4.69,3.331 -4.69,7.424c0,4.096 2.104,7.428 4.69,7.428Zm-85.804,0c2.05,0 3.717,-1.667 3.717,-3.717c0,-2.046 -1.667,-3.711 -3.717,-3.711c-2.047,0 -3.713,1.665 -3.713,3.711c0,2.05 1.666,3.717 3.713,3.717Zm109.827,0c2.048,0 3.715,-1.667 3.715,-3.717c0,-2.046 -1.667,-3.711 -3.715,-3.711c-2.047,0 -3.713,1.665 -3.713,3.711c0,2.05 1.666,3.717 3.713,3.717Z" style="fill:#e6a52e;fill-rule:nonzero;"/><path d="M183.353,146.15l0.337,0c-0.054,1.429 -0.139,2.84 -0.207,4.255c-0.062,1.412 -0.137,2.823 -0.215,4.245c-0.085,1.404 -0.129,2.816 -0.232,4.244l-0.282,0.075c-1.135,0.109 -2.265,0.221 -3.396,0.34c-0.896,0.092 -1.781,0.187 -2.667,0.269c-0.93,0.088 -1.853,0.17 -2.776,0.251c-1.049,0.092 -2.098,0.188 -3.14,0.269c-1.066,0.089 -2.139,0.17 -3.202,0.245c-1.287,0.095 -2.585,0.187 -3.879,0.282c-0.61,0.045 -1.219,0.082 -1.839,0.119c-1.445,0.082 -2.906,0.164 -4.346,0.245c-1.775,0.099 -3.539,0.187 -5.304,0.269c-1.382,0.068 -2.769,0.119 -4.155,0.17c-1.451,0.058 -2.902,0.119 -4.353,0.163c-0.725,0.024 -1.437,0.031 -2.159,0.044c-1.311,0.031 -2.629,0.068 -3.941,0.099c-0.722,0.024 -1.437,0.038 -2.149,0.044c-2.599,0.031 -5.187,0.051 -7.789,0.065c-2.136,0.024 -4.271,0.048 -6.417,0.041c-2.626,-0.01 -5.256,-0.041 -7.882,-0.075c-1.825,-0.024 -3.651,-0.061 -5.466,-0.106c-1.652,-0.037 -3.297,-0.081 -4.942,-0.132c-2.064,-0.068 -4.132,-0.136 -6.196,-0.211c-1.669,-0.065 -3.327,-0.133 -4.986,-0.207c-2.159,-0.103 -4.312,-0.208 -6.465,-0.317c-1.709,-0.092 -3.423,-0.187 -5.143,-0.285c-1.342,-0.082 -2.687,-0.184 -4.036,-0.276c-1.243,-0.078 -2.486,-0.153 -3.722,-0.245c-1.206,-0.081 -2.412,-0.177 -3.618,-0.275c-1.049,-0.082 -2.101,-0.164 -3.14,-0.245c-0.96,-0.075 -1.921,-0.157 -2.881,-0.245c-1.036,-0.089 -2.064,-0.194 -3.09,-0.289l-0.32,-0.044l-0.068,-0.602c-0.058,-1.102 -0.112,-2.201 -0.163,-3.31c-0.068,-1.336 -0.143,-2.683 -0.208,-4.027c-0.075,-1.363 -0.15,-2.731 -0.218,-4.091l-0.044,-0.789l0.327,-0.082c1.399,0.143 2.793,0.289 4.186,0.425c1.294,0.126 2.581,0.239 3.876,0.358c1.379,0.125 2.758,0.251 4.134,0.37c1.08,0.089 2.167,0.164 3.246,0.255c1.152,0.089 2.306,0.177 3.461,0.259c0.609,0.051 1.219,0.098 1.832,0.132c1.407,0.092 2.8,0.174 4.2,0.256c1.59,0.095 3.184,0.193 4.778,0.282c1.431,0.081 2.868,0.146 4.305,0.207c1.697,0.082 3.393,0.15 5.089,0.218c1.492,0.051 2.98,0.095 4.469,0.133c1.331,0.037 2.656,0.074 3.991,0.102c1.84,0.047 3.675,0.061 5.522,0.112c4.363,0.112 8.726,0.068 13.089,0.082c1.11,0 2.21,-0.007 3.314,-0.021c2.21,-0.03 4.421,-0.061 6.624,-0.105c1.734,-0.031 3.468,-0.082 5.205,-0.133c2.084,-0.061 4.169,-0.136 6.246,-0.211c1.615,-0.058 3.226,-0.132 4.84,-0.207c1.955,-0.089 3.917,-0.177 5.872,-0.289c1.996,-0.119 3.992,-0.252 5.981,-0.388c1.733,-0.112 3.46,-0.221 5.194,-0.347c1.533,-0.112 3.076,-0.255 4.608,-0.381c0.961,-0.082 1.921,-0.156 2.882,-0.245c1.274,-0.112 2.547,-0.238 3.818,-0.371c1.205,-0.119 2.404,-0.255 3.61,-0.374" style="fill:#d28b2f;fill-rule:nonzero;"/><path d="M174.971,129.9c2.054,0 3.716,1.66 3.716,3.711c0,2.05 -1.662,3.717 -3.716,3.717c-2.054,0 -3.713,-1.667 -3.713,-3.717c0,-2.051 1.659,-3.711 3.713,-3.711" style="fill:#13a2a4;fill-rule:nonzero;"/><path d="M150.949,122.475c2.588,0 4.69,3.323 4.69,7.425c0,4.095 -2.102,7.428 -4.69,7.428c-2.592,0 -4.69,-3.333 -4.69,-7.428c0,-4.102 2.098,-7.425 4.69,-7.425" style="fill:#13a2a4;fill-rule:nonzero;"/><path d="M127.989,113.711c1.175,2.904 -0.099,12.733 -0.157,13.179l-0.037,0.082l-0.269,0.483l-0.201,0.35l-0.007,0.014c-1.539,2.55 -3.842,4.162 -6.41,4.162c-2.115,0 -4.05,-1.091 -5.524,-2.904l-2.047,-3.755c-0.126,-0.343 -0.232,-0.69 -0.327,-1.047l-0.068,-7.993c0.126,-0.544 0.292,-1.064 0.476,-1.568l1.795,-3.309l0.007,-0.007c1.495,-1.932 3.498,-3.108 5.688,-3.108c2.551,0 4.847,1.598 6.386,4.118l0.508,0.915l0.187,0.388" style="fill:#13a2a4;fill-rule:nonzero;"/><path d="M89.171,122.475c2.589,0 4.69,3.323 4.69,7.425c0,4.095 -2.101,7.428 -4.69,7.428c-2.592,0 -4.69,-3.333 -4.69,-7.428c0,-4.102 2.098,-7.425 4.69,-7.425" style="fill:#13a2a4;fill-rule:nonzero;"/><path d="M65.145,129.9c2.054,0 3.716,1.66 3.716,3.711c0,2.05 -1.662,3.717 -3.716,3.717c-2.053,0 -3.712,-1.667 -3.712,-3.717c0,-2.051 1.659,-3.711 3.712,-3.711" style="fill:#13a2a4;fill-rule:nonzero;"/><path d="M118.677,83.788c-1.986,-1.969 -4.819,-4.789 -5.913,-5.925c-1.761,-1.826 -2.949,-1.948 0,-4.9c2.946,-2.956 4.111,-4.116 5.395,-5.367c2.282,-2.221 2.79,-2.432 4.823,-0.405c1.274,1.268 4.19,4.183 6.189,6.18c2.592,2.159 1.243,2.857 0,4.105c-0.828,0.819 -4.213,4.207 -6.427,6.418c-1.799,1.564 -2.865,1.091 -4.067,-0.106" style="fill:#13a2a4;fill-rule:nonzero;"/><path d="M208.305,234.412l-17.196,0l0,-84.643c0,-10.295 4.621,-55.689 9.151,-55.689c4.534,0 8.045,45.874 8.045,55.267l0,85.065" style="fill:#ccc;fill-rule:nonzero;"/><path d="M209.02,271.62c0,5.162 -4.199,9.356 -9.373,9.356c-5.177,0 -9.37,-4.194 -9.37,-9.356l0,-22.567c0,-5.166 4.193,-9.356 9.37,-9.356c5.174,0 9.373,4.19 9.373,9.356l0,22.567" style="fill:#775b35;fill-rule:nonzero;"/><path d="M230.015,241c0,4.989 -4.05,9.03 -9.05,9.03l-42.636,0c-4.996,0 -9.046,-4.041 -9.046,-9.03c0,-4.993 4.05,-9.034 9.046,-9.034l42.636,0c5,0 9.05,4.041 9.05,9.034" style="fill:#efa000;fill-rule:nonzero;"/><path d="M210.179,276.044c0,5.809 -4.711,10.513 -10.532,10.513c-5.814,0 -10.527,-4.704 -10.527,-10.513c0,-5.805 4.713,-10.519 10.527,-10.519c5.821,0 10.532,4.714 10.532,10.519" style="fill:#efa000;fill-rule:nonzero;"/></g><path d="M141.112,32.786l-20.183,-20.182l-20.182,20.182l20.182,20.183l20.183,-20.183Z" style="fill:#fff;"/></g></svg>