<?xml version="1.0" encoding="UTF-8" standalone="no"?><!DOCTYPE svg PUBLIC "-//W3C//DTD SVG 1.1//EN" "http://www.w3.org/Graphics/SVG/1.1/DTD/svg11.dtd"><svg width="100%" height="100%" viewBox="0 0 243 341" version="1.1" xmlns="http://www.w3.org/2000/svg" xmlns:xlink="http://www.w3.org/1999/xlink" xml:space="preserve" xmlns:serif="http://www.serif.com/" style="fill-rule:evenodd;clip-rule:evenodd;stroke-linejoin:round;stroke-miterlimit:2;"><rect id="cq" x="0.492" y="0.222" width="242" height="340" style="fill:none;"/><path d="M242.492,20.222c0,-11.038 -8.962,-20 -20,-20l-202,0c-11.039,0 -20,8.962 -20,20l0,300c0,11.039 8.961,20 20,20l202,0c11.038,0 20,-8.961 20,-20l0,-300Z" style="fill:#c42532;"/><g id="Layer1"></g><g><path d="M53.145,253.801c0.922,-1.606 7.253,-10.115 7.229,-13.669c-0.031,-5.258 -4.014,-9.475 -3.611,-16.064c0.517,-8.537 6.993,-13.893 6.024,-17.572c-0.656,-2.488 -1.639,-7.31 -2.413,-9.762c-4.382,-13.901 3.615,-43.103 8.436,-57.018c3.55,-10.238 8.835,-19.606 19.737,-19.606l65.669,0c10.896,0 16.187,9.368 19.728,19.606c4.827,13.915 12.827,43.117 8.437,57.018c-0.771,2.452 -1.749,7.274 -2.405,9.762c-0.972,3.679 5.502,9.035 6.024,17.572c0.401,6.589 -3.586,10.806 -3.619,16.064c-0.019,3.554 6.309,12.063 7.234,13.669c8.034,13.967 -4.821,28.283 -4.821,28.283c0,10.828 -19.687,12.707 -30.584,12.707l-65.665,0c-10.9,0 -30.579,-1.879 -30.579,-12.707c0,0 -12.857,-14.316 -4.821,-28.283" style="fill:#775b35;fill-rule:nonzero;"/><path d="M120.444,217.04c-34.675,0 -64.112,38.496 -68.216,75.141l134.477,0c-3.854,-36.645 -31.583,-75.141 -66.261,-75.141" style="fill:#e34e45;fill-rule:nonzero;"/><path d="M152.906,233.436c0,11.281 -14.383,43.864 -32.127,43.864c-17.744,0 -32.127,-32.583 -32.127,-43.864c0,-11.283 14.383,-20.425 32.127,-20.425c17.744,0 32.127,9.142 32.127,20.425" style="fill:#fff;fill-rule:nonzero;"/><path d="M145.724,227.761c0,10.852 -10.57,40.7 -24.344,40.7c-13.779,0 -25.549,-29.848 -25.549,-40.7c0,-10.852 11.169,-19.651 24.948,-19.651c13.777,0 24.945,8.799 24.945,19.651" style="fill:#f1d2ac;fill-rule:nonzero;"/><path d="M200.161,225.876c0,-8.989 -7.339,-16.279 -16.388,-16.279c-9.052,0 -16.385,7.29 -16.385,16.279l0,1.577l32.773,0l0,-1.577" style="fill:#f1d2ac;fill-rule:nonzero;"/><path d="M145.985,226.978l1.633,-5.256l-3.283,4.427c-0.566,0.764 -1.719,1.315 -2.562,1.715c-0.447,0.216 -0.804,0.382 -1.037,0.562c-1.815,1.307 -1.197,3.254 -0.824,4.419c0.085,0.283 0.22,0.709 0.222,0.872l-0.057,0.129l-0.821,0.837c-0.676,0.684 -1.895,1.058 -2.787,1.331c-0.467,0.139 -0.834,0.253 -1.09,0.393c-1.782,0.921 -1.65,2.661 -1.598,3.321c0.022,0.273 0.061,0.543 0.094,0.808c0.041,0.319 0.107,0.793 0.074,0.962l-0.061,0.096l-0.969,0.654c-0.455,0.303 -1.142,0.502 -2.026,0.59c-0.359,0.03 -0.697,0.041 -0.991,0.049c-0.423,0.013 -0.76,0.024 -1.01,0.076c-1.87,0.357 -2.238,1.958 -2.394,2.626l-0.157,0.715c-0.06,0.303 -0.151,0.75 -0.233,0.919l-0.096,0.06l-1.153,0.224c-0.256,0.052 -0.514,0.024 -0.926,-0.068c-0.282,-0.055 -0.59,-0.169 -0.971,-0.366c-0.344,-0.161 -0.643,-0.365 -0.912,-0.548l-0.642,-0.387c-0.75,-0.333 -1.491,-0.325 -1.9,-0.145c-0.45,0.137 -0.884,0.39 -1.392,0.802l-0.357,0.286c-0.299,0.243 -0.804,0.652 -0.914,0.696l-0.168,-0.019l-0.961,-0.592c-0.433,-0.267 -0.862,-0.821 -1.238,-1.596c-0.165,-0.351 -0.294,-0.681 -0.406,-0.965c-0.137,-0.344 -0.244,-0.619 -0.387,-0.854c-0.398,-0.641 -0.945,-1.066 -1.639,-1.271c-0.489,-0.128 -1.063,-0.136 -1.708,-0.062l-0.725,0.114c-0.357,0.06 -0.694,0.117 -0.919,0.117l-0.08,0.003l-0.143,-0.09l-0.656,-0.922c-0.557,-0.785 -0.692,-2.111 -0.777,-2.983c-0.047,-0.456 -0.085,-0.821 -0.165,-1.086c-0.593,-2.114 -2.63,-2.228 -3.849,-2.296c-0.321,-0.019 -0.801,-0.047 -0.884,-0.071l-0.123,-0.118l-0.492,-1.069c-0.398,-0.867 -0.327,-2.135 -0.272,-3.06c0.025,-0.493 0.05,-0.883 0.006,-1.175c-0.275,-2.204 -2.282,-2.61 -3.487,-2.856c-0.307,-0.06 -0.774,-0.152 -0.848,-0.188l-3.413,-4.32l1.777,5.136c0.011,0.141 -0.121,0.575 -0.209,0.859c-0.352,1.159 -1.008,3.319 1.005,4.688c0.315,0.215 0.785,0.398 1.375,0.625c0.851,0.33 2.018,0.78 2.537,1.32l0.033,0.032l0.618,1.176c0.03,0.133 -0.039,0.575 -0.08,0.87c-0.181,1.203 -0.516,3.442 1.699,4.511c0.366,0.177 0.895,0.292 1.56,0.433c0.881,0.186 2.086,0.442 2.679,0.865l0.075,0.049l0.82,1.023c0.053,0.114 0.08,0.513 0.105,0.804c0.027,0.355 0.06,0.753 0.137,1.165c0.373,2.108 1.702,2.771 2.723,2.954c0.401,0.079 1.038,0.041 1.851,-0.019l0.549,-0.044c0.662,-0.06 1.469,-0.095 2.018,-0.03l1.54,0.685l0.409,0.57c0.214,0.335 0.481,0.747 0.821,1.123c0.763,0.87 1.732,1.356 2.737,1.356c0.478,0 0.961,-0.109 1.433,-0.319c0.604,-0.273 1.42,-0.985 1.983,-1.525l0.966,-0.886c0.308,-0.268 0.585,-0.467 0.837,-0.614l0.085,-0.052l1.285,-0.303c0.151,0 0.506,0.104 0.816,0.197c0.357,0.106 0.755,0.224 1.21,0.311c0.723,0.117 1.338,0.09 1.95,-0.09c0.736,-0.237 1.359,-0.748 1.809,-1.489c0.22,-0.388 0.373,-0.952 0.568,-1.667c0.236,-0.856 0.53,-1.906 0.931,-2.501l1.139,-0.922c0.121,-0.049 0.527,-0.065 0.827,-0.076c0.357,-0.014 0.741,-0.03 1.12,-0.082c2.089,-0.275 2.817,-1.5 3.064,-2.476c0.096,-0.382 0.101,-0.892 0.112,-1.536c0.011,-0.902 0.028,-2.138 0.344,-2.809l0.046,-0.093l0.851,-0.943c0.118,-0.074 0.563,-0.172 0.86,-0.235c1.188,-0.256 3.404,-0.731 3.637,-3.139c0.033,-0.379 -0.03,-0.87 -0.115,-1.489c-0.124,-0.903 -0.285,-2.136 -0.063,-2.853" style="fill:#e6a52e;fill-rule:nonzero;"/><path d="M162.136,180.272c0,29.093 -18.595,59.86 -41.536,59.86c-22.938,0 -41.535,-30.767 -41.535,-59.86c0,-29.095 3.231,-52.679 41.535,-52.679c41.536,0 41.536,23.584 41.536,52.679" style="fill:#f1d2ac;fill-rule:nonzero;"/><path d="M68.294,151.275c0,10.828 3.212,16.781 16.3,20.444c13.211,3.698 33.936,5.16 46.077,0.72c12.135,-4.44 23.094,-18.202 27.117,-24.129c3.365,-4.953 2.613,-16.975 2.613,-16.975c0,-10.827 -13.656,-20.801 -24.558,-20.801l-23.707,0c-22.057,0 -32.742,10.178 -39.422,20.351c-3.906,5.946 -4.42,20.39 -4.42,20.39" style="fill:#775b35;fill-rule:nonzero;"/><path d="M120.076,77.74l0.002,0.001c0.636,0.622 1.106,0.876 1.622,0.876c0.496,0 1.039,-0.26 1.659,-0.795c4.116,8.217 8.621,17.224 13.393,26.774c0.028,0.055 0.055,0.109 0.081,0.163c0.314,0.626 0.584,1.166 1.151,1.166c0.395,0 0.925,-0.267 1.62,-0.815c3.247,-2.562 6.445,-5.875 9.537,-9.079c1.307,-1.355 2.542,-2.634 3.768,-3.847l0.112,-0.145l-0.4,-0.319c-1.591,-1.272 -2.179,-3.414 -1.461,-5.329c0.711,-1.879 2.468,-3.093 4.476,-3.093c0.835,0 1.66,0.218 2.385,0.631c1.785,1.015 2.694,2.969 2.317,4.977c-0.48,2.54 -2.659,3.868 -4.563,3.868c-0.038,0 -0.075,0 -0.113,-0.001l-0.354,0.038c0.388,3.204 0.773,6.401 1.158,9.596c0.349,2.894 0.697,5.785 1.047,8.676c0.037,0.317 0.28,1.9 1.415,1.9c0.342,0 0.735,-0.149 1.168,-0.442c4.183,-2.836 12.021,-9.441 12.209,-9.625l-0.257,-0.379c-1.142,-1.711 -0.759,-4.033 0.872,-5.285c0.718,-0.546 1.523,-0.812 2.46,-0.812c0.08,0 0.163,0.002 0.245,0.006c1.635,0.082 3.108,1.294 3.502,2.88l0.072,0.102l0,1.852l-0.066,0.104c-0.115,0.608 -0.416,1.156 -0.917,1.674c-0.792,0.811 -1.753,1.222 -2.856,1.222c-0.159,0 -0.322,-0.009 -0.487,-0.025l-0.44,0.014l-0.062,0.445c-0.098,0.757 -0.19,1.522 -0.279,2.262l-0.019,0.159c-0.071,0.596 -0.145,1.194 -0.219,1.792c-0.056,0.451 -0.111,0.899 -0.165,1.345l-0.111,0.916c-0.085,0.71 -0.171,1.423 -0.26,2.136c-0.108,0.841 -0.213,1.697 -0.315,2.524l-0.069,0.563c-0.078,0.633 -0.153,1.267 -0.228,1.9l-0.003,0.026c-0.076,0.64 -0.153,1.28 -0.231,1.919c-0.078,0.63 -0.157,1.261 -0.235,1.892l-0.001,0.01c-0.088,0.704 -0.175,1.407 -0.263,2.11l-0.115,0.549l-0.406,0.055c-0.365,0.033 -0.753,0.069 -1.14,0.112c-0.409,0.037 -0.821,0.08 -1.22,0.121c-0.357,0.036 -0.708,0.072 -1.061,0.105c-0.439,0.044 -0.888,0.084 -1.322,0.122c-0.277,0.025 -0.552,0.049 -0.826,0.074l-0.572,0.054c-0.589,0.055 -1.194,0.112 -1.794,0.161l-2.573,0.198c-0.568,0.041 -1.137,0.085 -1.704,0.129c-0.774,0.059 -1.571,0.12 -2.354,0.175c-1.17,0.074 -2.308,0.14 -3.384,0.197c-1.446,0.087 -2.955,0.17 -4.484,0.245c-1.085,0.053 -2.194,0.103 -3.266,0.15l-0.068,0.003c-0.44,0.02 -0.881,0.04 -1.321,0.06c-0.289,0.012 -0.583,0.02 -0.867,0.027c-0.287,0.008 -0.58,0.016 -0.866,0.028c-0.482,0.016 -0.964,0.035 -1.445,0.053c-0.725,0.027 -1.467,0.056 -2.198,0.077c-0.855,0.027 -1.725,0.044 -2.567,0.061l-0.024,0.001c-0.449,0.009 -0.897,0.018 -1.346,0.028c-0.391,0.008 -0.782,0.016 -1.172,0.025l-0.054,0.001c-0.945,0.02 -1.922,0.04 -2.888,0.056c-1.28,0.018 -2.584,0.023 -3.845,0.029l-0.39,0.001c-2.12,0 -4.282,-0.005 -6.611,-0.017c-0.981,-0.004 -1.961,-0.012 -2.94,-0.02l-0.045,-0.001c-0.63,-0.005 -1.259,-0.01 -1.888,-0.014c-0.809,-0.009 -1.424,-0.021 -1.993,-0.038c-0.755,-0.013 -1.509,-0.029 -2.262,-0.045c-0.505,-0.011 -1.009,-0.022 -1.513,-0.032l-0.471,-0.008c-0.456,-0.007 -0.928,-0.014 -1.392,-0.027c-0.764,-0.021 -1.543,-0.049 -2.297,-0.076c-0.523,-0.019 -1.038,-0.038 -1.554,-0.054c-1.128,-0.044 -2.259,-0.086 -3.389,-0.127l-1.225,-0.045c-1.368,-0.055 -2.707,-0.11 -4.061,-0.17c-0.877,-0.036 -1.767,-0.08 -2.627,-0.122l-0.292,-0.014c-0.608,-0.032 -1.215,-0.066 -1.821,-0.101l-0.015,0c-0.602,-0.034 -1.203,-0.068 -1.807,-0.1l-0.189,-0.011c-1.073,-0.061 -2.183,-0.125 -3.279,-0.194c-0.455,-0.027 -0.895,-0.057 -1.361,-0.088l-0.197,-0.013c-1.004,-0.071 -1.999,-0.141 -3.001,-0.213c-0.535,-0.042 -1.078,-0.08 -1.603,-0.116l-0.009,-0.001c-0.407,-0.028 -0.815,-0.057 -1.222,-0.087c-1.089,-0.088 -2.263,-0.185 -3.588,-0.297c-1.102,-0.093 -2.194,-0.191 -3.21,-0.282l-0.354,-0.064c-0.086,-0.904 -0.15,-1.823 -0.213,-2.712c-0.034,-0.483 -0.068,-0.963 -0.105,-1.443c-0.064,-0.791 -0.119,-1.593 -0.171,-2.368c-0.039,-0.573 -0.08,-1.165 -0.123,-1.747c-0.069,-0.938 -0.14,-1.877 -0.212,-2.816l-0.101,-1.339c-0.091,-1.342 -0.186,-2.73 -0.294,-4.111c-0.039,-0.503 -0.074,-1.004 -0.109,-1.504c-0.061,-0.862 -0.123,-1.753 -0.204,-2.617l-0.068,-0.048l-0.253,-0.018c-0.773,-0.006 -1.494,-0.239 -2.143,-0.691c-0.832,-0.575 -1.369,-1.368 -1.597,-2.356l-0.181,-0.412l0,-0.927l0.177,-0.365c0.391,-1.791 2.008,-3.091 3.845,-3.091c0.288,0 0.58,0.031 0.868,0.093c2.087,0.443 3.416,2.453 3.026,4.576c-0.176,0.934 -0.653,1.719 -1.417,2.333l-0.26,0.232c2.531,2.277 5.095,4.581 7.574,6.81l1.663,1.494c0.087,0.078 0.18,0.163 0.279,0.254c0.729,0.667 1.727,1.58 2.408,1.58c0.326,0 0.547,-0.216 0.658,-0.642c0.191,-0.737 0.294,-1.51 0.393,-2.257c0.05,-0.376 0.102,-0.766 0.164,-1.147c0.09,-0.56 0.183,-1.118 0.275,-1.676c0.092,-0.552 0.183,-1.098 0.271,-1.645l0.221,-1.348l0.008,-0.044c0.108,-0.656 0.216,-1.313 0.324,-1.969l0.131,-0.797c0.139,-0.843 0.283,-1.714 0.42,-2.57c0.184,-1.104 0.374,-2.244 0.552,-3.365c0.065,-0.41 0.133,-0.82 0.2,-1.23c0.097,-0.595 0.197,-1.202 0.291,-1.804l-0.006,-0.213l-0.274,-0.014c-1.251,-0.078 -2.311,-0.562 -3.151,-1.44c-1.182,-1.241 -1.587,-2.72 -1.206,-4.394c0.476,-2.108 2.419,-3.639 4.62,-3.639c0.317,0 0.64,0.031 0.961,0.091c1.222,0.229 2.328,0.962 3.035,2.013c0.711,1.057 0.96,2.337 0.702,3.603c-0.229,1.094 -0.798,2.016 -1.692,2.741l-0.303,0.3l0.233,0.242l0.006,0.006c0.768,0.749 1.562,1.522 2.344,2.297l0.999,0.978c1.006,0.985 2.013,1.971 3.018,2.957c0.936,0.925 1.874,1.846 2.81,2.767l1.102,1.083c0.482,0.475 0.963,0.951 1.444,1.426c0.602,0.595 1.204,1.19 1.805,1.782c0.165,0.162 0.489,0.263 0.845,0.263c0.737,0 1.389,-0.402 1.744,-1.075c3.037,-5.718 11.976,-22.709 14.257,-27.133l0.001,-0.002Zm1.684,43.179l0,-0.002c0.45,0 0.898,-0.391 1.331,-1.162c1.159,-2.067 3.009,-5.376 3.813,-6.819l0.348,-0.608l0.069,-0.133c0.267,-0.529 0.496,-1.107 0.683,-1.721c0.354,-1.173 0.533,-2.418 0.533,-3.701c0,-1.839 -0.376,-3.62 -1.089,-5.152l-0.096,-0.216l-0.055,-0.095c-0.129,-0.264 -0.272,-0.507 -0.406,-0.73c-0.609,-1.088 -1.21,-2.148 -1.74,-3.083c-1.011,-1.782 -1.81,-3.19 -2.231,-4.03c-0.331,-0.66 -0.701,-0.994 -1.1,-0.994c-0.694,0 -1.239,1.023 -1.244,1.034l-3.401,6.238l-0.02,0.017c-0.606,0.78 -1.095,1.678 -1.452,2.668l-0.391,0.713l0.006,0.54c-0.248,1.002 -0.374,2.042 -0.374,3.09c0,1.14 0.144,2.256 0.426,3.319l0.009,0.382l0.264,0.477c0.393,1.137 0.944,2.14 1.638,2.981l3.143,5.736c0.006,0.012 0.539,1.249 1.336,1.249l0,0.002Zm-25.605,-0.36c2.086,0 3.784,-2.67 3.784,-5.953c0,-3.284 -1.698,-5.956 -3.784,-5.956c-2.085,0 -3.781,2.672 -3.781,5.956c0,3.283 1.696,5.953 3.781,5.953Zm49.799,0c2.085,0 3.781,-2.67 3.781,-5.953c0,-3.284 -1.696,-5.956 -3.781,-5.956c-2.084,0 -3.779,2.672 -3.779,5.956c0,3.283 1.695,5.953 3.779,5.953Zm-69.16,0c1.649,0 2.99,-1.336 2.99,-2.978c0,-1.64 -1.341,-2.975 -2.99,-2.975c-1.651,0 -2.995,1.335 -2.995,2.975c0,1.642 1.344,2.978 2.995,2.978Zm88.527,0c1.648,0 2.989,-1.336 2.989,-2.978c0,-1.64 -1.341,-2.975 -2.989,-2.975c-1.651,0 -2.995,1.335 -2.995,2.975c0,1.642 1.344,2.978 2.995,2.978Z" style="fill:#e6a52e;fill-rule:nonzero;"/><path d="M172.078,127.637l0.269,0c-0.042,1.143 -0.116,2.277 -0.168,3.409c-0.049,1.135 -0.107,2.267 -0.176,3.404c-0.065,1.126 -0.101,2.261 -0.183,3.406l-0.228,0.058c-0.915,0.09 -1.826,0.18 -2.738,0.275c-0.722,0.071 -1.435,0.147 -2.147,0.213c-0.752,0.073 -1.496,0.139 -2.24,0.204c-0.848,0.071 -1.694,0.148 -2.534,0.216c-0.856,0.071 -1.721,0.136 -2.578,0.194c-1.04,0.079 -2.084,0.15 -3.127,0.229c-0.494,0.035 -0.985,0.065 -1.482,0.095c-1.167,0.066 -2.34,0.131 -3.504,0.196c-1.43,0.077 -2.852,0.15 -4.274,0.213c-1.115,0.055 -2.232,0.098 -3.35,0.139c-1.169,0.047 -2.339,0.096 -3.508,0.131c-0.585,0.017 -1.159,0.022 -1.744,0.036c-1.054,0.024 -2.116,0.054 -3.173,0.079c-0.583,0.016 -1.159,0.027 -1.733,0.032c-2.097,0.025 -4.184,0.044 -6.279,0.055c-1.721,0.019 -3.442,0.038 -5.172,0.03c-2.117,-0.005 -4.236,-0.03 -6.353,-0.06c-1.472,-0.016 -2.94,-0.046 -4.406,-0.082c-1.332,-0.03 -2.658,-0.068 -3.984,-0.109c-1.661,-0.052 -3.333,-0.106 -4.994,-0.166c-1.343,-0.055 -2.682,-0.107 -4.019,-0.167c-1.741,-0.084 -3.476,-0.166 -5.211,-0.256c-1.378,-0.071 -2.759,-0.15 -4.146,-0.226c-1.082,-0.066 -2.166,-0.15 -3.253,-0.221c-1.002,-0.066 -2.004,-0.126 -3.001,-0.197c-0.972,-0.065 -1.944,-0.144 -2.916,-0.221c-0.848,-0.065 -1.691,-0.131 -2.531,-0.196c-0.774,-0.06 -1.548,-0.125 -2.325,-0.196c-0.832,-0.071 -1.661,-0.156 -2.49,-0.232l-0.259,-0.038l-0.052,-0.483c-0.049,-0.881 -0.09,-1.765 -0.132,-2.654c-0.054,-1.072 -0.115,-2.152 -0.17,-3.229c-0.057,-1.091 -0.121,-2.187 -0.173,-3.278l-0.035,-0.633l0.263,-0.065c1.129,0.111 2.251,0.231 3.372,0.338c1.046,0.103 2.083,0.193 3.127,0.286c1.109,0.104 2.221,0.205 3.333,0.3c0.867,0.071 1.746,0.131 2.613,0.202c0.931,0.071 1.862,0.144 2.792,0.21c0.492,0.041 0.983,0.076 1.477,0.106c1.134,0.071 2.254,0.137 3.383,0.202c1.285,0.079 2.57,0.156 3.854,0.227c1.154,0.065 2.309,0.12 3.468,0.166c1.367,0.065 2.737,0.12 4.104,0.174c1.203,0.041 2.4,0.077 3.602,0.107c1.077,0.03 2.142,0.06 3.218,0.084c1.48,0.036 2.962,0.047 4.45,0.088c3.517,0.09 7.034,0.054 10.551,0.068c0.895,0 1.782,-0.008 2.669,-0.019c1.784,-0.025 3.566,-0.049 5.342,-0.085c1.398,-0.022 2.795,-0.065 4.195,-0.106c1.681,-0.047 3.361,-0.107 5.036,-0.167c1.304,-0.046 2.597,-0.106 3.901,-0.166c1.576,-0.074 3.154,-0.144 4.733,-0.232c1.609,-0.095 3.215,-0.204 4.818,-0.311c1.4,-0.09 2.792,-0.177 4.19,-0.281c1.235,-0.09 2.479,-0.201 3.714,-0.302c0.775,-0.066 1.549,-0.126 2.323,-0.199c1.027,-0.088 2.054,-0.191 3.078,-0.298c0.974,-0.095 1.938,-0.202 2.913,-0.297" style="fill:#d28b2f;fill-rule:nonzero;"/><path d="M165.321,114.606c1.653,0 2.99,1.328 2.99,2.975c0,1.645 -1.337,2.979 -2.99,2.979c-1.658,0 -2.995,-1.334 -2.995,-2.979c0,-1.647 1.337,-2.975 2.995,-2.975" style="fill:#13a2a4;fill-rule:nonzero;"/><path d="M145.955,108.649c2.089,0 3.78,2.665 3.78,5.957c0,3.284 -1.691,5.954 -3.78,5.954c-2.09,0 -3.781,-2.67 -3.781,-5.954c0,-3.292 1.691,-5.957 3.781,-5.957" style="fill:#e34e45;fill-rule:nonzero;"/><path d="M127.448,101.621c0.952,2.343 -0.091,10.296 -0.127,10.574l-0.068,0.133c-0.072,0.12 -0.19,0.328 -0.349,0.609c-1.235,2.042 -3.089,3.338 -5.164,3.338c-1.705,0 -3.273,-0.884 -4.459,-2.343l-1.639,-2.981c-0.101,-0.281 -0.189,-0.567 -0.272,-0.859l-0.052,-6.409c0.102,-0.429 0.228,-0.851 0.385,-1.252l1.452,-2.67l0.019,-0.017c1.205,-1.538 2.814,-2.468 4.566,-2.468c2.059,0 3.904,1.279 5.15,3.303l0.407,0.731l0.151,0.311" style="fill:#13a2a4;fill-rule:nonzero;"/><path d="M96.155,108.649c2.089,0 3.783,2.665 3.783,5.957c0,3.284 -1.694,5.954 -3.783,5.954c-2.086,0 -3.78,-2.67 -3.78,-5.954c0,-3.292 1.694,-5.957 3.78,-5.957" style="fill:#e34e45;fill-rule:nonzero;"/><path d="M76.794,114.606c1.653,0 2.99,1.328 2.99,2.975c0,1.645 -1.337,2.979 -2.99,2.979c-1.658,0 -2.995,-1.334 -2.995,-2.979c0,-1.647 1.337,-2.975 2.995,-2.975" style="fill:#13a2a4;fill-rule:nonzero;"/><path d="M194.623,210.074c0.283,0 0.585,-0.014 0.898,-0.038c3.742,-0.333 9.966,-2.681 9.636,-14.72c0,0 0.02,-1.884 -1.359,-0.668c-1.378,1.219 -4.326,3.104 -7.761,4.399c-1.202,0.453 -2.183,0.903 -3.014,1.465c1.501,-5.054 2.866,-8.594 3.267,-9.287c1.221,-2.127 0,-5.138 0,-5.138l-2.166,0.529c-0.195,2.266 -3.097,12.107 -5.423,21.688c-0.104,0.374 -0.164,0.619 -0.189,0.796c-0.681,2.831 -1.299,5.621 -1.774,8.163c-1.982,-7.8 -5.049,-10.546 -11.926,-13.8c-7.152,-3.379 -15.682,-10.334 -15.767,-10.402c0,0 -0.98,-1.634 -1.389,0.526c-3.998,21.243 8.788,27.702 16.357,29.229c0.626,0.126 1.23,0.224 1.812,0.295c5.057,0.616 8.327,-0.726 9.911,-1.661c0.08,0.341 0.157,0.638 0.22,0.905c-0.969,8.908 -1.118,14.073 -0.003,18.827l3.468,0c-0.124,-0.57 -0.237,-1.126 -0.368,-1.71c-2.07,-9.036 -0.505,-20.736 1.707,-30.366c0.868,0.502 2.134,0.968 3.863,0.968" style="fill:#c5c158;fill-rule:nonzero;"/><path d="M196.037,184.617c0,0 -13.035,-15.107 6.732,-27.95l0.494,-0.322l-2.331,-0.349c0,0 9.453,-5.91 8.871,-3.12c-0.585,2.79 -2.356,8.501 0,14.878c2.35,6.379 -1.217,20.125 -13.766,16.863" style="fill:#e34e45;fill-rule:nonzero;"/><path d="M174.068,151.177c-2.24,-3.944 21.365,5.378 23.737,33.933c0,0 -13.252,0.712 -19.671,-7.366c0,0 -6.018,-4.893 -2.141,-14.452c0,0 0.321,-8.171 -1.925,-12.115" style="fill:#e34e45;fill-rule:nonzero;"/><path d="M193.113,172.611c0,0 -14.337,-11.657 -4.28,-23.136c3.478,-4.803 3.36,-7.604 5.348,-6.377c1.991,1.225 8.783,1.108 10.913,9.778c0.459,2.523 2.567,18.006 -11.981,19.735" style="fill:#e34e45;fill-rule:nonzero;"/><path d="M186.79,181.628c0,0 -10.583,-0.216 -10.366,11.474c-0.017,0.518 0.505,0.954 1.526,0.807c1.065,-0.15 2.699,-0.57 4.887,-1.658c0,0 -0.815,1.753 -0.288,3.913c0.186,0.759 1.397,1.541 1.965,0.374c1.17,-2.422 3.699,-6.327 8.168,-7.476c6.636,-1.701 10.298,-2.059 8.467,-4.961c-1.831,-2.902 -6.347,-2.471 -14.359,-2.473" style="fill:#e34e45;fill-rule:nonzero;"/><rect x="167.388" y="226.523" width="32.772" height="8.114" style="fill:#fff;"/><rect x="167.388" y="234.636" width="32.772" height="57.544" style="fill:#e34e45;"/><rect x="52.228" y="292.181" width="147.933" height="6.847" style="fill:#fff;"/></g><path d="M141.776,34.134l-20.284,-20.284l-20.285,20.284l20.285,20.284l20.284,-20.284Z" style="fill:#fff;"/>
</svg>
