<?xml version="1.0" encoding="UTF-8" standalone="no"?><!DOCTYPE svg PUBLIC "-//W3C//DTD SVG 1.1//EN" "http://www.w3.org/Graphics/SVG/1.1/DTD/svg11.dtd"><svg width="100%" height="100%" viewBox="0 0 241 360" version="1.1" xmlns="http://www.w3.org/2000/svg" xmlns:xlink="http://www.w3.org/1999/xlink" xml:space="preserve" xmlns:serif="http://www.serif.com/" style="fill-rule:evenodd;clip-rule:evenodd;stroke-linejoin:round;stroke-miterlimit:2;"><rect id="cx" x="0.697" y="0" width="240" height="360" style="fill:none;"/><clipPath id="_clip1"><rect x="0.697" y="0" width="240" height="360"/></clipPath><g clip-path="url(#_clip1)"><rect x="0.697" y="0" width="240" height="360" style="fill:#c42532;"/><g id="Layer1"></g><path d="M45.77,159.843l-21.256,5.894c-2.126,-1.268 -4.252,-3.042 -6.377,-5.323c-2.126,-2.282 -3.189,-5.45 -3.189,-9.506c0,-7.605 5.173,-12.928 15.517,-15.97l23.807,-7.224l7.865,0c6.093,0 10.911,1.584 14.454,4.753c3.542,3.168 5.314,7.477 5.314,12.927l0,99.051c-1.559,0.253 -3.862,0.602 -6.908,1.045c-3.047,0.444 -6.129,0.666 -9.247,0.666c-3.117,0 -5.916,-0.19 -8.396,-0.571c-2.48,-0.38 -4.57,-1.14 -6.27,-2.281c-1.701,-1.141 -3.012,-2.693 -3.933,-4.658c-0.921,-1.964 -1.381,-4.531 -1.381,-7.7l0,-71.103Z" style="fill:#fff;fill-rule:nonzero;"/><path d="M181.383,186.84c0,-11.154 -1.807,-19.772 -5.42,-25.856c-3.614,-6.084 -8.751,-9.126 -15.411,-9.126c-6.66,0 -11.726,3.042 -15.198,9.126c-3.472,6.084 -5.208,14.702 -5.208,25.856c0,11.153 1.736,19.803 5.208,25.95c3.472,6.147 8.538,9.221 15.198,9.221c6.66,0 11.797,-3.074 15.411,-9.221c3.613,-6.147 5.42,-14.797 5.42,-25.95Zm36.348,0c0,9.759 -1.417,18.441 -4.252,26.045c-2.834,7.605 -6.766,13.974 -11.797,19.107c-5.03,5.133 -11.053,9.031 -18.067,11.692c-7.015,2.662 -14.631,3.993 -22.85,3.993c-8.361,0 -16.049,-1.331 -23.063,-3.993c-7.015,-2.661 -13.037,-6.559 -18.068,-11.692c-5.03,-5.133 -8.927,-11.502 -11.691,-19.107c-2.763,-7.604 -4.144,-16.286 -4.144,-26.045c0,-9.76 1.381,-18.41 4.144,-25.951c2.764,-7.541 6.661,-13.879 11.691,-19.012c5.031,-5.133 11.053,-9.03 18.068,-11.692c7.014,-2.661 14.702,-3.992 23.063,-3.992c8.219,0 15.835,1.331 22.85,3.992c7.014,2.662 13.037,6.559 18.067,11.692c5.031,5.133 8.963,11.471 11.797,19.012c2.835,7.541 4.252,16.191 4.252,25.951Z" style="fill:#fff;fill-rule:nonzero;"/><path d="M140.88,32.786l-20.183,-20.182l-20.183,20.182l20.183,20.183l20.183,-20.183Z" style="fill:#fff;"/></g></svg>