<svg xmlns="http://www.w3.org/2000/svg" viewBox="0 0 242 340">
  <rect width="242" height="340" rx="20" fill="#fff"/>
  <path d="M104 107.226L121.5 125l17.5-17.774-17.5-17.773zM104 237.226L121.5 255l17.5-17.774-17.5-17.773zM146 269.226L163.5 287l17.5-17.774-17.5-17.773zM58 269.226L75.5 287 93 269.226l-17.5-17.773zM146 203.226L163.5 221l17.5-17.774-17.5-17.773zM58 203.226L75.5 221 93 203.226l-17.5-17.773zM58 137.226L75.5 155 93 137.226l-17.5-17.773zM146 137.226L163.5 155l17.5-17.774-17.5-17.773zM146 71.226L163.5 89 181 71.226l-17.5-17.773zM58 71.226L75.5 89 93 71.226 75.5 53.453zM14 72.883l11.111 11.228 11.111-11.228-11.111-11.228zM205.778 268.772L216.889 280 228 268.772l-11.111-11.228z" fill="#db362a"/>
  <text transform="translate(10 32)" fill="#db362a" font-size="20" font-family="Helvetica">
    <tspan x="0" y="15">10</tspan>
  </text>
  <g>
    <text transform="rotate(180 114 155)" fill="#db362a" font-size="20" font-family="Helvetica">
      <tspan x="0" y="15">10</tspan>
    </text>
  </g>
</svg>
