<?xml version="1.0" encoding="UTF-8" standalone="no"?><!DOCTYPE svg PUBLIC "-//W3C//DTD SVG 1.1//EN" "http://www.w3.org/Graphics/SVG/1.1/DTD/svg11.dtd"><svg width="100%" height="100%" viewBox="0 0 241 360" version="1.1" xmlns="http://www.w3.org/2000/svg" xmlns:xlink="http://www.w3.org/1999/xlink" xml:space="preserve" xmlns:serif="http://www.serif.com/" style="fill-rule:evenodd;clip-rule:evenodd;stroke-linejoin:round;stroke-miterlimit:2;"><rect id="h5" x="0.31" y="0" width="240" height="360" style="fill:none;"/><clipPath id="_clip1"><rect x="0.31" y="0" width="240" height="360"/></clipPath><g clip-path="url(#_clip1)"><g id="Layer1"><g id="Blue_Background"><path d="M240.31,30c0,-16.557 -13.443,-30 -30,-30l-180,0c-16.558,0 -30,13.443 -30,30l0,300c0,16.557 13.442,30 30,30l180,0c16.557,0 30,-13.443 30,-30l0,-300Z" style="fill:#25c1c4;"/></g></g><path d="M116.271,247.677c-6.518,0 -12.435,-0.444 -17.749,-1.331c-5.314,-0.887 -9.884,-2.218 -13.71,-3.993c-3.826,-1.774 -6.802,-3.96 -8.927,-6.559c-2.126,-2.598 -3.189,-5.608 -3.189,-9.03c0,-3.549 1.134,-6.527 3.401,-8.936c2.268,-2.408 4.818,-4.309 7.652,-5.703c3.968,2.662 8.219,4.975 12.754,6.939c4.535,1.965 10.274,2.947 17.217,2.947c6.661,0 11.408,-1.331 14.242,-3.992c2.834,-2.662 4.251,-5.894 4.251,-9.696c0,-3.676 -1.24,-6.718 -3.72,-9.126c-2.48,-2.408 -6.766,-3.612 -12.86,-3.612c-3.826,0 -7.014,0.38 -9.565,1.141c-2.55,0.76 -5.455,1.837 -8.715,3.232c-6.943,-0.254 -12.434,-1.933 -16.473,-5.038c-4.039,-3.106 -6.058,-7.89 -6.058,-14.354l0,-1.426c0,-0.57 0.071,-1.743 0.213,-3.517l2.55,-28.898c0.425,-5.45 2.338,-9.759 5.739,-12.928c3.401,-3.168 8.148,-4.753 14.242,-4.753l61.217,0c0.85,1.395 1.701,3.232 2.551,5.514c0.85,2.281 1.275,4.689 1.275,7.224c0,4.816 -1.204,8.239 -3.613,10.266c-2.409,2.028 -5.456,3.042 -9.14,3.042l-40.812,0l-1.488,17.871c2.693,-0.634 5.42,-1.204 8.184,-1.711c2.763,-0.507 6.27,-0.76 10.521,-0.76c7.369,0 13.746,0.982 19.131,2.946c5.385,1.965 9.813,4.658 13.285,8.08c3.472,3.422 6.022,7.415 7.652,11.978c1.63,4.562 2.444,9.442 2.444,14.639c0,5.196 -0.991,10.202 -2.975,15.019c-1.984,4.816 -5.102,9.03 -9.353,12.642c-4.251,3.613 -9.671,6.496 -16.261,8.651c-6.589,2.154 -14.56,3.232 -23.913,3.232Z" style="fill:#fff;fill-rule:nonzero;"/><g><path d="M120.31,19.529c4.4,-8.36 13.2,-8.36 17.6,-4.18c4.4,4.18 4.4,12.54 0,20.9c-3.08,6.27 -11,12.54 -17.6,16.72c-6.6,-4.18 -14.52,-10.45 -17.6,-16.72c-4.4,-8.36 -4.4,-16.72 0,-20.9c4.4,-4.18 13.2,-4.18 17.6,4.18Z" style="fill:#fff;"/></g></g></svg>