<?xml version="1.0" encoding="UTF-8" standalone="no"?><!DOCTYPE svg PUBLIC "-//W3C//DTD SVG 1.1//EN" "http://www.w3.org/Graphics/SVG/1.1/DTD/svg11.dtd"><svg width="100%" height="100%" viewBox="0 0 241 360" version="1.1" xmlns="http://www.w3.org/2000/svg" xmlns:xlink="http://www.w3.org/1999/xlink" xml:space="preserve" xmlns:serif="http://www.serif.com/" style="fill-rule:evenodd;clip-rule:evenodd;stroke-linejoin:round;stroke-miterlimit:2;"><rect id="h8" x="0.542" y="0" width="240" height="360" style="fill:none;"/><clipPath id="_clip1"><rect x="0.542" y="0" width="240" height="360"/></clipPath><g clip-path="url(#_clip1)"><rect x="0.542" y="0" width="240" height="360" style="fill:#25c1c4;"/><g id="Layer1"></g><path d="M69.953,160.223c0,-5.069 1.204,-9.695 3.613,-13.878c2.409,-4.183 5.739,-7.795 9.991,-10.837c4.251,-3.041 9.352,-5.386 15.304,-7.034c5.952,-1.648 12.47,-2.471 19.556,-2.471c7.085,0 13.603,0.76 19.555,2.281c5.952,1.521 11.053,3.676 15.304,6.464c4.252,2.788 7.582,6.21 9.991,10.266c2.409,4.056 3.613,8.619 3.613,13.688c0,5.577 -1.275,10.457 -3.826,14.639c-2.551,4.183 -6.093,7.668 -10.628,10.457c5.385,3.295 9.778,7.192 13.179,11.692c3.401,4.499 5.101,10.551 5.101,18.156c0,5.07 -1.204,9.696 -3.613,13.878c-2.409,4.183 -5.881,7.795 -10.416,10.837c-4.534,3.042 -9.99,5.387 -16.367,7.034c-6.377,1.648 -13.533,2.472 -21.468,2.472c-7.936,0 -15.092,-0.824 -21.469,-2.472c-6.377,-1.647 -11.797,-3.992 -16.261,-7.034c-4.464,-3.042 -7.935,-6.654 -10.415,-10.837c-2.48,-4.182 -3.72,-8.808 -3.72,-13.878c0,-6.844 1.665,-12.548 4.995,-17.111c3.33,-4.562 7.263,-8.111 11.797,-10.646c-3.826,-2.788 -7.085,-6.115 -9.778,-9.981c-2.692,-3.866 -4.038,-9.094 -4.038,-15.685Zm33.372,50.571c0,3.929 1.452,7.034 4.357,9.316c2.905,2.281 6.625,3.422 11.16,3.422c4.534,0 8.254,-1.172 11.159,-3.517c2.905,-2.345 4.358,-5.419 4.358,-9.221c0,-3.675 -1.24,-6.749 -3.72,-9.22c-2.48,-2.472 -5.846,-4.405 -10.097,-5.799c-6.235,1.267 -10.663,3.2 -13.285,5.799c-2.621,2.598 -3.932,5.671 -3.932,9.22Zm28.058,-49.43c0,-3.422 -1.134,-6.147 -3.401,-8.175c-2.268,-2.028 -5.456,-3.042 -9.565,-3.042c-4.11,0 -7.298,1.014 -9.566,3.042c-2.267,2.028 -3.401,4.69 -3.401,7.985c0,3.295 1.169,5.957 3.508,7.985c2.338,2.028 5.066,3.675 8.183,4.943c4.96,-1.014 8.573,-2.662 10.841,-4.943c2.267,-2.282 3.401,-4.88 3.401,-7.795Z" style="fill:#fff;fill-rule:nonzero;"/><g><path d="M120.542,19.529c4.4,-8.36 13.2,-8.36 17.6,-4.18c4.4,4.18 4.4,12.54 0,20.9c-3.08,6.27 -11,12.54 -17.6,16.72c-6.6,-4.18 -14.52,-10.45 -17.6,-16.72c-4.4,-8.36 -4.4,-16.72 0,-20.9c4.4,-4.18 13.2,-4.18 17.6,4.18Z" style="fill:#fff;"/></g></g></svg>