<?xml version="1.0" encoding="UTF-8" standalone="no"?><!DOCTYPE svg PUBLIC "-//W3C//DTD SVG 1.1//EN" "http://www.w3.org/Graphics/SVG/1.1/DTD/svg11.dtd"><svg width="100%" height="100%" viewBox="0 0 241 360" version="1.1" xmlns="http://www.w3.org/2000/svg" xmlns:xlink="http://www.w3.org/1999/xlink" xml:space="preserve" xmlns:serif="http://www.serif.com/" style="fill-rule:evenodd;clip-rule:evenodd;stroke-linejoin:round;stroke-miterlimit:2;"><rect id="hq" x="0.852" y="0" width="240" height="360" style="fill:none;"/><clipPath id="_clip1"><rect x="0.852" y="0" width="240" height="360"/></clipPath><g clip-path="url(#_clip1)"><rect x="0.852" y="0" width="240" height="360" style="fill:#25c1c4;"/><g id="Layer1"></g><g><path d="M35.406,304.775c1.127,-1.961 8.857,-12.352 8.827,-16.691c-0.037,-6.421 -4.901,-11.569 -4.408,-19.615c0.63,-10.424 8.538,-16.965 7.355,-21.457c-0.801,-3.037 -2.001,-8.925 -2.947,-11.919c-5.35,-16.975 4.415,-52.632 10.302,-69.623c4.335,-12.502 10.788,-23.942 24.1,-23.942l80.186,0c13.305,0 19.765,11.44 24.09,23.942c5.893,16.991 15.662,52.648 10.302,69.623c-0.942,2.994 -2.136,8.882 -2.937,11.919c-1.187,4.492 6.718,11.033 7.355,21.457c0.49,8.046 -4.378,13.194 -4.418,19.615c-0.024,4.339 7.703,14.73 8.833,16.691c9.809,17.055 -5.887,34.535 -5.887,34.535c0,13.222 -24.039,15.516 -37.345,15.516l-80.182,0c-13.309,0 -37.339,-2.294 -37.339,-15.516c0,0 -15.699,-17.48 -5.887,-34.535" style="fill:#775b35;fill-rule:nonzero;"/><path d="M117.583,259.887c-42.34,0 -78.284,47.006 -83.296,91.752l164.206,0c-4.707,-44.746 -38.566,-91.752 -80.91,-91.752" style="fill:#e34e45;fill-rule:nonzero;"/><path d="M157.222,279.908c0,13.774 -17.563,53.561 -39.23,53.561c-21.666,0 -39.229,-39.787 -39.229,-53.561c0,-13.777 17.563,-24.94 39.229,-24.94c21.667,0 39.23,11.163 39.23,24.94" style="fill:#fff;fill-rule:nonzero;"/><path d="M148.452,272.978c0,13.251 -12.907,49.698 -29.726,49.698c-16.825,0 -31.197,-36.447 -31.197,-49.698c0,-13.251 13.638,-23.995 30.463,-23.995c16.822,0 30.46,10.744 30.46,23.995" style="fill:#f1d2ac;fill-rule:nonzero;"/><path d="M214.923,270.677c0,-10.977 -8.961,-19.879 -20.011,-19.879c-11.052,0 -20.007,8.902 -20.007,19.879l0,1.925l40.018,0l0,-1.925" style="fill:#f1d2ac;fill-rule:nonzero;"/><path d="M148.77,272.022l1.995,-6.417l-4.009,5.405c-0.691,0.932 -2.099,1.605 -3.128,2.095c-0.547,0.263 -0.982,0.466 -1.267,0.686c-2.216,1.595 -1.462,3.973 -1.006,5.395c0.104,0.346 0.268,0.866 0.271,1.065l-0.07,0.157l-1.002,1.022c-0.825,0.836 -2.313,1.292 -3.403,1.625c-0.57,0.17 -1.019,0.31 -1.331,0.48c-2.176,1.126 -2.015,3.25 -1.951,4.056c0.027,0.333 0.074,0.663 0.114,0.986c0.05,0.39 0.131,0.969 0.091,1.176l-0.074,0.116l-1.184,0.799c-0.556,0.37 -1.394,0.613 -2.474,0.72c-0.439,0.036 -0.851,0.05 -1.21,0.06c-0.516,0.016 -0.928,0.03 -1.234,0.093c-2.283,0.436 -2.732,2.391 -2.923,3.207l-0.191,0.873c-0.074,0.369 -0.184,0.915 -0.285,1.122l-0.117,0.073l-1.408,0.273c-0.312,0.064 -0.627,0.03 -1.13,-0.083c-0.345,-0.067 -0.721,-0.206 -1.187,-0.446c-0.419,-0.197 -0.784,-0.447 -1.113,-0.67l-0.784,-0.473c-0.915,-0.406 -1.82,-0.396 -2.32,-0.176c-0.55,0.166 -1.079,0.476 -1.7,0.979l-0.435,0.35c-0.366,0.296 -0.983,0.796 -1.117,0.849l-0.204,-0.023l-1.174,-0.723c-0.529,-0.326 -1.052,-1.002 -1.512,-1.948c-0.201,-0.43 -0.358,-0.833 -0.496,-1.179c-0.167,-0.42 -0.298,-0.756 -0.472,-1.043c-0.486,-0.782 -1.154,-1.302 -2.002,-1.551c-0.596,-0.157 -1.297,-0.167 -2.085,-0.077l-0.885,0.14c-0.436,0.073 -0.848,0.143 -1.123,0.143l-0.097,0.003l-0.175,-0.11l-0.801,-1.125c-0.68,-0.959 -0.845,-2.578 -0.948,-3.644c-0.057,-0.556 -0.104,-1.002 -0.202,-1.325c-0.724,-2.581 -3.211,-2.721 -4.7,-2.804c-0.392,-0.023 -0.979,-0.057 -1.079,-0.087l-0.151,-0.143l-0.6,-1.305c-0.486,-1.059 -0.399,-2.608 -0.332,-3.737c0.03,-0.603 0.06,-1.079 0.007,-1.435c-0.335,-2.691 -2.786,-3.187 -4.258,-3.487c-0.375,-0.073 -0.945,-0.187 -1.036,-0.23l-4.167,-5.275l2.169,6.271c0.014,0.173 -0.147,0.703 -0.254,1.049c-0.429,1.415 -1.231,4.053 1.227,5.725c0.385,0.263 0.958,0.486 1.679,0.762c1.039,0.403 2.464,0.953 3.098,1.612l0.04,0.04l0.754,1.436c0.037,0.163 -0.047,0.702 -0.097,1.062c-0.221,1.469 -0.63,4.203 2.075,5.508c0.446,0.217 1.093,0.356 1.904,0.53c1.076,0.226 2.548,0.539 3.272,1.055l0.091,0.06l1.002,1.249c0.064,0.14 0.097,0.626 0.127,0.983c0.034,0.433 0.074,0.919 0.168,1.422c0.456,2.574 2.079,3.383 3.326,3.606c0.489,0.097 1.267,0.05 2.259,-0.023l0.671,-0.053c0.808,-0.074 1.793,-0.117 2.464,-0.037l1.88,0.836l0.5,0.696c0.261,0.41 0.586,0.913 1.002,1.372c0.932,1.062 2.116,1.655 3.342,1.655c0.584,0 1.174,-0.133 1.75,-0.389c0.738,-0.333 1.734,-1.203 2.421,-1.862l1.18,-1.082c0.375,-0.327 0.714,-0.57 1.022,-0.75l0.104,-0.063l1.569,-0.37c0.185,0 0.617,0.127 0.996,0.24c0.436,0.13 0.922,0.273 1.478,0.38c0.882,0.143 1.633,0.11 2.38,-0.11c0.899,-0.29 1.66,-0.913 2.21,-1.818c0.268,-0.473 0.456,-1.163 0.694,-2.035c0.288,-1.046 0.647,-2.328 1.136,-3.054l1.391,-1.126c0.148,-0.06 0.644,-0.08 1.009,-0.093c0.436,-0.017 0.905,-0.037 1.368,-0.1c2.551,-0.336 3.44,-1.832 3.741,-3.024c0.118,-0.466 0.124,-1.089 0.138,-1.875c0.013,-1.102 0.033,-2.611 0.419,-3.43l0.057,-0.113l1.039,-1.152c0.144,-0.09 0.687,-0.21 1.049,-0.287c1.452,-0.313 4.157,-0.892 4.442,-3.833c0.04,-0.463 -0.037,-1.062 -0.141,-1.818c-0.15,-1.103 -0.348,-2.608 -0.077,-3.484" style="fill:#e6a52e;fill-rule:nonzero;"/><path d="M168.492,214.991c0,35.524 -22.705,73.093 -50.718,73.093c-28.009,0 -50.718,-37.569 -50.718,-73.093c0,-35.527 3.946,-64.324 50.718,-64.324c50.718,0 50.718,28.797 50.718,64.324" style="fill:#f1d2ac;fill-rule:nonzero;"/><path d="M53.905,179.584c0,13.221 3.922,20.491 19.903,24.963c16.131,4.516 41.439,6.301 56.263,0.88c14.817,-5.422 28.2,-22.227 33.111,-29.463c4.11,-6.048 3.192,-20.728 3.192,-20.728c0,-13.221 -16.675,-25.4 -29.987,-25.4l-28.948,0c-26.933,0 -39.981,12.428 -48.137,24.85c-4.77,7.26 -5.397,24.898 -5.397,24.898" style="fill:#775b35;fill-rule:nonzero;"/><path d="M117.134,89.792l0.002,0.002c0.777,0.759 1.351,1.069 1.981,1.069c0.606,0 1.269,-0.317 2.026,-0.97c5.026,10.033 10.527,21.032 16.353,32.693c0.034,0.067 0.067,0.133 0.1,0.198c0.382,0.764 0.713,1.424 1.404,1.424c0.483,0 1.13,-0.326 1.979,-0.995c3.965,-3.128 7.869,-7.174 11.645,-11.086c1.596,-1.654 3.104,-3.216 4.602,-4.697l0.136,-0.178l-0.488,-0.389c-1.944,-1.554 -2.661,-4.169 -1.785,-6.508c0.869,-2.294 3.014,-3.776 5.466,-3.776c1.02,-0.001 2.027,0.266 2.913,0.77c2.179,1.24 3.289,3.626 2.828,6.078c-0.586,3.101 -3.246,4.723 -5.571,4.723c-0.046,0 -0.092,0 -0.138,-0.002l-0.432,0.047c0.473,3.912 0.944,7.817 1.414,11.718c0.426,3.533 0.851,7.063 1.278,10.593c0.045,0.387 0.342,2.32 1.727,2.32c0.419,0 0.899,-0.181 1.427,-0.539c5.108,-3.464 14.678,-11.529 14.909,-11.753l-0.315,-0.462c-1.394,-2.09 -0.927,-4.925 1.065,-6.454c0.877,-0.667 1.859,-0.991 3.003,-0.991c0.099,0 0.199,0.002 0.3,0.007c1.997,0.1 3.795,1.579 4.276,3.517l0.088,0.123l0,2.262l-0.08,0.127c-0.141,0.742 -0.508,1.412 -1.121,2.045c-0.967,0.989 -2.14,1.491 -3.487,1.491c-0.193,0 -0.393,-0.01 -0.594,-0.03l-0.537,0.017l-0.077,0.544c-0.119,0.924 -0.231,1.858 -0.34,2.762l-0.023,0.193c-0.087,0.728 -0.178,1.459 -0.268,2.189c-0.068,0.551 -0.135,1.097 -0.201,1.643l-0.135,1.117c-0.105,0.867 -0.209,1.738 -0.318,2.609c-0.132,1.027 -0.261,2.071 -0.385,3.081l-0.085,0.688c-0.094,0.774 -0.186,1.547 -0.278,2.321l-0.003,0.031c-0.093,0.781 -0.186,1.563 -0.282,2.343c-0.096,0.77 -0.191,1.54 -0.287,2.31l-0.002,0.012c-0.106,0.86 -0.213,1.719 -0.32,2.578l-0.141,0.669l-0.495,0.068c-0.446,0.04 -0.92,0.085 -1.392,0.136c-0.5,0.046 -1.004,0.098 -1.491,0.148c-0.435,0.044 -0.864,0.088 -1.295,0.129c-0.535,0.053 -1.084,0.102 -1.614,0.149c-0.338,0.03 -0.674,0.059 -1.008,0.09l-0.699,0.066c-0.719,0.067 -1.459,0.137 -2.191,0.196l-3.141,0.242c-0.695,0.051 -1.388,0.104 -2.082,0.157c-0.944,0.073 -1.917,0.148 -2.873,0.215c-1.429,0.089 -2.819,0.17 -4.133,0.239c-1.766,0.107 -3.608,0.208 -5.475,0.3c-1.325,0.065 -2.679,0.125 -3.988,0.184l-0.083,0.003c-0.538,0.024 -1.076,0.048 -1.614,0.073c-0.352,0.015 -0.71,0.024 -1.057,0.033c-0.351,0.01 -0.709,0.019 -1.058,0.034c-0.589,0.02 -1.177,0.042 -1.765,0.065c-0.885,0.034 -1.791,0.068 -2.684,0.094c-1.043,0.033 -2.106,0.054 -3.134,0.075l-0.029,0.001c-0.548,0.011 -1.096,0.022 -1.644,0.034c-0.477,0.01 -0.954,0.02 -1.431,0.03l-0.066,0.001c-1.154,0.025 -2.347,0.05 -3.526,0.068c-1.563,0.023 -3.156,0.029 -4.696,0.036l-0.476,0.002c-2.588,0 -5.229,-0.007 -8.072,-0.021c-1.198,-0.005 -2.395,-0.015 -3.59,-0.025l-0.054,0c-0.77,-0.006 -1.539,-0.013 -2.306,-0.018c-0.988,-0.011 -1.739,-0.025 -2.434,-0.046c-0.922,-0.016 -1.842,-0.036 -2.762,-0.056c-0.617,-0.013 -1.231,-0.026 -1.847,-0.038l-0.576,-0.009c-0.557,-0.009 -1.133,-0.019 -1.699,-0.034c-0.933,-0.026 -1.885,-0.06 -2.805,-0.093c-0.639,-0.023 -1.268,-0.046 -1.898,-0.066c-1.377,-0.054 -2.758,-0.104 -4.137,-0.155l-1.497,-0.055c-1.67,-0.067 -3.305,-0.134 -4.959,-0.207c-1.07,-0.044 -2.157,-0.097 -3.208,-0.149l-0.356,-0.018c-0.742,-0.039 -1.483,-0.081 -2.224,-0.122l-0.017,-0.001c-0.735,-0.041 -1.47,-0.083 -2.207,-0.122l-0.231,-0.013c-1.31,-0.075 -2.665,-0.152 -4.004,-0.237c-0.556,-0.033 -1.093,-0.069 -1.661,-0.108l-0.241,-0.016c-1.226,-0.086 -2.442,-0.172 -3.665,-0.26c-0.653,-0.051 -1.316,-0.097 -1.956,-0.141l-0.012,-0.001c-0.497,-0.035 -0.995,-0.07 -1.493,-0.107c-1.329,-0.107 -2.762,-0.226 -4.381,-0.363c-1.345,-0.113 -2.678,-0.232 -3.919,-0.344l-0.432,-0.078c-0.105,-1.103 -0.184,-2.226 -0.26,-3.311c-0.042,-0.59 -0.083,-1.177 -0.129,-1.762c-0.077,-0.966 -0.144,-1.945 -0.209,-2.892c-0.047,-0.7 -0.097,-1.422 -0.15,-2.133c-0.084,-1.145 -0.171,-2.292 -0.258,-3.439l-0.124,-1.634c-0.111,-1.639 -0.227,-3.334 -0.359,-5.021c-0.047,-0.613 -0.09,-1.225 -0.133,-1.836c-0.074,-1.052 -0.15,-2.14 -0.248,-3.196l-0.084,-0.058l-0.309,-0.022c-0.944,-0.008 -1.824,-0.291 -2.617,-0.844c-1.015,-0.702 -1.671,-1.67 -1.949,-2.877l-0.221,-0.503l0,-1.132l0.215,-0.445c0.478,-2.187 2.453,-3.775 4.696,-3.775c0.352,0 0.708,0.039 1.06,0.114c2.548,0.541 4.171,2.995 3.694,5.588c-0.215,1.14 -0.797,2.098 -1.73,2.849l-0.318,0.282c3.091,2.781 6.222,5.595 9.249,8.316l2.031,1.825c0.105,0.094 0.22,0.199 0.341,0.309c0.889,0.814 2.108,1.929 2.94,1.929c0.398,0 0.668,-0.263 0.803,-0.783c0.234,-0.9 0.359,-1.844 0.48,-2.756c0.061,-0.46 0.124,-0.935 0.2,-1.4c0.11,-0.685 0.223,-1.366 0.337,-2.048c0.112,-0.673 0.222,-1.339 0.329,-2.008l0.271,-1.646l0.009,-0.053c0.132,-0.801 0.264,-1.603 0.396,-2.405l0.16,-0.974c0.17,-1.028 0.346,-2.092 0.513,-3.138c0.225,-1.348 0.457,-2.739 0.674,-4.108c0.08,-0.5 0.162,-1.001 0.244,-1.501c0.119,-0.727 0.24,-1.469 0.356,-2.204l-0.007,-0.26l-0.335,-0.017c-1.527,-0.095 -2.822,-0.686 -3.848,-1.759c-1.443,-1.515 -1.938,-3.32 -1.472,-5.365c0.581,-2.574 2.953,-4.443 5.641,-4.443c0.387,0 0.782,0.037 1.173,0.111c1.492,0.279 2.843,1.175 3.706,2.457c0.868,1.292 1.173,2.854 0.857,4.401c-0.279,1.336 -0.974,2.461 -2.065,3.346l-0.371,0.367l0.285,0.296l0.007,0.007c0.938,0.914 1.907,1.859 2.862,2.804l1.22,1.195c1.229,1.203 2.458,2.406 3.685,3.611c1.143,1.128 2.288,2.254 3.432,3.378l1.345,1.323c0.588,0.579 1.176,1.16 1.764,1.741c0.735,0.726 1.469,1.452 2.204,2.176c0.201,0.198 0.596,0.321 1.032,0.321c0.899,0 1.696,-0.491 2.129,-1.313c3.709,-6.982 14.624,-27.729 17.409,-33.132l0.001,-0.002Zm2.056,52.724l0,-0.002c0.55,0 1.097,-0.477 1.626,-1.418c1.414,-2.525 3.674,-6.565 4.656,-8.326l0.424,-0.743l0.085,-0.163c0.325,-0.645 0.606,-1.352 0.834,-2.101c0.432,-1.432 0.651,-2.953 0.651,-4.519c0,-2.245 -0.46,-4.421 -1.33,-6.291l-0.118,-0.264l-0.067,-0.116c-0.158,-0.322 -0.332,-0.619 -0.496,-0.892c-0.743,-1.328 -1.477,-2.622 -2.124,-3.764c-1.235,-2.176 -2.21,-3.895 -2.725,-4.921c-0.404,-0.806 -0.855,-1.214 -1.342,-1.214c-0.848,0 -1.513,1.25 -1.52,1.262l-4.153,7.618l-0.024,0.02c-0.74,0.953 -1.337,2.049 -1.773,3.259l-0.477,0.87l0.007,0.66c-0.303,1.223 -0.456,2.492 -0.456,3.773c0,1.391 0.175,2.754 0.52,4.052l0.011,0.467l0.322,0.582c0.48,1.389 1.153,2.613 1.999,3.64l3.839,7.004c0.006,0.015 0.658,1.525 1.631,1.525l0,0.002Zm-31.265,-0.438c2.547,0 4.62,-3.261 4.62,-7.269c0,-4.011 -2.073,-7.273 -4.62,-7.273c-2.546,0 -4.617,3.262 -4.617,7.273c0,4.008 2.071,7.269 4.617,7.269Zm60.808,0c2.546,0 4.617,-3.261 4.617,-7.269c0,-4.011 -2.071,-7.273 -4.617,-7.273c-2.545,0 -4.615,3.262 -4.615,7.273c0,4.008 2.07,7.269 4.615,7.269Zm-84.449,0c2.013,0 3.651,-1.632 3.651,-3.637c0,-2.003 -1.638,-3.632 -3.651,-3.632c-2.017,0 -3.658,1.629 -3.658,3.632c0,2.005 1.641,3.637 3.658,3.637Zm108.097,0c2.013,0 3.65,-1.632 3.65,-3.637c0,-2.003 -1.637,-3.632 -3.65,-3.632c-2.016,0 -3.657,1.629 -3.657,3.632c0,2.005 1.641,3.637 3.657,3.637Z" style="fill:#e6a52e;fill-rule:nonzero;"/><path d="M180.631,150.72l0.329,0c-0.05,1.395 -0.141,2.781 -0.205,4.163c-0.06,1.385 -0.13,2.767 -0.214,4.156c-0.081,1.375 -0.124,2.761 -0.225,4.16l-0.278,0.07c-1.116,0.109 -2.229,0.219 -3.342,0.336c-0.882,0.086 -1.754,0.18 -2.622,0.26c-0.919,0.09 -1.827,0.169 -2.735,0.249c-1.036,0.087 -2.069,0.18 -3.095,0.263c-1.046,0.087 -2.102,0.167 -3.148,0.237c-1.27,0.097 -2.544,0.183 -3.818,0.28c-0.603,0.043 -1.203,0.08 -1.81,0.116c-1.425,0.08 -2.856,0.16 -4.278,0.24c-1.746,0.093 -3.483,0.183 -5.22,0.26c-1.361,0.066 -2.725,0.12 -4.089,0.17c-1.429,0.056 -2.857,0.116 -4.285,0.159c-0.714,0.02 -1.414,0.027 -2.129,0.044c-1.287,0.03 -2.584,0.066 -3.875,0.096c-0.711,0.02 -1.415,0.034 -2.115,0.04c-2.561,0.03 -5.109,0.054 -7.667,0.067c-2.102,0.023 -4.204,0.047 -6.316,0.037c-2.585,-0.007 -5.173,-0.037 -7.757,-0.074c-1.797,-0.02 -3.591,-0.056 -5.381,-0.1c-1.626,-0.036 -3.245,-0.083 -4.864,-0.133c-2.028,-0.063 -4.07,-0.13 -6.098,-0.203c-1.64,-0.067 -3.275,-0.13 -4.908,-0.203c-2.125,-0.103 -4.244,-0.203 -6.363,-0.313c-1.683,-0.087 -3.369,-0.183 -5.062,-0.277c-1.321,-0.08 -2.645,-0.183 -3.973,-0.269c-1.223,-0.08 -2.447,-0.154 -3.664,-0.24c-1.186,-0.08 -2.373,-0.177 -3.56,-0.27c-1.036,-0.08 -2.065,-0.16 -3.091,-0.24c-0.945,-0.073 -1.891,-0.153 -2.839,-0.239c-1.016,-0.087 -2.028,-0.19 -3.041,-0.283l-0.315,-0.047l-0.064,-0.59c-0.06,-1.075 -0.11,-2.154 -0.161,-3.24c-0.067,-1.309 -0.14,-2.628 -0.207,-3.943c-0.071,-1.332 -0.148,-2.671 -0.212,-4.003l-0.043,-0.773l0.322,-0.08c1.377,0.137 2.749,0.284 4.116,0.413c1.278,0.127 2.545,0.237 3.819,0.35c1.354,0.127 2.712,0.25 4.069,0.366c1.06,0.087 2.133,0.16 3.192,0.247c1.136,0.086 2.273,0.176 3.409,0.256c0.6,0.05 1.2,0.094 1.804,0.13c1.384,0.087 2.752,0.167 4.13,0.247c1.569,0.096 3.138,0.189 4.707,0.276c1.408,0.08 2.819,0.147 4.234,0.203c1.669,0.08 3.342,0.147 5.012,0.213c1.468,0.05 2.93,0.094 4.398,0.13c1.314,0.037 2.615,0.073 3.929,0.103c1.807,0.044 3.617,0.057 5.434,0.107c4.294,0.11 8.589,0.067 12.883,0.083c1.093,0 2.176,-0.01 3.259,-0.023c2.179,-0.03 4.355,-0.06 6.523,-0.103c1.707,-0.027 3.413,-0.08 5.123,-0.13c2.052,-0.057 4.103,-0.13 6.148,-0.203c1.593,-0.057 3.172,-0.13 4.764,-0.203c1.924,-0.09 3.852,-0.177 5.779,-0.284c1.965,-0.116 3.926,-0.249 5.884,-0.379c1.71,-0.11 3.409,-0.217 5.116,-0.343c1.508,-0.11 3.027,-0.247 4.535,-0.37c0.946,-0.08 1.891,-0.153 2.836,-0.243c1.254,-0.107 2.508,-0.233 3.758,-0.363c1.191,-0.117 2.367,-0.246 3.557,-0.363" style="fill:#d28b2f;fill-rule:nonzero;"/><path d="M172.381,134.808c2.018,0 3.651,1.622 3.651,3.633c0,2.009 -1.633,3.637 -3.651,3.637c-2.025,0 -3.657,-1.628 -3.657,-3.637c0,-2.011 1.632,-3.633 3.657,-3.633" style="fill:#13a2a4;fill-rule:nonzero;"/><path d="M148.733,127.535c2.552,0 4.617,3.253 4.617,7.273c0,4.01 -2.065,7.27 -4.617,7.27c-2.551,0 -4.616,-3.26 -4.616,-7.27c0,-4.02 2.065,-7.273 4.616,-7.273" style="fill:#e34e45;fill-rule:nonzero;"/><path d="M126.135,118.952c1.163,2.861 -0.111,12.572 -0.154,12.912l-0.084,0.163c-0.087,0.147 -0.231,0.4 -0.426,0.743c-1.508,2.494 -3.771,4.076 -6.305,4.076c-2.082,0 -3.997,-1.079 -5.445,-2.861l-2.001,-3.64c-0.124,-0.343 -0.231,-0.692 -0.332,-1.049l-0.064,-7.826c0.124,-0.523 0.279,-1.039 0.47,-1.528l1.773,-3.261l0.024,-0.02c1.471,-1.878 3.436,-3.014 5.575,-3.014c2.514,0 4.767,1.562 6.289,4.033l0.496,0.893l0.184,0.379" style="fill:#13a2a4;fill-rule:nonzero;"/><path d="M87.925,127.535c2.551,0 4.619,3.253 4.619,7.273c0,4.01 -2.068,7.27 -4.619,7.27c-2.548,0 -4.616,-3.26 -4.616,-7.27c0,-4.02 2.068,-7.273 4.616,-7.273" style="fill:#e34e45;fill-rule:nonzero;"/><path d="M64.284,134.808c2.018,0 3.651,1.622 3.651,3.633c0,2.009 -1.633,3.637 -3.651,3.637c-2.025,0 -3.658,-1.628 -3.658,-3.637c0,-2.011 1.633,-3.633 3.658,-3.633" style="fill:#13a2a4;fill-rule:nonzero;"/><path d="M208.161,251.381c0.345,0 0.714,-0.017 1.096,-0.047c4.57,-0.406 12.169,-3.273 11.767,-17.973c0,0 0.024,-2.301 -1.659,-0.816c-1.683,1.489 -5.284,3.79 -9.478,5.372c-1.468,0.553 -2.665,1.102 -3.68,1.788c1.833,-6.171 3.499,-10.494 3.989,-11.339c1.492,-2.598 0,-6.275 0,-6.275l-2.645,0.646c-0.238,2.768 -3.782,14.783 -6.621,26.483c-0.127,0.456 -0.201,0.756 -0.231,0.972c-0.832,3.457 -1.586,6.864 -2.166,9.968c-2.42,-9.525 -6.165,-12.878 -14.563,-16.851c-8.733,-4.127 -19.148,-12.619 -19.252,-12.702c0,0 -1.197,-1.995 -1.697,0.643c-4.881,25.939 10.731,33.825 19.974,35.69c0.764,0.153 1.502,0.273 2.212,0.36c6.175,0.752 10.168,-0.886 12.102,-2.028c0.098,0.416 0.191,0.779 0.269,1.105c-1.184,10.877 -1.365,17.185 -0.004,22.989l4.234,0c-0.151,-0.696 -0.288,-1.375 -0.449,-2.088c-2.528,-11.033 -0.617,-25.32 2.085,-37.079c1.06,0.613 2.605,1.182 4.717,1.182" style="fill:#c5c158;fill-rule:nonzero;"/><path d="M209.887,220.296c0,0 -15.917,-18.446 8.22,-34.128l0.604,-0.393l-2.846,-0.427c0,0 11.542,-7.216 10.831,-3.81c-0.714,3.407 -2.876,10.381 0,18.167c2.87,7.79 -1.485,24.574 -16.809,20.591" style="fill:#e34e45;fill-rule:nonzero;"/><path d="M183.062,179.464c-2.736,-4.816 26.088,6.567 28.984,41.435c0,0 -16.182,0.869 -24.019,-8.995c0,0 -7.349,-5.975 -2.615,-17.647c0,0 0.392,-9.978 -2.35,-14.793" style="fill:#e34e45;fill-rule:nonzero;"/><path d="M206.317,205.636c0,0 -17.506,-14.233 -5.226,-28.25c4.247,-5.865 4.103,-9.285 6.53,-7.787c2.431,1.496 10.724,1.352 13.326,11.939c0.56,3.081 3.134,21.987 -14.63,24.098" style="fill:#e34e45;fill-rule:nonzero;"/><path d="M198.597,216.646c0,0 -12.924,-0.263 -12.659,14.011c-0.02,0.633 0.617,1.165 1.864,0.986c1.301,-0.184 3.295,-0.696 5.967,-2.025c0,0 -0.995,2.141 -0.352,4.779c0.228,0.926 1.707,1.881 2.401,0.456c1.428,-2.957 4.515,-7.726 9.973,-9.128c8.103,-2.078 12.575,-2.515 10.339,-6.058c-2.236,-3.544 -7.751,-3.017 -17.533,-3.021" style="fill:#e34e45;fill-rule:nonzero;"/><rect x="174.905" y="271.466" width="40.017" height="9.908" style="fill:#fff;"/><rect x="174.905" y="281.374" width="40.017" height="70.266" style="fill:#e34e45;"/><rect x="34.287" y="351.639" width="180.636" height="8.361" style="fill:#fff;"/></g><g><path d="M120.852,19.529c4.4,-8.36 13.2,-8.36 17.6,-4.18c4.4,4.18 4.4,12.54 0,20.9c-3.08,6.27 -11,12.54 -17.6,16.72c-6.6,-4.18 -14.52,-10.45 -17.6,-16.72c-4.4,-8.36 -4.4,-16.72 0,-20.9c4.4,-4.18 13.2,-4.18 17.6,4.18Z" style="fill:#fff;"/></g></g></svg>