<?xml version="1.0" encoding="UTF-8" standalone="no"?><!DOCTYPE svg PUBLIC "-//W3C//DTD SVG 1.1//EN" "http://www.w3.org/Graphics/SVG/1.1/DTD/svg11.dtd"><svg width="100%" height="100%" viewBox="0 0 242 341" version="1.1" xmlns="http://www.w3.org/2000/svg" xmlns:xlink="http://www.w3.org/1999/xlink" xml:space="preserve" xmlns:serif="http://www.serif.com/" style="fill-rule:evenodd;clip-rule:evenodd;stroke-linejoin:round;stroke-miterlimit:2;"><rect id="hx" x="0" y="0.497" width="242" height="340" style="fill:none;"/><path d="M242,20.497c0,-11.039 -8.962,-20 -20,-20l-202,0c-11.038,0 -20,8.961 -20,20l0,300c0,11.038 8.962,20 20,20l202,0c11.038,0 20,-8.962 20,-20l0,-300Z" style="fill:#25c1c4;"/><g id="Layer1"><g><path d="M50.43,166.292l-21.256,5.894c-2.126,-1.268 -4.251,-3.042 -6.377,-5.323c-2.125,-2.282 -3.188,-5.45 -3.188,-9.506c0,-7.605 5.172,-12.928 15.517,-15.97l23.806,-7.224l7.865,0c6.094,0 10.912,1.584 14.454,4.753c3.543,3.168 5.314,7.478 5.314,12.928l0,99.05c-1.559,0.253 -3.861,0.602 -6.908,1.045c-3.047,0.444 -6.129,0.666 -9.246,0.666c-3.118,0 -5.917,-0.19 -8.396,-0.571c-2.48,-0.38 -4.57,-1.14 -6.271,-2.281c-1.7,-1.141 -3.011,-2.693 -3.932,-4.658c-0.921,-1.964 -1.382,-4.531 -1.382,-7.699l0,-71.104Z" style="fill:#fff;fill-rule:nonzero;"/><path d="M186.043,193.289c0,-11.154 -1.806,-19.772 -5.42,-25.856c-3.613,-6.084 -8.75,-9.126 -15.411,-9.126c-6.66,0 -11.726,3.042 -15.198,9.126c-3.471,6.084 -5.207,14.702 -5.207,25.856c0,11.153 1.736,19.803 5.207,25.95c3.472,6.148 8.538,9.221 15.198,9.221c6.661,0 11.798,-3.073 15.411,-9.221c3.614,-6.147 5.42,-14.797 5.42,-25.95Zm36.348,0c0,9.759 -1.417,18.441 -4.251,26.046c-2.834,7.604 -6.767,13.973 -11.797,19.106c-5.031,5.133 -11.053,9.031 -18.068,11.692c-7.014,2.662 -14.631,3.993 -22.85,3.993c-8.361,0 -16.048,-1.331 -23.063,-3.993c-7.014,-2.661 -13.037,-6.559 -18.067,-11.692c-5.031,-5.133 -8.928,-11.502 -11.691,-19.106c-2.763,-7.605 -4.145,-16.287 -4.145,-26.046c0,-9.76 1.382,-18.41 4.145,-25.951c2.763,-7.541 6.66,-13.879 11.691,-19.012c5.03,-5.133 11.053,-9.03 18.067,-11.692c7.015,-2.661 14.702,-3.992 23.063,-3.992c8.219,0 15.836,1.331 22.85,3.992c7.015,2.662 13.037,6.559 18.068,11.692c5.03,5.133 8.963,11.471 11.797,19.012c2.834,7.541 4.251,16.191 4.251,25.951Z" style="fill:#fff;fill-rule:nonzero;"/></g></g><path d="M114.506,22.751c4.21,-8 12.631,-8 16.842,-4c4.211,4 4.211,12 0,20c-2.948,6 -10.526,12 -16.842,16c-6.316,-4 -13.895,-10 -16.842,-16c-4.211,-8 -4.211,-16 0,-20c4.21,-4 12.631,-4 16.842,4Z" style="fill:#fff;"/></svg>