<?xml version="1.0" encoding="UTF-8" standalone="no"?><!DOCTYPE svg PUBLIC "-//W3C//DTD SVG 1.1//EN" "http://www.w3.org/Graphics/SVG/1.1/DTD/svg11.dtd"><svg width="100%" height="100%" viewBox="0 0 241 360" version="1.1" xmlns="http://www.w3.org/2000/svg" xmlns:xlink="http://www.w3.org/1999/xlink" xml:space="preserve" xmlns:serif="http://www.serif.com/" style="fill-rule:evenodd;clip-rule:evenodd;stroke-linejoin:round;stroke-miterlimit:2;"><rect id="j1" x="0.493" y="0" width="240" height="360" style="fill:none;"/><clipPath id="_clip1"><rect x="0.493" y="0" width="240" height="360"/></clipPath><g clip-path="url(#_clip1)"><rect x="0.493" y="0" width="240" height="360" style="fill:#f939ab;"/><g><path d="M206.057,161.585l-7.812,0c-10.417,0 -16.741,-1.86 -20.833,-2.976c1.86,-6.324 7.068,-18.229 14.137,-27.529l3.72,-4.837l-5.953,-1.116c-3.72,-0.372 -7.068,-0.744 -10.788,-0.744c-8.556,0 -17.113,0.744 -21.949,2.233c-0.372,-4.837 -2.604,-14.137 -2.604,-24.554l0,-3.72l-3.72,0c-9.301,0 -23.437,10.417 -29.39,14.881c-6.324,-5.952 -20.833,-18.973 -29.761,-18.973l-0.372,0.372l-3.72,0l0,3.72c0,11.533 -1.86,21.205 -2.976,26.041c-5.581,-0.372 -16.741,0 -29.018,-2.604l-5.208,-1.116l0.744,5.208c2.604,15.997 8.184,27.53 11.905,33.482c-5.953,1.86 -13.393,6.324 -23.81,14.137l-3.72,3.348l4.092,2.976c5.953,4.092 10.045,7.068 13.393,9.3c3.72,2.233 3.72,3.721 6.696,6.325c-8.184,7.44 -14.88,11.532 -15.252,11.532l-4.837,2.976l5.209,3.349l16.74,9.672c-0.372,2.232 -1.488,5.952 -2.604,14.509l-1.116,5.952c0,0 22.321,-3.72 33.482,-11.161l59.523,0c3.348,1.489 14.88,11.161 25.297,11.161l4.464,0l-1.116,-4.464c-1.488,-6.325 -2.232,-10.045 -2.604,-12.277c5.208,-3.348 20.089,-12.648 23.809,-20.461l2.232,-3.72l-4.092,-1.116c-4.092,-1.116 -9.673,-3.72 -12.649,-5.952c5.209,-4.837 13.393,-15.253 18.601,-28.274l1.86,-5.58Z" style="fill:#81d4fa;fill-rule:nonzero;"/><path d="M161.415,195.067c-8.163,0 -14.881,6.717 -14.881,14.88c0,8.164 6.718,14.881 14.881,14.881c8.163,0 14.881,-6.717 14.881,-14.881c0,-8.163 -6.718,-14.88 -14.881,-14.88Zm-81.844,0c-8.163,0 -14.88,6.717 -14.88,14.88c0,8.164 6.717,14.881 14.88,14.881c8.164,0 14.881,-6.717 14.881,-14.881c0,-8.163 -6.717,-14.88 -14.881,-14.88Z" style="fill:#bcaaa4;fill-rule:nonzero;"/><path d="M120.493,131.824c-22.693,0 -40.922,20.089 -40.922,49.106l0,35.342c0,29.389 18.229,49.478 40.922,49.478c22.693,0 40.922,-20.089 40.922,-49.106l0,-35.342c0,-29.389 -18.229,-49.478 -40.922,-49.478Z" style="fill:#d7ccc8;fill-rule:nonzero;"/><path d="M127.934,228.548l-26.042,0l0,3.348c0,4.465 1.86,9.301 5.953,10.045c0.372,4.464 2.604,8.928 7.068,8.928c4.464,0 6.696,-4.464 7.44,-8.928c2.604,-0.744 5.581,-3.348 5.581,-10.045l0,-3.348Z" style="fill:#43a047;fill-rule:nonzero;"/><path d="M94.452,235.989c-1.488,0 -2.976,-1.116 -3.348,-2.605c-0.744,-1.86 0.372,-4.092 2.232,-4.836c0.372,0 11.905,-4.092 27.157,-4.092c15.253,0 26.785,3.72 27.158,4.092c1.86,0.744 2.976,2.604 2.232,4.836c-0.744,1.861 -2.605,2.977 -4.837,2.233c0,0 -10.788,-3.349 -24.925,-3.349c-14.136,0 -24.925,3.349 -24.925,3.349c0,0.372 -0.372,0.372 -0.744,0.372Z" style="fill:#8d6e63;fill-rule:nonzero;"/><path d="M113.053,187.626l0,16.741c0,4.092 0.372,16.741 7.44,16.741c7.069,0 7.441,-12.649 7.441,-16.741l0,-16.741l-14.881,0Z" style="fill:#efebe9;fill-rule:nonzero;"/><path d="M137.234,169.025c-9.184,0 -16.741,7.558 -16.741,16.741c0,9.184 7.557,16.741 16.741,16.741c9.184,0 16.741,-7.557 16.741,-16.741c0,-9.183 -7.557,-16.741 -16.741,-16.741Z" style="fill:#fafafa;fill-rule:nonzero;"/><path d="M103.752,169.025c-9.183,0 -16.74,7.558 -16.74,16.741c0,9.184 7.557,16.741 16.74,16.741c9.184,0 16.741,-7.557 16.741,-16.741c0,-9.183 -7.557,-16.741 -16.741,-16.741Z" style="fill:#fafafa;fill-rule:nonzero;"/><path d="M139.094,180.186c-2.041,0 -3.72,1.679 -3.72,3.72c0,2.041 1.679,3.72 3.72,3.72c2.041,0 3.72,-1.679 3.72,-3.72c0,-2.041 -1.679,-3.72 -3.72,-3.72Zm-37.202,3.72c-2.04,0 -3.72,1.68 -3.72,3.72c0,2.041 1.68,3.721 3.72,3.721c2.041,0 3.721,-1.68 3.721,-3.721c0,-2.04 -1.68,-3.72 -3.721,-3.72Z" style="fill:#212121;fill-rule:nonzero;"/><path d="M120.493,172.746c-5.208,0 -9.672,-1.116 -13.764,-2.232c-1.86,-0.372 -4.093,-1.116 -5.581,-1.116c-5.952,-0.745 -9.672,0 -9.672,0c-1.86,0.372 -4.092,-0.745 -4.464,-2.605c-0.372,-1.86 0.744,-3.72 2.604,-4.464c0.372,0 5.208,-1.116 12.648,0c1.86,0.372 4.093,0.744 6.325,1.488c3.72,1.116 7.44,1.86 11.532,1.86c4.092,0 7.813,-1.116 11.533,-1.86c2.232,-0.744 4.464,-1.116 6.324,-1.488c7.44,-1.116 12.277,0 12.649,0c1.86,0.372 3.348,2.232 2.604,4.464c-0.372,1.86 -2.604,2.977 -4.464,2.605c0,0 -3.721,-0.745 -9.673,0c-1.488,0.372 -3.348,0.744 -5.58,1.116c-3.348,1.116 -7.813,2.232 -13.021,2.232Z" style="fill:#64b5f6;fill-rule:nonzero;"/></g><g id="Layer1"></g></g></svg>