<?xml version="1.0" encoding="UTF-8" standalone="no"?><!DOCTYPE svg PUBLIC "-//W3C//DTD SVG 1.1//EN" "http://www.w3.org/Graphics/SVG/1.1/DTD/svg11.dtd"><svg width="100%" height="100%" viewBox="0 0 241 361" version="1.1" xmlns="http://www.w3.org/2000/svg" xmlns:xlink="http://www.w3.org/1999/xlink" xml:space="preserve" xmlns:serif="http://www.serif.com/" style="fill-rule:evenodd;clip-rule:evenodd;stroke-linejoin:round;stroke-miterlimit:2;"><rect id="j2" x="0.493" y="0.074" width="240" height="360" style="fill:none;"/><clipPath id="_clip1"><rect x="0.493" y="0.074" width="240" height="360"/></clipPath><g clip-path="url(#_clip1)"><rect x="0.493" y="0.074" width="240" height="360" style="fill:#fff400;"/><g id="Layer1"></g><path d="M120.493,105.574c38.276,0 69.303,31.027 69.303,69.303c0,38.275 -31.027,69.302 -69.303,69.302c-38.275,0 -69.302,-31.027 -69.302,-69.302c0,-20.791 10.395,-27.721 10.395,-27.721c6.931,-31.186 30.448,-41.582 58.907,-41.582Z" style="fill:#6d4c41;fill-rule:nonzero;"/><path d="M170.737,192.202c-8.554,0 -15.593,7.039 -15.593,15.593c0,8.554 7.039,15.593 15.593,15.593c8.555,0 15.593,-7.039 15.593,-15.593c0,-8.554 -7.038,-15.593 -15.593,-15.593Zm-100.488,0c-8.554,0 -15.593,7.039 -15.593,15.593c0,8.554 7.039,15.593 15.593,15.593c8.554,0 15.593,-7.039 15.593,-15.593c0,-8.554 -7.039,-15.593 -15.593,-15.593Z" style="fill:#ffd391;fill-rule:nonzero;"/><path d="M120.493,136.76c-32.315,0 -58.907,26.592 -58.907,58.907c0,32.316 26.592,58.907 58.907,58.907c32.316,0 58.907,-26.591 58.907,-58.907c0,-32.315 -26.591,-58.907 -58.907,-58.907Z" style="fill:#ffd391;fill-rule:nonzero;"/><path d="M134.128,235.26c-1.081,-3.926 -6.75,-8.407 -13.635,-8.407c-6.885,0 -12.554,4.481 -13.635,8.407c-0.135,0.409 -0.225,0.842 -0.225,1.296c0,2.297 1.861,4.158 4.158,4.158c2.772,0 4.158,-3.465 9.702,-3.465c5.544,0 6.93,3.465 9.703,3.465c2.297,0 4.158,-1.861 4.158,-4.158c0,-0.454 -0.09,-0.887 -0.226,-1.296Z" style="fill:#bf360c;fill-rule:nonzero;"/><path d="M125.379,217.879c-1.351,1.351 -3.119,2.044 -4.886,2.044c-1.767,0 -3.534,-0.693 -4.886,-2.044l-5.197,-5.198l9.771,-9.772l5.198,5.198c2.738,2.703 2.738,7.069 0,9.772Z" style="fill:#fcf5ea;fill-rule:nonzero;"/><path d="M148.214,171.411c-11.405,0 -20.791,9.386 -20.791,20.791c0,11.406 9.386,20.791 20.791,20.791c11.406,0 20.791,-9.385 20.791,-20.791c0,-11.405 -9.385,-20.791 -20.791,-20.791Zm-55.442,0c-11.405,0 -20.79,9.386 -20.79,20.791c0,11.406 9.385,20.791 20.79,20.791c11.406,0 20.791,-9.385 20.791,-20.791c0,-11.405 -9.385,-20.791 -20.791,-20.791Z" style="fill:#fafafa;fill-rule:nonzero;"/><path d="M148.214,192.202c-1.901,0 -3.465,1.564 -3.465,3.465c0,1.901 1.564,3.465 3.465,3.465c1.901,0 3.465,-1.564 3.465,-3.465c0,-1.901 -1.564,-3.465 -3.465,-3.465Zm-55.442,0c-1.901,0 -3.465,1.564 -3.465,3.465c0,1.901 1.564,3.465 3.465,3.465c1.901,0 3.465,-1.564 3.465,-3.465c0,-1.901 -1.564,-3.465 -3.465,-3.465Z" style="fill:#212121;fill-rule:nonzero;"/></g></svg>