<svg xmlns="http://www.w3.org/2000/svg" viewBox="0 0 242 340">
  <rect width="242" height="340" rx="20" fill="#fff"/>
  <g transform="translate(72 86)">
    <path d="M22.542 47.1h38.835v3.048s-10.163-.31-10.114 7.01.049 48.07.049 82.012c-.049 18.152-4.649 24.686-20.122 29.428-2.783.662-10.145.43-18.316 0-4.934-1.26-7.289-2.698-7.289-7.866.594-4.76 6.645-4.76 6.645-4.76s6.482-.151 8.833 5.6a17.968 17.968 0 007.942 0s5.952-4.175 5.87-9.624-.083-94.794-.083-94.794 0-7.01-12.25-7.01z"/>
    <path d="M21.519 43.445c19.919-2.267 42.654 0 42.654 0s6.415-11.55 13.024-11.967 18.924 14.3 18.924 14.3-4.336-20.473-13.951-24.667-19.162-3.9-28.231 2.41c-6.431-12.377 3.91-15.655 13.584-12.258 0-1.42-10.229-10.732-22.166-10.446S27.888 15.111 27.639 23.294c-9.776.227-31.115-7.691-23.853 27.023 4.517-4.54 5.969-22.529 17.733-6.872z"/>
    <ellipse cx="3.472" cy="4.18" rx="3.472" ry="4.18" transform="translate(66.667 8.361)" fill="#db362a"/>
    <ellipse cx="3.472" cy="4.18" rx="3.472" ry="4.18" transform="translate(93.056 41.803)" fill="#db362a"/>
    <ellipse cx="3.472" cy="4.18" rx="3.472" ry="4.18" transform="translate(0 48.77)" fill="#db362a"/>
  </g>
  <text transform="translate(20 35)" font-size="20" font-family="Helvetica">
    <tspan x="0" y="0">J</tspan><tspan x="0" y="24">O</tspan><tspan x="0" y="48">K</tspan><tspan x="0" y="72">E</tspan><tspan x="0" y="96">R</tspan>
  </text>
  <text transform="rotate(180 111 152.5)" font-size="20" font-family="Helvetica">
    <tspan x="0" y="0">J</tspan><tspan x="0" y="24">O</tspan><tspan x="0" y="48">K</tspan><tspan x="0" y="72">E</tspan><tspan x="0" y="96">R</tspan>
  </text>
</svg>
