<?xml version="1.0" encoding="UTF-8" standalone="no"?><!DOCTYPE svg PUBLIC "-//W3C//DTD SVG 1.1//EN" "http://www.w3.org/Graphics/SVG/1.1/DTD/svg11.dtd"><svg width="100%" height="100%" viewBox="0 0 1013 1421" version="1.1" xmlns="http://www.w3.org/2000/svg" xmlns:xlink="http://www.w3.org/1999/xlink" xml:space="preserve" xmlns:serif="http://www.serif.com/" style="fill-rule:evenodd;clip-rule:evenodd;stroke-linejoin:round;stroke-miterlimit:2;"><rect id="p3" x="0.549" y="-6.462" width="1008.33" height="1416.67" style="fill:none;"/><path d="M1008.88,76.871c0,-45.993 -37.34,-83.333 -83.333,-83.333l-841.667,0c-45.993,0 -83.333,37.34 -83.333,83.333l0,1250c0,45.993 37.34,83.334 83.333,83.334l841.667,0c45.993,0 83.333,-37.341 83.333,-83.334l0,-1250Z" style="fill:#25c462;"/><g id="Layer1"></g><path d="M492.759,519.341c67.901,0 119.565,12.542 154.992,37.627c35.427,25.085 53.14,58.751 53.14,100.999c0,25.349 -7.528,46.869 -22.585,64.56c-15.056,17.691 -32.917,31.026 -53.582,40.004c12.399,4.224 23.913,9.505 34.541,15.842c10.628,6.338 20.075,14.259 28.341,23.765c8.266,9.506 14.761,20.596 19.485,33.27c4.723,12.675 7.085,27.461 7.085,44.36c0,22.709 -5.462,43.041 -16.385,60.996c-10.923,17.955 -26.127,33.27 -45.612,45.944c-19.484,12.675 -42.659,22.313 -69.525,28.914c-26.865,6.601 -56.239,9.902 -88.123,9.902c-61.407,0 -107.757,-7.658 -139.05,-22.973c-31.294,-15.314 -46.941,-34.854 -46.941,-58.619c0,-14.258 3.838,-26.536 11.514,-36.834c7.676,-10.298 17.123,-18.352 28.341,-24.161c11.809,7.393 27.604,15.183 47.384,23.368c19.78,8.186 45.612,12.279 77.496,12.279c30.112,0 52.401,-4.753 66.867,-14.259c14.466,-9.506 21.699,-21.916 21.699,-37.231c0,-15.315 -5.757,-26.933 -17.27,-34.854c-11.514,-7.922 -31.441,-11.883 -59.783,-11.883l-83.252,0c-4.134,-5.809 -7.676,-12.938 -10.628,-21.388c-2.953,-8.449 -4.429,-18.483 -4.429,-30.101c0,-12.147 1.329,-22.577 3.986,-31.29c2.657,-8.714 6.347,-15.975 11.071,-21.784l83.252,0c42.512,0 63.768,-14.523 63.768,-43.568c0,-13.731 -6.79,-24.821 -20.37,-33.271c-13.58,-8.449 -33.951,-12.674 -61.111,-12.674c-24.208,0 -45.464,2.508 -63.768,7.525c-18.304,5.017 -33.36,11.222 -45.169,18.616c-10.038,-6.337 -18.304,-14.127 -24.799,-23.368c-6.495,-9.242 -9.742,-20.2 -9.742,-32.875c0,-26.405 15.351,-45.812 46.055,-58.223c30.703,-12.41 71.739,-18.615 123.107,-18.615Z" style="fill:#fff;fill-rule:nonzero;"/><path d="M543.168,178.181c31.659,0.354 51.135,-19.794 40.422,-41.002c-10.713,-21.208 -21.392,-25.98 -38.209,-41.356c-16.824,-15.375 -41.289,-41.974 -41.174,-48.248c0.124,6.274 -23.333,32.873 -40.158,48.248c-16.816,15.376 -27.488,20.148 -38.208,41.356c-10.713,21.208 8.771,41.356 40.422,41.002c21.731,-0.243 31.51,-12.643 35.5,-20.396l0,10.147c0,0 -6.938,36.6 -55.901,40.607l-7.806,0l0,5.703l133.326,0l0,-5.703l-7.813,0c-48.955,-4.007 -55.901,-40.607 -55.901,-40.607l0,-8.815c4.7,7.762 14.975,18.835 35.5,19.064" style="fill:#fff;fill-rule:nonzero;"/></svg>