<?xml version="1.0" encoding="UTF-8" standalone="no"?><!DOCTYPE svg PUBLIC "-//W3C//DTD SVG 1.1//EN" "http://www.w3.org/Graphics/SVG/1.1/DTD/svg11.dtd"><svg width="100%" height="100%" viewBox="0 0 241 360" version="1.1" xmlns="http://www.w3.org/2000/svg" xmlns:xlink="http://www.w3.org/1999/xlink" xml:space="preserve" xmlns:serif="http://www.serif.com/" style="fill-rule:evenodd;clip-rule:evenodd;stroke-linejoin:round;stroke-miterlimit:2;"><rect id="p4" x="0.232" y="0" width="240" height="360" style="fill:none;"/><clipPath id="_clip1"><rect x="0.232" y="0" width="240" height="360"/></clipPath><g clip-path="url(#_clip1)"><g id="Layer1"><g><path d="M240.232,30c0,-16.557 -13.442,-30 -30,-30l-180,0c-16.557,0 -30,13.443 -30,30l0,300c0,16.557 13.443,30 30,30l180,0c16.558,0 30,-13.443 30,-30l0,-300Z" style="fill:#25c462;"/></g></g><path d="M129.461,44.314c7.598,0.085 12.272,-4.75 9.701,-9.84c-2.571,-5.09 -5.134,-6.235 -9.17,-9.926c-4.038,-3.69 -9.909,-10.073 -9.882,-11.579c0.03,1.506 -5.6,7.889 -9.638,11.579c-4.036,3.691 -6.597,4.836 -9.17,9.926c-2.571,5.09 2.106,9.925 9.702,9.84c5.215,-0.058 7.562,-3.034 8.52,-4.895l0,2.436c0,0 -1.666,8.784 -13.417,9.745l-1.873,0l0,1.369l31.998,0l0,-1.369l-1.875,0c-11.749,-0.961 -13.416,-9.745 -13.416,-9.745l0,-2.116c1.128,1.863 3.594,4.52 8.52,4.575" style="fill:#fff;fill-rule:nonzero;"/><path d="M114.918,130.375c2.693,-0.76 5.775,-1.394 9.247,-1.901c3.472,-0.507 6.624,-0.76 9.459,-0.76c3.259,0 6.412,0.285 9.459,0.855c3.046,0.571 5.774,1.521 8.183,2.852c2.409,1.331 4.322,3.137 5.739,5.418c1.417,2.282 2.126,5.133 2.126,8.555l0,50.571l18.918,0c0.85,1.394 1.7,3.232 2.55,5.514c0.851,2.281 1.276,4.689 1.276,7.224c0,4.816 -1.205,8.238 -3.614,10.266c-2.409,2.028 -5.455,3.042 -9.14,3.042l-9.99,0l0,22.434c-1.559,0.253 -3.897,0.602 -7.015,1.045c-3.117,0.444 -6.093,0.666 -8.927,0.666c-3.118,0 -5.881,-0.127 -8.29,-0.381c-2.409,-0.253 -4.428,-0.855 -6.058,-1.806c-1.63,-0.95 -2.87,-2.313 -3.72,-4.087c-0.85,-1.775 -1.275,-4.183 -1.275,-7.225l0,-10.646l-53.353,0c-3.259,-1.521 -6.058,-3.771 -8.396,-6.749c-2.338,-2.979 -3.507,-6.622 -3.507,-10.932c0,-2.408 0.354,-5.07 1.063,-7.985c0.708,-2.915 1.913,-5.45 3.613,-7.604l51.652,-58.366Zm10.841,29.848l-0.638,0l-28.27,35.742l28.908,0l0,-35.742Z" style="fill:#fff;fill-rule:nonzero;"/></g></svg>