<svg xmlns="http://www.w3.org/2000/svg" viewBox="0 0 242 340">
  <rect width="242" height="340" rx="20" fill="#fff"/>
  <path d="M171.466 281.53c6.559.073 10.593-4.1 8.374-8.494s-4.432-5.383-7.915-8.563-8.554-8.7-8.53-10c.026 1.3-4.834 6.81-8.319 10s-5.695 4.169-7.916 8.562 1.817 8.568 8.374 8.495a7.846 7.846 0 007.354-4.225v2.1s-1.441 7.583-11.58 8.414h-1.617v1.182h27.62v-1.182h-1.619c-10.145-.831-11.58-8.413-11.58-8.413v-1.826a8.231 8.231 0 007.354 3.949M83.466 281.53c6.559.073 10.593-4.1 8.374-8.494s-4.432-5.383-7.915-8.563-8.554-8.7-8.53-10c.026 1.3-4.834 6.81-8.319 10s-5.695 4.169-7.916 8.562 1.817 8.568 8.374 8.495a7.846 7.846 0 007.354-4.225v2.1s-1.441 7.583-11.58 8.414h-1.617v1.182h27.62v-1.182h-1.619c-10.145-.831-11.58-8.413-11.58-8.413v-1.826a8.231 8.231 0 007.354 3.949M83.466 181.53c6.559.073 10.593-4.1 8.374-8.494s-4.432-5.383-7.915-8.563-8.554-8.7-8.53-10c.026 1.3-4.834 6.81-8.319 10s-5.695 4.169-7.916 8.562 1.817 8.568 8.374 8.495a7.846 7.846 0 007.354-4.225v2.1s-1.441 7.583-11.58 8.414h-1.617v1.182h27.62v-1.182h-1.619c-10.145-.831-11.58-8.413-11.58-8.413v-1.826a8.231 8.231 0 007.354 3.949M171.466 181.53c6.559.073 10.593-4.1 8.374-8.494s-4.432-5.383-7.915-8.563-8.554-8.7-8.53-10c.026 1.3-4.834 6.81-8.319 10s-5.695 4.169-7.916 8.562 1.817 8.568 8.374 8.495a7.846 7.846 0 007.354-4.225v2.1s-1.441 7.583-11.58 8.414h-1.617v1.182h27.62v-1.182h-1.619c-10.145-.831-11.58-8.413-11.58-8.413v-1.826a8.231 8.231 0 007.354 3.949M171.466 81.53c6.559.073 10.593-4.1 8.374-8.494s-4.432-5.383-7.915-8.563-8.554-8.7-8.53-10c.026 1.3-4.834 6.81-8.319 10s-5.695 4.169-7.916 8.562 1.817 8.568 8.374 8.495a7.846 7.846 0 007.354-4.225v2.1s-1.441 7.583-11.58 8.414h-1.617v1.182h27.62v-1.182h-1.619c-10.145-.831-11.58-8.413-11.58-8.413V77.58a8.231 8.231 0 007.354 3.949M83.466 81.53c6.559.073 10.593-4.1 8.374-8.494s-4.432-5.383-7.915-8.563-8.554-8.7-8.53-10c.026 1.3-4.834 6.81-8.319 10s-5.695 4.169-7.916 8.562 1.817 8.568 8.374 8.495a7.846 7.846 0 007.354-4.225v2.1s-1.441 7.583-11.58 8.414h-1.617v1.182h27.62v-1.182h-1.619c-10.145-.831-11.58-8.413-11.58-8.413V77.58a8.231 8.231 0 007.354 3.949M30.169 79.391c4.164.046 6.726-2.591 5.317-5.366s-2.814-3.4-5.026-5.412-5.431-5.493-5.413-6.314c.016.821-3.069 4.3-5.282 6.314s-3.618 2.637-5.029 5.412 1.154 5.412 5.317 5.366a4.984 4.984 0 004.669-2.669v1.328s-.913 4.79-7.353 5.314h-1.022v.746H33.88v-.746h-1.033c-6.439-.524-7.353-5.314-7.353-5.314v-1.151a5.231 5.231 0 004.669 2.495M211.831 262.609c-4.164-.046-6.726 2.591-5.317 5.366s2.814 3.4 5.026 5.412 5.431 5.493 5.413 6.314c-.016-.821 3.069-4.3 5.282-6.314s3.618-2.637 5.029-5.412-1.154-5.412-5.317-5.366a4.984 4.984 0 00-4.669 2.669v-1.328s.913-4.79 7.353-5.314h1.022v-.746H208.12v.746h1.033c6.439.524 7.353 5.314 7.353 5.314v1.151a5.231 5.231 0 00-4.669-2.495" fill="#1a1919"/>
  <text transform="translate(10 32)" font-size="20" font-family="Helvetica">
    <tspan x="0" y="15">6</tspan>
  </text>
  <g>
    <text transform="rotate(180 114 155)" font-size="20" font-family="Helvetica">
      <tspan x="0" y="15">6</tspan>
    </text>
  </g>
</svg>
