<?xml version="1.0" encoding="UTF-8" standalone="no"?><!DOCTYPE svg PUBLIC "-//W3C//DTD SVG 1.1//EN" "http://www.w3.org/Graphics/SVG/1.1/DTD/svg11.dtd"><svg width="100%" height="100%" viewBox="0 0 241 360" version="1.1" xmlns="http://www.w3.org/2000/svg" xmlns:xlink="http://www.w3.org/1999/xlink" xml:space="preserve" xmlns:serif="http://www.serif.com/" style="fill-rule:evenodd;clip-rule:evenodd;stroke-linejoin:round;stroke-miterlimit:2;"><rect id="p7" x="0.465" y="0" width="240" height="360" style="fill:none;"/><clipPath id="_clip1"><rect x="0.465" y="0" width="240" height="360"/></clipPath><g clip-path="url(#_clip1)"><rect x="0.465" y="0" width="240" height="360" style="fill:#25c462;"/><g id="Layer1"></g><path d="M129.693,44.314c7.598,0.085 12.273,-4.75 9.702,-9.84c-2.571,-5.09 -5.135,-6.235 -9.171,-9.926c-4.037,-3.69 -9.909,-10.073 -9.881,-11.579c0.029,1.506 -5.6,7.889 -9.638,11.579c-4.036,3.691 -6.597,4.836 -9.17,9.926c-2.571,5.09 2.105,9.925 9.701,9.84c5.215,-0.058 7.562,-3.034 8.52,-4.895l0,2.436c0,0 -1.665,8.784 -13.416,9.745l-1.874,0l0,1.369l31.999,0l0,-1.369l-1.876,0c-11.749,-0.961 -13.416,-9.745 -13.416,-9.745l0,-2.116c1.128,1.863 3.594,4.52 8.52,4.575" style="fill:#fff;fill-rule:nonzero;"/><path d="M158.513,129.044c2.409,1.395 4.57,3.327 6.483,5.799c1.913,2.471 2.87,5.545 2.87,9.221c0,2.027 -0.213,4.087 -0.638,6.178c-0.425,2.092 -1.134,4.151 -2.126,6.179l-44.212,89.545c-1.984,0.126 -3.862,0.19 -5.633,0.19l-4.995,0c-6.377,0 -11.549,-1.078 -15.517,-3.232c-3.968,-2.155 -5.952,-5.894 -5.952,-11.217c0,-2.662 0.709,-5.545 2.126,-8.65c1.417,-3.106 3.33,-6.813 5.739,-11.122l31.034,-56.845l-52.077,0c-0.851,-1.394 -1.701,-3.232 -2.551,-5.513c-0.85,-2.281 -1.276,-4.69 -1.276,-7.224c0,-4.817 1.205,-8.239 3.614,-10.267c2.409,-2.028 5.456,-3.042 9.14,-3.042l73.971,0Z" style="fill:#fff;fill-rule:nonzero;"/></g></svg>