<?xml version="1.0" encoding="UTF-8" standalone="no"?><!DOCTYPE svg PUBLIC "-//W3C//DTD SVG 1.1//EN" "http://www.w3.org/Graphics/SVG/1.1/DTD/svg11.dtd"><svg width="100%" height="100%" viewBox="0 0 240 360" version="1.1" xmlns="http://www.w3.org/2000/svg" xmlns:xlink="http://www.w3.org/1999/xlink" xml:space="preserve" xmlns:serif="http://www.serif.com/" style="fill-rule:evenodd;clip-rule:evenodd;stroke-linejoin:round;stroke-miterlimit:2;"><rect id="pa" x="0" y="0" width="240" height="360" style="fill:none;"/><clipPath id="_clip1"><rect x="0" y="0" width="240" height="360"/></clipPath><g clip-path="url(#_clip1)"><rect x="0" y="0" width="240" height="360" style="fill:#25c462;"/><g id="Layer1"></g><path d="M161.067,230.487c33.812,0.378 54.612,-21.141 43.171,-43.79c-11.441,-22.651 -22.847,-27.747 -40.807,-44.168c-17.969,-16.422 -44.097,-44.829 -43.974,-51.529c0.132,6.7 -24.92,35.107 -42.889,51.529c-17.96,16.421 -29.357,21.517 -40.807,44.168c-11.441,22.649 9.368,44.168 43.171,43.79c23.209,-0.259 33.653,-13.503 37.914,-21.783l0,10.837c0,0 -7.41,39.089 -59.702,43.368l-8.336,0l0,6.091l142.392,0l0,-6.091l-8.345,0c-52.283,-4.279 -59.702,-43.368 -59.702,-43.368l0,-9.414c5.019,8.289 15.993,20.115 37.914,20.36" style="fill:#fff;fill-rule:nonzero;"/></g></svg>