<?xml version="1.0" encoding="UTF-8" standalone="no"?><!DOCTYPE svg PUBLIC "-//W3C//DTD SVG 1.1//EN" "http://www.w3.org/Graphics/SVG/1.1/DTD/svg11.dtd"><svg width="100%" height="100%" viewBox="0 0 241 360" version="1.1" xmlns="http://www.w3.org/2000/svg" xmlns:xlink="http://www.w3.org/1999/xlink" xml:space="preserve" xmlns:serif="http://www.serif.com/" style="fill-rule:evenodd;clip-rule:evenodd;stroke-linejoin:round;stroke-miterlimit:2;"><rect id="pj" x="0.774" y="0" width="240" height="360" style="fill:none;"/><clipPath id="_clip1"><rect x="0.774" y="0" width="240" height="360"/></clipPath><g clip-path="url(#_clip1)"><g id="Layer1"><g id="Green_Background"><path d="M240.774,30c0,-16.557 -13.442,-30 -30,-30l-180,0c-16.557,0 -30,13.443 -30,30l0,300c0,16.557 13.443,30 30,30l180,0c16.558,0 30,-13.443 30,-30l0,-300Z" style="fill:#25c462;"/></g></g><path d="M130.003,44.314c7.598,0.085 12.272,-4.75 9.701,-9.84c-2.571,-5.09 -5.134,-6.235 -9.17,-9.926c-4.038,-3.69 -9.909,-10.073 -9.882,-11.579c0.03,1.506 -5.6,7.889 -9.637,11.579c-4.036,3.691 -6.598,4.836 -9.171,9.926c-2.571,5.09 2.106,9.925 9.702,9.84c5.215,-0.058 7.562,-3.034 8.52,-4.895l0,2.436c0,0 -1.665,8.784 -13.416,9.745l-1.874,0l0,1.369l31.999,0l0,-1.369l-1.876,0c-11.749,-0.961 -13.416,-9.745 -13.416,-9.745l0,-2.116c1.128,1.863 3.594,4.52 8.52,4.575" style="fill:#fff;fill-rule:nonzero;"/><g><path d="M108.613,258.581c-42.445,0 -78.424,47.391 -82.942,92.096l163.494,0c-4.239,-44.705 -38.117,-92.096 -80.552,-92.096" style="fill:#e34e45;fill-rule:nonzero;"/><path d="M25.19,360l179.463,0l0.707,-9.323l-179.643,0c-0.345,3.131 -0.527,6.237 -0.527,9.323Z" style="fill:#775b35;fill-rule:nonzero;"/><path d="M148.023,278.448c0,13.657 -17.464,24.739 -39.007,24.739c-21.544,0 -39.008,-11.082 -39.008,-24.739c0,-13.666 17.464,-24.744 39.008,-24.744c21.543,0 39.007,11.078 39.007,24.744" style="fill:#775b35;fill-rule:nonzero;"/><path d="M205.4,269.285c0,-10.893 -8.909,-19.721 -19.899,-19.721c-10.99,0 -19.896,8.828 -19.896,19.721l0,1.912l39.795,0l0,-1.912" style="fill:#f1d2ac;fill-rule:nonzero;"/><rect x="165.605" y="270.065" width="39.795" height="9.836" style="fill:#775b35;"/><rect x="165.605" y="279.901" width="39.795" height="70.776" style="fill:#e34e45;"/><path d="M173.603,212.201c0,37.162 -29.244,76.464 -65.314,76.464c-36.073,0 -65.317,-39.302 -65.317,-76.464c0,-37.159 5.084,-73.723 65.317,-73.723c65.314,0 65.314,36.564 65.314,73.723" style="fill:#f1d2ac;fill-rule:nonzero;"/><path d="M42.972,212.201c21.158,-2.425 33.157,-26.116 41.905,-32.71c6.093,-4.59 10.084,-3.464 13.924,-0.703c13.519,9.719 42.639,21.689 51.163,25.072c8.525,3.383 6.908,-0.48 13.688,-1.648c6.78,-1.17 8.11,14.453 9.951,14.213c5.321,-0.7 2.728,-18.481 2.144,-26.522c-2.144,-16.469 -12.159,-60.136 -67.494,-60.136c-55.339,0 -66.105,50.948 -67.574,60.85c-1.459,9.902 -6.029,22.542 2.293,21.584" style="fill:#775b35;fill-rule:nonzero;"/><path d="M195.11,237.997l-16.828,0l0,-82.225c0,-10.001 4.521,-54.105 8.957,-54.105c4.434,0 7.871,44.567 7.871,53.694l0,82.636" style="fill:#ccc;fill-rule:nonzero;"/><path d="M195.809,274.144c0,5.013 -4.106,9.086 -9.172,9.086c-5.067,0 -9.17,-4.073 -9.17,-9.086l0,-21.926c0,-5.016 4.103,-9.086 9.17,-9.086c5.066,0 9.172,4.07 9.172,9.086l0,21.926" style="fill:#775b35;fill-rule:nonzero;"/><path d="M216.359,244.393c0,4.847 -3.967,8.776 -8.857,8.776l-41.724,0c-4.897,0 -8.861,-3.929 -8.861,-8.776c0,-4.848 3.964,-8.777 8.861,-8.777l41.724,0c4.89,0 8.857,3.929 8.857,8.777" style="fill:#efa000;fill-rule:nonzero;"/><path d="M196.948,278.436c0,5.646 -4.615,10.217 -10.311,10.217c-5.693,0 -10.306,-4.571 -10.306,-10.217c0,-5.64 4.613,-10.214 10.306,-10.214c5.696,0 10.311,4.574 10.311,10.214" style="fill:#efa000;fill-rule:nonzero;"/></g></g></svg>