<svg xmlns="http://www.w3.org/2000/svg" viewBox="0 0 242 340">
  <rect width="242" height="340" rx="20" fill="#fff"/>
  <path d="M30.169 79.391c4.164.046 6.726-2.591 5.317-5.366s-2.814-3.4-5.026-5.412-5.431-5.493-5.413-6.314c.016.821-3.069 4.3-5.282 6.314s-3.618 2.637-5.029 5.412 1.154 5.412 5.317 5.366a4.984 4.984 0 004.669-2.669v1.328s-.913 4.79-7.353 5.314h-1.022v.746H33.88v-.746h-1.033c-6.439-.524-7.353-5.314-7.353-5.314v-1.151a5.231 5.231 0 004.669 2.495M210.865 272.335a5.2 5.2 0 001.954-.378 4.814 4.814 0 00-.9 2.8 5.014 5.014 0 005.09 4.936 5.014 5.014 0 005.091-4.938 4.81 4.81 0 00-.822-2.682 5.218 5.218 0 001.635.262 5.014 5.014 0 005.087-4.942 5.014 5.014 0 00-5.087-4.938 5.208 5.208 0 00-1.8.32 7.054 7.054 0 00-3.924 3.369v-1.651a7.126 7.126 0 016.423-5.79h.9v-.81h-15.32v.81h.9a7.127 7.127 0 016.418 5.79v1.544a6.059 6.059 0 00-5.494-3.574h-.151a5.014 5.014 0 00-5.087 4.93 5.014 5.014 0 005.087 4.942z" fill="#1a1919"/>
  <path d="M125.353 222.984c22.593 0 41.744-25.222 44.149-49.022H82.475c2.257 23.8 20.289 49.022 42.878 49.022" fill="#e34e45"/>
  <path d="M169.758 169H74.249l-.379 4.962h95.609a45.547 45.547 0 00.279-4.962zM104.375 212.409c0-7.268 9.3-13.168 20.763-13.168s20.764 5.9 20.764 13.168-9.296 13.172-20.764 13.172-20.763-5.897-20.763-13.172" fill="#775b35"/>
  <path d="M73.834 217.288a10.592 10.592 0 0021.183 0v-1.018H73.834v1.018" fill="#f1d2ac"/>
  <path d="M73.834 216.872h21.183v-5.236H73.834z" fill="#775b35"/>
  <path d="M73.834 211.636h21.183v-37.674H73.834z" fill="#e34e45"/>
  <path d="M90.759 247.671c0-19.78 15.567-40.7 34.766-40.7s34.768 20.92 34.768 40.7-2.706 39.244-34.768 39.244c-34.766 0-34.766-19.463-34.766-39.244" fill="#f1d2ac"/>
  <path d="M160.293 247.672c-11.262 1.291-17.649 13.902-22.306 17.412-3.243 2.443-5.368 1.844-7.412.374-7.2-5.173-22.7-11.545-27.234-13.346s-3.677.256-7.286.877-4.316-7.692-5.296-7.566c-2.832.374-1.451 9.839-1.141 14.119 1.141 8.767 6.472 32.01 35.927 32.01s35.187-27.119 35.969-32.39 3.209-12-1.22-11.489" fill="#775b35"/>
  <path d="M79.311 233.942h8.958v43.767c0 5.324-2.407 28.8-4.768 28.8s-4.19-23.722-4.19-28.581v-43.986" fill="#ccc"/>
  <path d="M78.939 214.7a4.882 4.882 0 019.764 0v11.671a4.882 4.882 0 01-9.764 0V214.7" fill="#775b35"/>
  <path d="M68 230.537a4.694 4.694 0 014.715-4.672h22.209a4.672 4.672 0 110 9.343H72.715A4.694 4.694 0 0168 230.537M78.333 212.416a5.487 5.487 0 115.489 5.437 5.462 5.462 0 01-5.489-5.437" fill="#efa000"/>
  <g>
    <path d="M118.647 115.016c-22.593 0-41.744 25.222-44.149 49.022h87.027c-2.257-23.8-20.289-49.022-42.878-49.022" fill="#e34e45"/>
    <path d="M74.245 169h95.523l.377-4.962H74.522a45.259 45.259 0 00-.277 4.962zM139.625 125.591c0 7.268-9.3 13.168-20.763 13.168s-20.764-5.9-20.764-13.168 9.296-13.172 20.764-13.172 20.763 5.897 20.763 13.172" fill="#775b35"/>
    <path d="M170.166 120.712a10.592 10.592 0 00-21.183 0v1.018h21.183v-1.018" fill="#f1d2ac"/>
    <path d="M170.166 121.128h-21.183v5.236h21.183z" fill="#775b35"/>
    <path d="M170.166 126.364h-21.183v37.674h21.183z" fill="#e34e45"/>
    <path d="M153.241 90.329c0 19.78-15.567 40.7-34.766 40.7s-34.768-20.92-34.768-40.7 2.706-39.244 34.768-39.244c34.766 0 34.766 19.463 34.766 39.244" fill="#f1d2ac"/>
    <path d="M83.707 90.328c11.262-1.291 17.649-13.902 22.306-17.412 3.243-2.443 5.368-1.844 7.412-.374 7.2 5.173 22.7 11.545 27.234 13.346s3.677-.256 7.286-.877 4.316 7.692 5.296 7.566c2.832-.374 1.451-9.839 1.141-14.119-1.141-8.767-6.472-32.01-35.927-32.01s-35.187 27.119-35.969 32.39-3.209 12 1.22 11.489" fill="#775b35"/>
    <path d="M164.689 104.058h-8.958V60.291c0-5.324 2.407-28.8 4.768-28.8s4.19 23.722 4.19 28.581v43.986" fill="#ccc"/>
    <path d="M165.061 123.3a4.882 4.882 0 01-9.764 0v-11.671a4.882 4.882 0 019.764 0V123.3" fill="#775b35"/>
    <path d="M176 107.463a4.694 4.694 0 01-4.715 4.672h-22.209a4.672 4.672 0 110-9.343h22.209a4.694 4.694 0 014.715 4.671M165.667 125.584a5.487 5.487 0 11-5.489-5.437 5.462 5.462 0 015.489 5.437" fill="#efa000"/>
  </g>
  <g>
    <text transform="translate(10 32)" font-size="20" font-family="Helvetica">
      <tspan x="0" y="15">J</tspan>
    </text>
  </g>
  <g>
    <text transform="rotate(180 114 155)" font-size="20" font-family="Helvetica">
      <tspan x="0" y="15">J</tspan>
    </text>
  </g>
</svg>
