<svg xmlns="http://www.w3.org/2000/svg" viewBox="0 0 242 340">
  <rect width="242" height="340" rx="20" fill="#fff"/>
  <path d="M30.169 75.391c4.164.046 6.726-2.591 5.317-5.366s-2.814-3.4-5.026-5.412-5.431-5.493-5.413-6.314c.016.821-3.069 4.3-5.282 6.314s-3.618 2.637-5.029 5.412 1.154 5.412 5.317 5.366a4.984 4.984 0 004.669-2.669v1.328s-.913 4.79-7.353 5.314h-1.022v.746H33.88v-.746h-1.033c-6.439-.524-7.353-5.314-7.353-5.314v-1.151a5.231 5.231 0 004.669 2.495M211.831 258.609c-4.164-.046-6.726 2.591-5.317 5.366s2.814 3.4 5.026 5.412 5.431 5.493 5.413 6.314c-.016-.821 3.069-4.3 5.282-6.314s3.618-2.637 5.029-5.412-1.154-5.412-5.317-5.366a4.984 4.984 0 00-4.669 2.669v-1.328s.913-4.79 7.353-5.314h1.022v-.746H208.12v.746h1.033c6.439.524 7.353 5.314 7.353 5.314v1.151a5.231 5.231 0 00-4.669-2.495" fill="#1a1919"/>
  <text transform="translate(10 28)" font-size="20" font-family="Helvetica">
    <tspan x="0" y="15">K</tspan>
  </text>
  <text transform="rotate(180 114 153)" font-size="20" font-family="Helvetica">
    <tspan x="0" y="15">K</tspan>
  </text>
  <g>
    <path d="M125.173 218.042c20.371 0 37.64-22.917 39.81-44.538H86.506c2.037 21.62 18.3 44.538 38.667 44.538" fill="#e34e45"/>
    <path d="M165.215 169h-86.5v4.5h86.245a41.083 41.083 0 00.255-4.5z" fill="#aa3730"/>
    <path d="M78.715 212.866a9.55 9.55 0 0019.1 0v-.923h-19.1v.923" fill="#f1d2ac"/>
    <path d="M78.715 212.488h19.1v-4.755h-19.1z" fill="#aa3730"/>
    <path d="M78.715 207.733h19.1v-34.229h-19.1z" fill="#e34e45"/>
    <path d="M94.326 241.194c0-18.851 14.034-38.789 31.347-38.789s31.353 19.938 31.353 38.789-2.437 34.135-31.35 34.135c-31.35 0-31.35-15.281-31.35-34.135" fill="#f1d2ac"/>
    <path d="M157.116 237.981c-.816 0-1.914 1.1-2.922 3.648-1.738 4.4-8.882 8.412-13.08 11.757-2.923 2.331-4.787 1.678-6.686.358-11.036-7.663-25.636-6.445-32.915-7.787-5.376-.991-4.288-6.701-6.838-6.346s-2.835 7.17-1.927 12.355c1.956 6.415 2.821 12.844 8.895 17.445a41.19 41.19 0 0024.05 8.156c8.246 0 17.286-2.719 23.79-7.885 5.77-4.579 7.939-13.056 8.643-18.081s3.834-12.842-1.01-13.62M127.099 230.221a31.324 31.324 0 01-11.8-2.517 18.774 18.774 0 01-2.139-.864l-.04-.018a5.241 5.241 0 01-1.117-.718 11.708 11.708 0 01-3.816-4.761 32.025 32.025 0 01-2.279-6.685 64.93 64.93 0 01-1.513-10.752l-.013-.258c-.011-.227-.016-.367-.016-.367l-.006-.29a14.854 14.854 0 011.675-6.839 17.755 17.755 0 014.568-5.585 21.961 21.961 0 016.775-3.765 25.619 25.619 0 0116.594 0 21.964 21.964 0 016.776 3.765 17.756 17.756 0 014.568 5.585 14.852 14.852 0 011.675 6.839 10.1 10.1 0 01-.117 1.614 46.614 46.614 0 01-.754 7.681 35.643 35.643 0 01-1.847 6.7 18.907 18.907 0 01-3.629 6.025 7.207 7.207 0 01-1.591 1.442l-.1.078a19.547 19.547 0 01-11.854 3.69zm-5.622-8.481a1.675 1.675 0 01.217.015 2.3 2.3 0 011.7 1.125 3.652 3.652 0 00.256.46l.079.138h.006a2.4 2.4 0 001.938 1.13 2.686 2.686 0 002.318-1.837c.252-.775.584-1.151 1.015-1.151a1.273 1.273 0 01.472.117l.04.016a4.194 4.194 0 01.387.206c.9.5 3.274 1.834 4.909 1.834h.092a4.258 4.258 0 003.542-1.532l.265-.22.034-.086a9.662 9.662 0 002.3-6.506v-2.04c0-4.6-2.758-8.343-6.147-8.343-3.119 0-5.743 3.17-6.1 7.374l-.016.06a4.786 4.786 0 01-.1.595v.036l-.013.018a3.208 3.208 0 01-2.92 2.677c-1.568 0-2.876-1.461-3.044-3.4v-.014c-.369-4.189-2.992-7.348-6.1-7.348-3.387 0-6.143 3.743-6.143 8.343v1.723c0 4.6 2.756 8.345 6.143 8.345a5.222 5.222 0 003.542-1.148 2.206 2.206 0 011.328-.588z" fill="#775b35"/>
    <path d="M125.723 305.575h-.79l-.3-.071a3.19 3.19 0 01-2.051-1.516 3.165 3.165 0 011.841-4.6l.206-.07-.021-.085c-2.968-5.954-6.045-12.14-8.1-16.28l-.049-.1c-.181-.365-.338-.681-.666-.681a1.737 1.737 0 00-.945.479 59.371 59.371 0 00-5.58 5.339c-.756.788-1.47 1.531-2.18 2.237l-.066.083.234.189a2.779 2.779 0 01-1.757 4.934 2.8 2.8 0 01-1.389-.37 2.775 2.775 0 011.312-5.183h.062l.206-.022q-.645-5.362-1.284-10.7c-.063-.539-.313-1.115-.824-1.115a1.267 1.267 0 00-.683.259c-2.412 1.647-7 5.531-7.112 5.639l.148.22a2.313 2.313 0 01-.51 3.1 2.276 2.276 0 01-1.435.472h-.137a2.265 2.265 0 01-2.044-1.691l-.041-.059v-1.086l.039-.064a1.894 1.894 0 01.534-.981 2.246 2.246 0 011.662-.716 2.827 2.827 0 01.287.015l.254-.008.04-.262c.036-.285.07-.571.1-.858l.067-.562.132-1.088.092-.747q.056-.45.109-.9v-.005l.106-.878q.051-.412.1-.827v-.007l.121-.975q.06-.487.12-1l.15-1.25q.089-.7.175-1.411l.116-.938.066-.321.239-.031c.223-.021.442-.041.664-.067s.443-.043.664-.066.443-.045.665-.066c.262-.026.529-.05.786-.073l.465-.042.498-.051c.293-.027.591-.055.887-.079l1.068-.083.432-.033.762-.059c.528-.04 1.07-.081 1.6-.119.68-.043 1.344-.081 1.976-.112.829-.05 1.72-.1 2.613-.144q.747-.036 1.5-.07h.011l1.2-.059c.152-.006.3-.01.457-.013.184 0 .371-.009.554-.017.335-.011.67-.024 1-.037.367-.014.745-.029 1.118-.041.5-.015 1.006-.025 1.5-.034l.8-.016c.965-.022 1.7-.037 2.4-.05.714-.01 1.444-.014 2.15-.019h.315c1.129 0 2.354 0 3.855.011.635 0 1.278.008 1.9.014h.006l.934.008c.337 0 .695.009 1.162.021l1.1.023h.015l1.083.023h.36c.237 0 .481.007.72.013.393.012.791.027 1.177.041h.005c.355.013.71.026 1.065.037l1.335.05 1.356.059.754.03h.018c.522.021 1.062.042 1.6.066.579.025 1.157.054 1.7.082q.584.03 1.166.064h.006l.95.053.174.01h.006l1.843.108c.267.015.555.034.909.06l1.025.073h.02l.7.05c.277.021.554.04.833.059l.818.058 1.488.125.6.051 1.051.091h.016l.8.07.206.039c.05.524.087 1.058.124 1.573.02.287.04.574.063.861.035.448.066.9.1 1.343.024.356.049.711.075 1.067l.094 1.271.087 1.163.056.8c.036.527.074 1.071.117 1.607l.063.87c.036.51.072 1.035.119 1.543l.042.028.145.01a2.176 2.176 0 011.25.406 2.244 2.244 0 01.93 1.379l.105.241v.549l-.1.214a2.31 2.31 0 01-2.244 1.81 2.407 2.407 0 01-.507-.055 2.291 2.291 0 01-1.761-2.682 2.248 2.248 0 01.824-1.364l.156-.138-1.42-1.281-.011-.01c-1.3-1.173-2.641-2.382-3.954-3.572l-.153-.14c-.428-.395-1.012-.934-1.413-.934-.19 0-.319.126-.384.375a11.2 11.2 0 00-.229 1.327c-.029.219-.059.445-.095.666l-.132.8v.016l-.184 1.126q-.091.548-.179 1.1v.013l-.141.861-.075.455v.013c-.081.5-.165 1.007-.245 1.51-.1.594-.213 1.286-.321 1.969q-.076.48-.155.957l-.133.82v.126l.162.006a2.78 2.78 0 012.539 3.419 2.766 2.766 0 01-2.69 2.131 3.015 3.015 0 01-.563-.054 2.778 2.778 0 01-1.192-4.9l.177-.174-.136-.144c-.476-.465-.938-.918-1.372-1.348l-1.17-1.152-.017-.017-1.153-1.135q-.641-.637-1.285-1.272l-.995-.984-.811-.8-1.08-1.07a.724.724 0 00-.491-.155 1.139 1.139 0 00-1.016.632c-2.211 4.189-8.547 16.3-8.618 16.5l.207.059a3.158 3.158 0 01-.31 6.181l-.088.039zm-.48-32.182c-.261 0-.521.229-.772.68l-.91 1.631-.041.073v.006c-.5.889-.992 1.779-1.274 2.286v.006l-.094.165-.127.227-.017.032v.006a6.575 6.575 0 00-.4 1.01 7.49 7.49 0 00-.311 2.165 7.217 7.217 0 00.635 3.017l.056.126.032.056c.073.148.153.293.239.43.366.66.727 1.3 1.045 1.865.573 1.017 1.026 1.821 1.265 2.3.193.386.409.582.642.582.405 0 .726-.6.729-.605l1.991-3.668a5.64 5.64 0 00.837-1.557l.228-.418v-.318a7.729 7.729 0 00-.028-3.757v-.219l-.15-.274a5.615 5.615 0 00-.961-1.764l-1.836-3.349c0-.007-.316-.733-.778-.733zm14.92.21c-1.215 0-2.2 1.565-2.2 3.489s.988 3.487 2.2 3.487 2.2-1.564 2.2-3.487-.985-3.489-2.2-3.489zm-29.021 0c-1.215 0-2.2 1.565-2.2 3.489s.988 3.487 2.2 3.487 2.2-1.564 2.2-3.487-.985-3.489-2.2-3.489zm40.307 0a1.745 1.745 0 101.744 1.746 1.748 1.748 0 00-1.743-1.746zm-51.592 0a1.745 1.745 0 101.744 1.746 1.748 1.748 0 00-1.744-1.746z" fill="#e6a52e"/>
    <path d="M95.92 269.459h-.158c.026-.671.066-1.334.1-2s.062-1.325.1-1.992.059-1.324.107-2l.133-.03q.8-.077 1.6-.16c.421-.043.837-.088 1.253-.126.437-.042.87-.08 1.3-.118.492-.044.985-.088 1.474-.127s1-.08 1.5-.115l1.827-.132c.286-.021.573-.038.864-.056l2.042-.115a237.185 237.185 0 014.442-.206c.682-.027 1.363-.056 2.045-.077.341-.011.675-.014 1.014-.021.617-.017 1.236-.032 1.852-.046q.509-.017 1.01-.021c1.22-.014 2.437-.024 3.659-.03a274.47 274.47 0 013.014-.02c1.234 0 2.469.019 3.7.035.858.011 1.715.029 2.568.05q1.164.026 2.322.062 1.454.048 2.91.1c.784.03 1.563.062 2.342.1q1.522.069 3.04.146 1.2.065 2.416.134c.63.038 1.262.086 1.9.129.584.037 1.168.072 1.749.115s1.133.083 1.7.129l1.475.115q.677.053 1.354.115c.486.042.97.091 1.451.136l.15.021.032.283c.027.518.053 1.034.077 1.555.032.628.067 1.261.1 1.892s.07 1.283.1 1.922l.021.371-.154.038c-.658-.067-1.312-.136-1.966-.2-.613-.059-1.223-.112-1.823-.168q-.972-.089-1.942-.174c-.507-.042-1.018-.077-1.525-.12-.541-.042-1.083-.083-1.626-.121a30.58 30.58 0 00-.861-.062c-.661-.043-1.315-.081-1.973-.12-.747-.045-1.5-.091-2.245-.133-.672-.038-1.347-.069-2.022-.1-.8-.038-1.594-.07-2.39-.1q-1.051-.036-2.1-.062c-.626-.018-1.248-.035-1.875-.048-.864-.022-1.726-.029-2.594-.053-2.05-.053-4.1-.032-6.149-.038-.522 0-1.038 0-1.557.01-1.038.014-2.077.029-3.112.05-.814.014-1.629.038-2.445.062-.979.029-1.958.064-2.934.1-.758.027-1.515.062-2.274.1-.918.042-1.84.083-2.758.136q-1.406.084-2.81.182c-.814.053-1.626.1-2.44.163-.72.053-1.445.12-2.165.179-.451.038-.9.073-1.354.115q-.9.079-1.794.174c-.566.056-1.13.12-1.7.176" fill="#d28b2f"/>
    <path d="M99.858 277.092a1.745 1.745 0 111.744-1.743 1.743 1.743 0 01-1.744 1.743M111.139 280.58c-1.213 0-2.2-1.561-2.2-3.488s.987-3.489 2.2-3.489 2.2 1.566 2.2 3.489-.979 3.488-2.2 3.488M121.928 284.698c-.552-1.365.046-5.983.074-6.191l.018-.038.126-.227.094-.165v-.006a3.619 3.619 0 013.014-1.956 3.371 3.371 0 012.6 1.364l.962 1.764c.059.161.109.324.154.492l.025 3.755a6.257 6.257 0 01-.224.737l-.841 1.554a3.418 3.418 0 01-2.672 1.46 3.619 3.619 0 01-3-1.935l-.238-.43-.092-.178M140.16 280.58c-1.213 0-2.2-1.561-2.2-3.488s.987-3.489 2.2-3.489 2.2 1.566 2.2 3.489-.979 3.488-2.2 3.488M151.45 277.092a1.745 1.745 0 111.744-1.743 1.743 1.743 0 01-1.744 1.743M126.302 298.755c.933.925 2.264 2.249 2.775 2.783.827.858 1.386.915 0 2.3s-1.929 1.935-2.532 2.523c-1.068 1.043-1.31 1.143-2.268.19-.6-.596-1.965-1.965-2.9-2.903-1.222-1.01-.589-1.342 0-1.928.384-.382 1.975-1.977 3.015-3.015.845-.735 1.346-.513 1.91.05" fill="#13a2a4"/>
    <path d="M84.198 227.997h8.078v39.762c0 4.836-2.171 26.161-4.3 26.161s-3.778-21.55-3.778-25.963v-39.96" fill="#ccc"/>
    <path d="M83.862 210.523a4.4 4.4 0 018.8 0v10.6a4.4 4.4 0 01-8.8 0v-10.6" fill="#775b35"/>
    <path d="M74 224.902a4.245 4.245 0 014.251-4.242H98.28a4.243 4.243 0 110 8.485H78.251A4.246 4.246 0 0174 224.902M83.318 208.439a4.946 4.946 0 114.947 4.942 4.941 4.941 0 01-4.947-4.942" fill="#efa000"/>
    <g>
      <path d="M118.827 119.958c-20.371 0-37.64 22.917-39.81 44.538h78.477c-2.037-21.62-18.3-44.538-38.667-44.538" fill="#e34e45"/>
      <path d="M78.785 169h86.5v-4.5H79.04a41.083 41.083 0 00-.255 4.5z" fill="#aa3730"/>
      <path d="M165.285 125.134a9.55 9.55 0 00-19.1 0v.923h19.1v-.923" fill="#f1d2ac"/>
      <path d="M165.285 125.512h-19.1v4.755h19.1z" fill="#aa3730"/>
      <path d="M165.285 130.267h-19.1v34.229h19.1z" fill="#e34e45"/>
      <path d="M149.674 96.806c0 18.851-14.034 38.789-31.347 38.789s-31.353-19.938-31.353-38.789 2.437-34.135 31.35-34.135c31.35 0 31.35 15.281 31.35 34.135" fill="#f1d2ac"/>
      <path d="M86.884 100.019c.816 0 1.914-1.1 2.922-3.648 1.738-4.4 8.882-8.412 13.08-11.757 2.923-2.331 4.787-1.678 6.686-.358 11.036 7.663 25.636 6.445 32.915 7.787 5.376.991 4.288 6.701 6.838 6.346s2.835-7.17 1.927-12.355c-1.956-6.415-2.821-12.844-8.895-17.445a41.19 41.19 0 00-24.05-8.156c-8.246 0-17.286 2.719-23.79 7.885-5.77 4.579-7.939 13.056-8.643 18.081s-3.834 12.842 1.01 13.62M116.901 107.779a31.324 31.324 0 0111.8 2.517 18.774 18.774 0 012.139.864l.04.018a5.241 5.241 0 011.117.718 11.708 11.708 0 013.816 4.761 32.025 32.025 0 012.279 6.685 64.93 64.93 0 011.513 10.752l.013.258c.011.227.016.367.016.367l.006.29a14.854 14.854 0 01-1.675 6.839 17.755 17.755 0 01-4.568 5.585 21.961 21.961 0 01-6.775 3.765 25.619 25.619 0 01-16.594 0 21.964 21.964 0 01-6.776-3.765 17.756 17.756 0 01-4.568-5.585 14.852 14.852 0 01-1.675-6.839 10.1 10.1 0 01.117-1.614 46.614 46.614 0 01.754-7.681 35.643 35.643 0 011.847-6.7 18.907 18.907 0 013.629-6.025 7.207 7.207 0 011.591-1.442l.1-.078a19.547 19.547 0 0111.854-3.69zm5.622 8.481a1.675 1.675 0 01-.217-.015 2.3 2.3 0 01-1.7-1.125 3.652 3.652 0 00-.256-.46l-.079-.138h-.006a2.4 2.4 0 00-1.938-1.13 2.686 2.686 0 00-2.318 1.837c-.252.775-.584 1.151-1.015 1.151a1.273 1.273 0 01-.472-.117l-.04-.016a4.194 4.194 0 01-.387-.206c-.9-.5-3.274-1.834-4.909-1.834h-.092a4.258 4.258 0 00-3.542 1.532l-.265.22-.034.086a9.662 9.662 0 00-2.3 6.506v2.04c0 4.6 2.758 8.343 6.147 8.343 3.119 0 5.743-3.17 6.1-7.374l.016-.06a4.786 4.786 0 01.1-.595v-.036l.013-.018a3.208 3.208 0 012.92-2.677c1.568 0 2.876 1.461 3.044 3.4v.014c.369 4.189 2.992 7.348 6.1 7.348 3.387 0 6.143-3.743 6.143-8.343v-1.723c0-4.6-2.756-8.345-6.143-8.345a5.222 5.222 0 00-3.542 1.148 2.206 2.206 0 01-1.328.588z" fill="#775b35"/>
      <path d="M118.277 32.425h.79l.3.071a3.19 3.19 0 012.051 1.516 3.165 3.165 0 01-1.841 4.6l-.206.07.021.085c2.968 5.954 6.045 12.14 8.1 16.28l.049.1c.181.365.338.681.666.681a1.737 1.737 0 00.945-.479 59.371 59.371 0 005.58-5.339c.756-.788 1.47-1.531 2.18-2.237l.066-.083-.234-.189a2.779 2.779 0 011.757-4.934 2.8 2.8 0 011.389.37 2.775 2.775 0 01-1.312 5.183h-.062l-.206.022q.645 5.362 1.284 10.7c.063.539.313 1.115.824 1.115a1.267 1.267 0 00.683-.259c2.412-1.647 7-5.531 7.112-5.639l-.148-.22a2.313 2.313 0 01.51-3.1 2.276 2.276 0 011.435-.472h.137a2.265 2.265 0 012.044 1.691l.041.059v1.086l-.039.064a1.894 1.894 0 01-.534.981 2.246 2.246 0 01-1.662.716 2.827 2.827 0 01-.287-.015l-.254.008-.04.262c-.036.285-.07.571-.1.858l-.067.562-.132 1.088-.092.747q-.056.45-.109.9v.005l-.106.878q-.051.412-.1.827v.007l-.121.975q-.06.487-.12 1l-.15 1.25q-.089.7-.175 1.411l-.116.938-.066.321-.239.031c-.223.021-.442.041-.664.067s-.443.043-.664.066-.443.045-.665.066c-.262.026-.529.05-.786.073l-.465.042-.498.051c-.293.027-.591.055-.887.079l-1.068.083-.432.033-.762.059c-.528.04-1.07.081-1.6.119-.68.043-1.344.081-1.976.112-.829.05-1.72.1-2.613.144q-.747.036-1.5.07h-.011l-1.2.059c-.152.006-.3.01-.457.013-.184 0-.371.009-.554.017-.335.011-.67.024-1 .037-.367.014-.745.029-1.118.041-.5.015-1.006.025-1.5.034l-.8.016c-.965.022-1.7.037-2.4.05-.714.01-1.444.014-2.15.019h-.315c-1.129 0-2.354 0-3.855-.011-.635 0-1.278-.008-1.9-.014h-.006l-.934-.008c-.337 0-.695-.009-1.162-.021l-1.1-.023h-.015l-1.083-.023h-.36c-.237 0-.481-.007-.72-.013-.393-.012-.791-.027-1.177-.041h-.005c-.355-.013-.71-.026-1.065-.037l-1.335-.05-1.356-.059-.754-.03h-.018c-.522-.021-1.062-.042-1.6-.066-.579-.025-1.157-.054-1.7-.082q-.584-.03-1.166-.064h-.006l-.95-.053-.174-.01h-.006l-1.843-.108a52.458 52.458 0 01-.909-.06l-1.025-.073h-.02l-.7-.05c-.277-.021-.554-.04-.833-.059l-.818-.058-1.488-.125-.6-.051-1.051-.091h-.016l-.8-.07-.206-.039c-.05-.524-.087-1.058-.124-1.573-.02-.287-.04-.574-.063-.861-.035-.448-.066-.9-.1-1.343-.024-.356-.049-.711-.075-1.067l-.094-1.271-.087-1.163-.056-.8c-.036-.527-.074-1.071-.117-1.607l-.063-.87c-.036-.51-.072-1.035-.119-1.543l-.042-.028-.145-.01a2.176 2.176 0 01-1.25-.406 2.244 2.244 0 01-.93-1.379l-.105-.241v-.549l.1-.214a2.31 2.31 0 012.244-1.81 2.407 2.407 0 01.507.055 2.291 2.291 0 011.761 2.682 2.248 2.248 0 01-.824 1.364l-.156.138 1.42 1.281.011.01c1.3 1.173 2.641 2.382 3.954 3.572l.153.14c.428.395 1.012.934 1.413.934.19 0 .319-.126.384-.375a11.2 11.2 0 00.229-1.327c.029-.219.059-.445.095-.666l.132-.8v-.016l.184-1.126q.091-.548.179-1.1v-.013l.141-.861.075-.455v-.013c.081-.5.165-1.007.245-1.51.1-.594.213-1.286.321-1.969q.076-.48.155-.957l.133-.82v-.126l-.162-.006a2.78 2.78 0 01-2.539-3.419 2.766 2.766 0 012.69-2.131 3.015 3.015 0 01.563.054 2.778 2.778 0 011.192 4.9l-.177.174.136.144c.476.465.938.918 1.372 1.348l1.17 1.152.017.017 1.153 1.135q.641.637 1.285 1.272l.995.984.811.8 1.08 1.07a.724.724 0 00.491.155 1.139 1.139 0 001.016-.632c2.211-4.189 8.547-16.3 8.618-16.5l-.207-.059a3.158 3.158 0 01.31-6.181l.088-.039zm.48 32.182c.261 0 .521-.229.772-.68l.91-1.631.041-.073v-.006c.5-.889.992-1.779 1.274-2.286v-.006l.094-.165.127-.227.017-.032v-.006a6.575 6.575 0 00.4-1.01 7.49 7.49 0 00.311-2.165 7.217 7.217 0 00-.635-3.017l-.056-.126-.032-.056a4.832 4.832 0 00-.239-.43c-.366-.66-.727-1.3-1.045-1.865-.573-1.017-1.026-1.821-1.265-2.3-.193-.386-.409-.582-.642-.582-.405 0-.726.6-.729.605l-1.991 3.668a5.64 5.64 0 00-.837 1.557l-.228.418v.318a7.729 7.729 0 00.028 3.757v.219l.15.274a5.615 5.615 0 00.961 1.764l1.836 3.349c0 .007.316.733.778.733zm-14.92-.21c1.215 0 2.2-1.565 2.2-3.489s-.988-3.487-2.2-3.487-2.2 1.564-2.2 3.487.985 3.489 2.2 3.489zm29.021 0c1.215 0 2.2-1.565 2.2-3.489s-.988-3.487-2.2-3.487-2.2 1.564-2.2 3.487.985 3.489 2.2 3.489zm-40.307 0a1.745 1.745 0 10-1.744-1.746 1.748 1.748 0 001.743 1.746zm51.592 0a1.745 1.745 0 10-1.744-1.746 1.748 1.748 0 001.744 1.746z" fill="#e6a52e"/>
      <path d="M148.08 68.541h.158c-.026.671-.066 1.334-.1 2s-.062 1.325-.1 1.992-.059 1.324-.107 2l-.133.03q-.8.077-1.6.16c-.421.043-.837.088-1.253.126-.437.042-.87.08-1.3.118-.492.044-.985.088-1.474.127s-1 .08-1.5.115l-1.827.132c-.286.021-.573.038-.864.056l-2.042.115a237.185 237.185 0 01-4.442.206c-.682.027-1.363.056-2.045.077-.341.011-.675.014-1.014.021-.617.017-1.236.032-1.852.046q-.509.017-1.01.021c-1.22.014-2.437.024-3.659.03-1.003.011-2.006.02-3.014.02-1.234 0-2.469-.019-3.7-.035-.858-.011-1.715-.029-2.568-.05q-1.164-.026-2.322-.062-1.454-.048-2.91-.1a223.21 223.21 0 01-2.342-.1q-1.522-.069-3.04-.146-1.2-.065-2.416-.134c-.63-.038-1.262-.086-1.9-.129-.584-.037-1.168-.072-1.749-.115s-1.133-.083-1.7-.129l-1.475-.115q-.677-.053-1.354-.115c-.486-.042-.97-.091-1.451-.136l-.15-.021-.032-.283c-.027-.518-.053-1.034-.077-1.555-.032-.628-.067-1.261-.1-1.892s-.07-1.283-.1-1.922l-.021-.371.154-.038c.658.067 1.312.136 1.966.2.613.059 1.223.112 1.823.168q.972.089 1.942.174c.507.042 1.018.077 1.525.12.541.042 1.083.083 1.626.121.286.024.573.046.861.062.661.043 1.315.081 1.973.12.747.045 1.5.091 2.245.133.672.038 1.347.069 2.022.1.8.038 1.594.07 2.39.1q1.051.036 2.1.062c.626.018 1.248.035 1.875.048.864.022 1.726.029 2.594.053 2.05.053 4.1.032 6.149.038.522 0 1.038 0 1.557-.01 1.038-.014 2.077-.029 3.112-.05.814-.014 1.629-.038 2.445-.062.979-.029 1.958-.064 2.934-.1.758-.027 1.515-.062 2.274-.1.918-.042 1.84-.083 2.758-.136q1.406-.084 2.81-.182c.814-.053 1.626-.1 2.44-.163.72-.053 1.445-.12 2.165-.179.451-.038.9-.073 1.354-.115q.9-.079 1.794-.174c.566-.056 1.13-.12 1.7-.176" fill="#d28b2f"/>
      <path d="M144.142 60.908a1.745 1.745 0 11-1.744 1.743 1.743 1.743 0 011.744-1.743M132.861 57.42c1.213 0 2.2 1.561 2.2 3.488s-.987 3.489-2.2 3.489-2.2-1.566-2.2-3.489.979-3.488 2.2-3.488M122.072 53.302c.552 1.365-.046 5.983-.074 6.191l-.018.038-.126.227-.094.165v.006a3.619 3.619 0 01-3.014 1.956 3.371 3.371 0 01-2.6-1.364l-.962-1.764a5.736 5.736 0 01-.154-.492l-.025-3.755a6.257 6.257 0 01.224-.737l.841-1.554a3.418 3.418 0 012.672-1.46 3.619 3.619 0 013 1.935l.238.43.092.178M103.84 57.42c1.213 0 2.2 1.561 2.2 3.488s-.987 3.489-2.2 3.489-2.2-1.566-2.2-3.489.979-3.488 2.2-3.488M92.55 60.908a1.745 1.745 0 11-1.744 1.743 1.743 1.743 0 011.744-1.743M117.698 39.245a223.614 223.614 0 01-2.775-2.783c-.827-.858-1.386-.915 0-2.3s1.929-1.935 2.532-2.523c1.068-1.043 1.31-1.143 2.268-.19.6.596 1.965 1.965 2.9 2.903 1.222 1.01.589 1.342 0 1.928-.384.382-1.975 1.977-3.015 3.015-.845.735-1.346.513-1.91-.05" fill="#13a2a4"/>
      <path d="M159.802 110.003h-8.078V70.241c0-4.836 2.171-26.161 4.3-26.161s3.778 21.55 3.778 25.963v39.96" fill="#ccc"/>
      <path d="M160.138 127.477a4.4 4.4 0 01-8.8 0v-10.6a4.4 4.4 0 018.8 0v10.6" fill="#775b35"/>
      <path d="M170 113.098a4.245 4.245 0 01-4.251 4.242H145.72a4.243 4.243 0 110-8.485h20.029a4.246 4.246 0 014.251 4.243M160.682 129.561a4.946 4.946 0 11-4.947-4.942 4.941 4.941 0 014.947 4.942" fill="#efa000"/>
    </g>
  </g>
</svg>
