<?xml version="1.0" encoding="UTF-8" standalone="no"?><!DOCTYPE svg PUBLIC "-//W3C//DTD SVG 1.1//EN" "http://www.w3.org/Graphics/SVG/1.1/DTD/svg11.dtd"><svg width="100%" height="100%" viewBox="0 0 241 360" version="1.1" xmlns="http://www.w3.org/2000/svg" xmlns:xlink="http://www.w3.org/1999/xlink" xml:space="preserve" xmlns:serif="http://www.serif.com/" style="fill-rule:evenodd;clip-rule:evenodd;stroke-linejoin:round;stroke-miterlimit:2;"><rect id="t3" x="0.155" y="0" width="240" height="360" style="fill:none;"/><clipPath id="_clip1"><rect x="0.155" y="0" width="240" height="360"/></clipPath><g clip-path="url(#_clip1)"><g id="Layer1"><g id="Purple_Background"><path d="M240.155,30c0,-16.557 -13.443,-30 -30,-30l-180,0c-16.558,0 -30,13.443 -30,30l0,300c0,16.557 13.442,30 30,30l180,0c16.557,0 30,-13.443 30,-30l0,-300Z" style="fill:#8f25c4;"/></g></g><path d="M115.691,126.193c16.296,0 28.696,3.01 37.198,9.03c8.503,6.021 12.754,14.1 12.754,24.24c0,6.084 -1.807,11.248 -5.421,15.494c-3.613,4.246 -7.9,7.447 -12.859,9.601c2.975,1.014 5.739,2.282 8.289,3.803c2.551,1.52 4.818,3.422 6.802,5.703c1.984,2.281 3.543,4.943 4.677,7.985c1.133,3.042 1.7,6.591 1.7,10.646c0,5.45 -1.311,10.33 -3.932,14.639c-2.622,4.31 -6.271,7.985 -10.947,11.027c-4.676,3.042 -10.238,5.355 -16.686,6.939c-6.448,1.584 -13.498,2.377 -21.15,2.377c-14.737,0 -25.861,-1.838 -33.372,-5.514c-7.51,-3.675 -11.265,-8.365 -11.265,-14.068c0,-3.422 0.921,-6.369 2.763,-8.841c1.842,-2.471 4.109,-4.404 6.802,-5.798c2.834,1.774 6.625,3.644 11.372,5.608c4.747,1.965 10.947,2.947 18.599,2.947c7.227,0 12.576,-1.141 16.048,-3.422c3.472,-2.281 5.208,-5.26 5.208,-8.936c0,-3.675 -1.382,-6.463 -4.145,-8.365c-2.763,-1.901 -7.546,-2.851 -14.348,-2.851l-19.981,0c-0.991,-1.395 -1.842,-3.106 -2.55,-5.133c-0.709,-2.028 -1.063,-4.436 -1.063,-7.225c0,-2.915 0.319,-5.418 0.956,-7.509c0.638,-2.092 1.524,-3.834 2.657,-5.229l19.981,0c10.203,0 15.304,-3.485 15.304,-10.456c0,-3.295 -1.629,-5.957 -4.888,-7.985c-3.26,-2.028 -8.149,-3.042 -14.667,-3.042c-5.81,0 -10.912,0.602 -15.304,1.806c-4.393,1.204 -8.007,2.694 -10.841,4.468c-2.409,-1.521 -4.393,-3.39 -5.952,-5.608c-1.558,-2.218 -2.338,-4.848 -2.338,-7.89c0,-6.337 3.685,-10.995 11.053,-13.974c7.369,-2.978 17.218,-4.467 29.546,-4.467Z" style="fill:#fff;fill-rule:nonzero;"/><path d="M131.151,26.468c-1.263,0 -2.467,0.247 -3.565,0.693c1.031,-1.459 1.636,-3.227 1.636,-5.133c0,-5.003 -4.158,-9.059 -9.286,-9.059c-5.128,0 -9.285,4.056 -9.285,9.059c0,1.815 0.55,3.504 1.492,4.921c-0.937,-0.31 -1.94,-0.481 -2.985,-0.481c-5.128,0 -9.285,4.056 -9.285,9.059c0,5.003 4.157,9.058 9.285,9.058c1.159,0 2.266,-0.208 3.289,-0.586c0,0.002 4.321,-1.137 7.162,-6.181l0,3.037c0,0 -1.457,9.574 -11.725,10.622l-1.639,0l0,1.492l27.965,0l0,-1.492l-1.638,0c-10.269,-1.048 -11.725,-10.622 -11.725,-10.622l0,-2.832c0.529,1.136 3.454,6.694 10.029,6.556c0.091,0.002 0.183,0.006 0.275,0.006c5.129,0 9.286,-4.055 9.286,-9.058c0,-5.003 -4.157,-9.059 -9.286,-9.059Z" style="fill:#fff;fill-rule:nonzero;"/></g></svg>