<?xml version="1.0" encoding="UTF-8" standalone="no"?><!DOCTYPE svg PUBLIC "-//W3C//DTD SVG 1.1//EN" "http://www.w3.org/Graphics/SVG/1.1/DTD/svg11.dtd"><svg width="100%" height="100%" viewBox="0 0 241 360" version="1.1" xmlns="http://www.w3.org/2000/svg" xmlns:xlink="http://www.w3.org/1999/xlink" xml:space="preserve" xmlns:serif="http://www.serif.com/" style="fill-rule:evenodd;clip-rule:evenodd;stroke-linejoin:round;stroke-miterlimit:2;"><rect id="t7" x="0.465" y="0" width="240" height="360" style="fill:none;"/><clipPath id="_clip1"><rect x="0.465" y="0" width="240" height="360"/></clipPath><g clip-path="url(#_clip1)"><g id="Purple_Background"><path d="M240.465,30c0,-16.557 -13.443,-30 -30,-30l-180,0c-16.558,0 -30,13.443 -30,30l0,300c0,16.557 13.442,30 30,30l180,0c16.557,0 30,-13.443 30,-30l0,-300Z" style="fill:#8f25c4;"/></g><path d="M131.461,26.468c-1.263,0 -2.468,0.247 -3.566,0.693c1.031,-1.459 1.637,-3.227 1.637,-5.133c0,-5.003 -4.158,-9.059 -9.286,-9.059c-5.128,0 -9.285,4.056 -9.285,9.059c0,1.815 0.549,3.504 1.492,4.921c-0.937,-0.31 -1.94,-0.481 -2.985,-0.481c-5.128,0 -9.285,4.056 -9.285,9.059c0,5.003 4.157,9.058 9.285,9.058c1.158,0 2.266,-0.208 3.289,-0.586c-0.001,0.002 4.321,-1.137 7.162,-6.181l0,3.037c0,0 -1.457,9.574 -11.725,10.622l-1.639,0l0,1.492l27.965,0l0,-1.492l-1.639,0c-10.268,-1.048 -11.725,-10.622 -11.725,-10.622l0,-2.832c0.53,1.136 3.455,6.694 10.029,6.556c0.092,0.002 0.184,0.006 0.276,0.006c5.128,0 9.285,-4.055 9.285,-9.058c0,-5.003 -4.157,-9.059 -9.285,-9.059Z" style="fill:#fff;fill-rule:nonzero;"/><path d="M158.513,129.044c2.409,1.395 4.57,3.327 6.483,5.799c1.913,2.471 2.87,5.545 2.87,9.221c0,2.027 -0.213,4.087 -0.638,6.178c-0.425,2.092 -1.134,4.151 -2.126,6.179l-44.212,89.545c-1.984,0.126 -3.862,0.19 -5.633,0.19l-4.995,0c-6.377,0 -11.549,-1.078 -15.517,-3.232c-3.968,-2.155 -5.952,-5.894 -5.952,-11.217c0,-2.662 0.709,-5.545 2.126,-8.65c1.417,-3.106 3.33,-6.813 5.739,-11.122l31.034,-56.845l-52.077,0c-0.851,-1.394 -1.701,-3.232 -2.551,-5.513c-0.85,-2.281 -1.276,-4.69 -1.276,-7.224c0,-4.817 1.205,-8.239 3.614,-10.267c2.409,-2.028 5.456,-3.042 9.14,-3.042l73.971,0Z" style="fill:#fff;fill-rule:nonzero;"/></g></svg>