<svg xmlns="http://www.w3.org/2000/svg" viewBox="0 0 242 340">
  <rect width="242" height="340" rx="20" fill="#fff"/>
  <path d="M130.988 166.134a8.159 8.159 0 00-3.077.6 7.647 7.647 0 001.412-4.43 7.916 7.916 0 00-8.012-7.818 7.916 7.916 0 00-8.011 7.816 7.64 7.64 0 001.287 4.247 8.18 8.18 0 00-2.575-.415A7.916 7.916 0 00104 173.95a7.916 7.916 0 008.012 7.816 8.166 8.166 0 002.837-.506 11.117 11.117 0 006.18-5.333v2.621a11.256 11.256 0 01-10.117 9.165H109.5V189h24.127v-1.287h-1.413a11.256 11.256 0 01-10.114-9.165v-2.445c.457.981 2.981 5.776 8.653 5.657.079 0 .158.005.238.005A7.916 7.916 0 00139 173.95a7.916 7.916 0 00-8.012-7.816zM172.988 264.134a8.159 8.159 0 00-3.077.6 7.647 7.647 0 001.412-4.43 7.916 7.916 0 00-8.012-7.818 7.916 7.916 0 00-8.011 7.816 7.64 7.64 0 001.287 4.247 8.18 8.18 0 00-2.575-.415A7.916 7.916 0 00146 271.95a7.916 7.916 0 008.012 7.816 8.166 8.166 0 002.837-.506 11.117 11.117 0 006.18-5.333v2.621a11.256 11.256 0 01-10.117 9.165H151.5V287h24.127v-1.287h-1.413a11.256 11.256 0 01-10.114-9.165v-2.445c.457.981 2.981 5.776 8.653 5.657.079 0 .158.005.238.005A7.916 7.916 0 00181 271.95a7.916 7.916 0 00-8.012-7.816zM84.988 264.134a8.159 8.159 0 00-3.077.6 7.647 7.647 0 001.412-4.43 7.916 7.916 0 00-8.012-7.818 7.916 7.916 0 00-8.011 7.816 7.64 7.64 0 001.287 4.247 8.18 8.18 0 00-2.575-.415A7.916 7.916 0 0058 271.95a7.916 7.916 0 008.012 7.816 8.166 8.166 0 002.837-.506 11.117 11.117 0 006.18-5.333v2.621a11.256 11.256 0 01-10.117 9.165H63.5V287h24.127v-1.287h-1.413a11.256 11.256 0 01-10.114-9.165v-2.445c.457.981 2.981 5.776 8.653 5.657.079 0 .158.005.238.005A7.916 7.916 0 0093 271.95a7.916 7.916 0 00-8.012-7.816zM172.988 198.134a8.159 8.159 0 00-3.077.6 7.647 7.647 0 001.412-4.43 7.916 7.916 0 00-8.012-7.818 7.916 7.916 0 00-8.011 7.816 7.64 7.64 0 001.287 4.247 8.18 8.18 0 00-2.575-.415A7.916 7.916 0 00146 205.95a7.916 7.916 0 008.012 7.816 8.166 8.166 0 002.837-.506 11.117 11.117 0 006.18-5.333v2.621a11.256 11.256 0 01-10.117 9.165H151.5V221h24.127v-1.287h-1.413a11.256 11.256 0 01-10.114-9.165v-2.445c.457.981 2.981 5.776 8.653 5.657.079 0 .158.005.238.005A7.916 7.916 0 00181 205.95a7.916 7.916 0 00-8.012-7.816zM84.988 198.134a8.159 8.159 0 00-3.077.6 7.647 7.647 0 001.412-4.43 7.916 7.916 0 00-8.012-7.818 7.916 7.916 0 00-8.011 7.816 7.64 7.64 0 001.287 4.247 8.18 8.18 0 00-2.575-.415A7.916 7.916 0 0058 205.95a7.916 7.916 0 008.012 7.816 8.166 8.166 0 002.837-.506 11.117 11.117 0 006.18-5.333v2.621a11.256 11.256 0 01-10.117 9.165H63.5V221h24.127v-1.287h-1.413a11.256 11.256 0 01-10.114-9.165v-2.445c.457.981 2.981 5.776 8.653 5.657.079 0 .158.005.238.005A7.916 7.916 0 0093 205.95a7.916 7.916 0 00-8.012-7.816zM84.988 132.134a8.159 8.159 0 00-3.077.6 7.647 7.647 0 001.412-4.43 7.916 7.916 0 00-8.012-7.818 7.916 7.916 0 00-8.011 7.816 7.64 7.64 0 001.287 4.247 8.18 8.18 0 00-2.575-.415A7.916 7.916 0 0058 139.95a7.916 7.916 0 008.012 7.816 8.166 8.166 0 002.837-.506 11.117 11.117 0 006.18-5.333v2.621a11.256 11.256 0 01-10.117 9.165H63.5V155h24.127v-1.287h-1.413a11.256 11.256 0 01-10.114-9.165v-2.445c.457.981 2.981 5.776 8.653 5.657.079 0 .158.005.238.005A7.916 7.916 0 0093 139.95a7.916 7.916 0 00-8.012-7.816zM172.988 132.134a8.159 8.159 0 00-3.077.6 7.647 7.647 0 001.412-4.43 7.916 7.916 0 00-8.012-7.818 7.916 7.916 0 00-8.011 7.816 7.64 7.64 0 001.287 4.247 8.18 8.18 0 00-2.575-.415A7.916 7.916 0 00146 139.95a7.916 7.916 0 008.012 7.816 8.166 8.166 0 002.837-.506 11.117 11.117 0 006.18-5.333v2.621a11.256 11.256 0 01-10.117 9.165H151.5V155h24.127v-1.287h-1.413a11.256 11.256 0 01-10.114-9.165v-2.445c.457.981 2.981 5.776 8.653 5.657.079 0 .158.005.238.005A7.916 7.916 0 00181 139.95a7.916 7.916 0 00-8.012-7.816zM172.988 66.134a8.159 8.159 0 00-3.077.6 7.647 7.647 0 001.412-4.43 7.916 7.916 0 00-8.012-7.818 7.916 7.916 0 00-8.011 7.816 7.64 7.64 0 001.287 4.247 8.18 8.18 0 00-2.575-.415A7.916 7.916 0 00146 73.95a7.916 7.916 0 008.012 7.816 8.166 8.166 0 002.837-.506 11.117 11.117 0 006.18-5.333v2.621a11.256 11.256 0 01-10.117 9.165H151.5V89h24.127v-1.287h-1.413a11.256 11.256 0 01-10.114-9.165v-2.445c.457.981 2.981 5.776 8.653 5.657.079 0 .158.005.238.005A7.916 7.916 0 00181 73.95a7.916 7.916 0 00-8.012-7.816zM84.988 66.134a8.159 8.159 0 00-3.077.6 7.647 7.647 0 001.412-4.43 7.916 7.916 0 00-8.012-7.818 7.916 7.916 0 00-8.011 7.816 7.64 7.64 0 001.287 4.247 8.18 8.18 0 00-2.575-.415A7.916 7.916 0 0058 73.95a7.916 7.916 0 008.012 7.816 8.166 8.166 0 002.837-.506 11.117 11.117 0 006.18-5.333v2.621a11.256 11.256 0 01-10.117 9.165H63.5V89h24.127v-1.287h-1.413A11.256 11.256 0 0176.1 78.548v-2.445c.457.981 2.981 5.776 8.653 5.657.079 0 .158.005.238.005A7.916 7.916 0 0093 73.95a7.916 7.916 0 00-8.012-7.816zM31.135 69.665a5.2 5.2 0 00-1.954.378 4.814 4.814 0 00.9-2.8 5.014 5.014 0 00-5.09-4.936 5.014 5.014 0 00-5.091 4.938 4.81 4.81 0 00.822 2.682 5.218 5.218 0 00-1.635-.262A5.014 5.014 0 0014 74.607a5.014 5.014 0 005.087 4.938 5.208 5.208 0 001.8-.32 7.054 7.054 0 003.924-3.369v1.651a7.126 7.126 0 01-6.423 5.79h-.9v.81h15.32v-.81h-.9a7.127 7.127 0 01-6.418-5.79v-1.544a6.059 6.059 0 005.494 3.574h.151a5.014 5.014 0 005.087-4.93 5.014 5.014 0 00-5.087-4.942zM210.865 272.335a5.2 5.2 0 001.954-.378 4.814 4.814 0 00-.9 2.8 5.014 5.014 0 005.09 4.936 5.014 5.014 0 005.091-4.938 4.81 4.81 0 00-.822-2.682 5.218 5.218 0 001.635.262 5.014 5.014 0 005.087-4.942 5.014 5.014 0 00-5.087-4.938 5.208 5.208 0 00-1.8.32 7.054 7.054 0 00-3.924 3.369v-1.651a7.126 7.126 0 016.423-5.79h.9v-.81h-15.32v.81h.9a7.127 7.127 0 016.418 5.79v1.544a6.059 6.059 0 00-5.494-3.574h-.151a5.014 5.014 0 00-5.087 4.93 5.014 5.014 0 005.087 4.942z" fill="#1a1919"/>
  <text transform="translate(10 32)" font-size="20" font-family="Helvetica">
    <tspan x="0" y="15">9</tspan>
  </text>
  <g>
    <text transform="rotate(180 114 155)" font-size="20" font-family="Helvetica">
      <tspan x="0" y="15">9</tspan>
    </text>
  </g>
</svg>
