<?xml version="1.0" encoding="UTF-8" standalone="no"?><!DOCTYPE svg PUBLIC "-//W3C//DTD SVG 1.1//EN" "http://www.w3.org/Graphics/SVG/1.1/DTD/svg11.dtd"><svg width="100%" height="100%" viewBox="0 0 241 360" version="1.1" xmlns="http://www.w3.org/2000/svg" xmlns:xlink="http://www.w3.org/1999/xlink" xml:space="preserve" xmlns:serif="http://www.serif.com/" style="fill-rule:evenodd;clip-rule:evenodd;stroke-linejoin:round;stroke-miterlimit:2;"><rect id="t9" x="0.62" y="0" width="240" height="360" style="fill:none;"/><clipPath id="_clip1"><rect x="0.62" y="0" width="240" height="360"/></clipPath><g clip-path="url(#_clip1)"><g id="Layer1"><g id="Purple_Background"><path d="M240.62,30c0,-16.557 -13.443,-30 -30,-30l-180,0c-16.558,0 -30,13.443 -30,30l0,300c0,16.557 13.442,30 30,30l180,0c16.557,0 30,-13.443 30,-30l0,-300Z" style="fill:#8f25c4;"/></g><path d="M131.616,26.468c-1.264,0 -2.468,0.247 -3.566,0.693c1.031,-1.459 1.636,-3.227 1.636,-5.133c0,-5.003 -4.157,-9.059 -9.285,-9.059c-5.128,0 -9.285,4.056 -9.285,9.059c0,1.815 0.549,3.504 1.492,4.921c-0.937,-0.31 -1.941,-0.481 -2.985,-0.481c-5.128,0 -9.285,4.056 -9.285,9.059c0,5.003 4.157,9.058 9.285,9.058c1.158,0 2.266,-0.208 3.288,-0.586c0,0.002 4.322,-1.137 7.162,-6.181l0,3.037c0,0 -1.456,9.574 -11.724,10.622l-1.639,0l0,1.492l27.965,0l0,-1.492l-1.639,0c-10.268,-1.048 -11.725,-10.622 -11.725,-10.622l0,-2.832c0.529,1.136 3.455,6.694 10.029,6.556c0.092,0.002 0.184,0.006 0.276,0.006c5.128,0 9.285,-4.055 9.285,-9.058c0,-5.003 -4.157,-9.059 -9.285,-9.059Z" style="fill:#fff;fill-rule:nonzero;"/></g><path d="M104.678,222.201c9.069,0 16.331,-2.091 21.787,-6.274c5.456,-4.182 8.184,-9.949 8.184,-17.3c-1.559,1.14 -4.429,2.471 -8.609,3.992c-4.18,1.521 -9.53,2.282 -16.048,2.282c-6.519,0 -12.435,-0.824 -17.749,-2.472c-5.314,-1.648 -9.884,-4.087 -13.71,-7.319c-3.826,-3.232 -6.802,-7.193 -8.928,-11.883c-2.125,-4.689 -3.188,-10.139 -3.188,-16.35c0,-5.45 1.063,-10.614 3.188,-15.494c2.126,-4.88 5.314,-9.189 9.565,-12.928c4.252,-3.739 9.53,-6.717 15.836,-8.935c6.306,-2.218 13.639,-3.327 22,-3.327c16.721,0 29.865,5.006 39.43,15.019c9.565,10.013 14.348,24.271 14.348,42.776c0,10.52 -1.488,19.772 -4.464,27.757c-2.976,7.985 -7.121,14.639 -12.435,19.962c-5.314,5.323 -11.655,9.316 -19.024,11.977c-7.369,2.662 -15.517,3.993 -24.444,3.993c-11.337,0 -20.194,-1.395 -26.57,-4.183c-6.377,-2.788 -9.566,-7.034 -9.566,-12.738c0,-2.661 0.674,-5.228 2.02,-7.699c1.346,-2.472 2.94,-4.341 4.782,-5.609c3.826,1.521 7.83,2.694 12.01,3.517c4.18,0.824 8.042,1.236 11.585,1.236Zm13.603,-41.635c2.693,0 5.421,-0.507 8.184,-1.521c2.763,-1.014 5.066,-2.408 6.908,-4.183l0,-2.281c-0.142,-7.224 -1.559,-12.484 -4.251,-15.78c-2.692,-3.295 -6.66,-4.943 -11.903,-4.943c-4.677,0 -8.326,1.299 -10.947,3.898c-2.622,2.598 -3.933,6.115 -3.933,10.551c0,4.309 1.488,7.763 4.464,10.361c2.976,2.599 6.802,3.898 11.478,3.898Z" style="fill:#fff;fill-rule:nonzero;"/></g></svg>