<?xml version="1.0" encoding="UTF-8" standalone="no"?><!DOCTYPE svg PUBLIC "-//W3C//DTD SVG 1.1//EN" "http://www.w3.org/Graphics/SVG/1.1/DTD/svg11.dtd"><svg width="100%" height="100%" viewBox="0 0 240 360" version="1.1" xmlns="http://www.w3.org/2000/svg" xmlns:xlink="http://www.w3.org/1999/xlink" xml:space="preserve" xmlns:serif="http://www.serif.com/" style="fill-rule:evenodd;clip-rule:evenodd;stroke-linejoin:round;stroke-miterlimit:2;"><rect id="ta" x="0" y="0" width="240" height="360" style="fill:none;"/><clipPath id="_clip1"><rect x="0" y="0" width="240" height="360"/></clipPath><g clip-path="url(#_clip1)"><rect x="0" y="0" width="240" height="360" style="fill:#8f25c4;"/><g id="Layer1"></g><path d="M166.601,152.451c-5.355,0 -10.458,1.047 -15.111,2.938c4.369,-6.185 6.934,-13.677 6.934,-21.757c0,-21.201 -17.618,-38.389 -39.35,-38.389c-21.732,0 -39.349,17.188 -39.349,38.389c0,7.693 2.328,14.851 6.321,20.857c-3.97,-1.315 -8.222,-2.038 -12.648,-2.038c-21.732,0 -39.349,17.187 -39.349,38.389c0,21.201 17.617,38.389 39.349,38.389c4.908,0 9.603,-0.885 13.936,-2.487c-0.001,0.009 18.313,-4.815 30.351,-26.192l0,12.871c0,0 -6.172,40.572 -49.687,45.013l-6.945,0l0,6.323l118.511,0l0,-6.323l-6.944,0c-43.515,-4.441 -49.688,-45.013 -49.688,-45.013l0,-12.005c2.242,4.817 14.639,28.371 42.5,27.786c0.39,0.009 0.777,0.027 1.169,0.027c21.733,0 39.35,-17.188 39.35,-38.389c0,-21.202 -17.617,-38.389 -39.35,-38.389Z" style="fill:#fff;fill-rule:nonzero;"/></g></svg>