<?xml version="1.0" encoding="UTF-8" standalone="no"?><!DOCTYPE svg PUBLIC "-//W3C//DTD SVG 1.1//EN" "http://www.w3.org/Graphics/SVG/1.1/DTD/svg11.dtd"><svg width="100%" height="100%" viewBox="0 0 243 341" version="1.1" xmlns="http://www.w3.org/2000/svg" xmlns:xlink="http://www.w3.org/1999/xlink" xml:space="preserve" xmlns:serif="http://www.serif.com/" style="fill-rule:evenodd;clip-rule:evenodd;stroke-linejoin:round;stroke-miterlimit:2;"><rect id="ta" x="0.492" y="0.449" width="242" height="340" style="fill:none;"/><path d="M242.492,20.449c0,-11.038 -8.962,-20 -20,-20l-202,0c-11.039,0 -20,8.962 -20,20l0,300c0,11.038 8.961,20 20,20l202,0c11.038,0 20,-8.962 20,-20l0,-300Z" style="fill:#8f25c4;"/><g id="Layer1"><path d="M168.093,142.9c-5.355,0 -10.458,1.047 -15.112,2.938c4.37,-6.185 6.934,-13.677 6.934,-21.757c0,-21.201 -17.618,-38.389 -39.35,-38.389c-21.731,0 -39.349,17.188 -39.349,38.389c0,7.693 2.329,14.851 6.322,20.857c-3.971,-1.315 -8.222,-2.038 -12.648,-2.038c-21.732,0 -39.349,17.187 -39.349,38.389c0,21.201 17.617,38.389 39.349,38.389c4.908,0 9.603,-0.884 13.936,-2.486c-0.001,0.008 18.313,-4.816 30.351,-26.193l0,12.871c0,0 -6.172,40.572 -49.688,45.013l-6.944,0l0,6.323l118.51,0l0,-6.323l-6.943,0c-43.516,-4.441 -49.689,-45.013 -49.689,-45.013l0,-12.005c2.242,4.818 14.64,28.371 42.501,27.786c0.389,0.009 0.777,0.027 1.169,0.027c21.733,0 39.349,-17.188 39.349,-38.389c0,-21.202 -17.616,-38.389 -39.349,-38.389Z" style="fill:#fff;fill-rule:nonzero;"/></g></svg>