<svg xmlns="http://www.w3.org/2000/svg" viewBox="0 0 242 340">
  <rect width="242" height="340" rx="20" fill="#fff"/>
  <path d="M31.135 69.665a5.2 5.2 0 00-1.954.378 4.814 4.814 0 00.9-2.8 5.014 5.014 0 00-5.09-4.936 5.014 5.014 0 00-5.091 4.938 4.81 4.81 0 00.822 2.682 5.218 5.218 0 00-1.635-.262A5.014 5.014 0 0014 74.607a5.014 5.014 0 005.087 4.938 5.208 5.208 0 001.8-.32 7.054 7.054 0 003.924-3.369v1.651a7.126 7.126 0 01-6.423 5.79h-.9v.81h15.32v-.81h-.9a7.127 7.127 0 01-6.418-5.79v-1.544a6.059 6.059 0 005.494 3.574h.151a5.014 5.014 0 005.087-4.93 5.014 5.014 0 00-5.087-4.942zM210.865 272.335a5.2 5.2 0 001.954-.378 4.814 4.814 0 00-.9 2.8 5.014 5.014 0 005.09 4.936 5.014 5.014 0 005.091-4.938 4.81 4.81 0 00-.822-2.682 5.218 5.218 0 001.635.262 5.014 5.014 0 005.087-4.942 5.014 5.014 0 00-5.087-4.938 5.208 5.208 0 00-1.8.32 7.054 7.054 0 00-3.924 3.369v-1.651a7.126 7.126 0 016.423-5.79h.9v-.81h-15.32v.81h.9a7.127 7.127 0 016.418 5.79v1.544a6.059 6.059 0 00-5.494-3.574h-.151a5.014 5.014 0 00-5.087 4.93 5.014 5.014 0 005.087 4.942z" fill="#1a1919"/>
  <text transform="translate(10 32)" font-size="20" font-family="Helvetica">
    <tspan x="0" y="15">Q</tspan>
  </text>
  <text transform="rotate(180 114 155)" font-size="20" font-family="Helvetica">
    <tspan x="0" y="15">Q</tspan>
  </text>
  <g>
    <path d="M164.432 198.588c-.542.944-4.261 5.943-4.247 8.031.018 3.089 2.358 5.566 2.121 9.437-.3 5.015-4.108 8.162-3.539 10.323.385 1.461.963 4.294 1.418 5.735 2.574 8.167-2.124 25.322-4.956 33.5-2.085 6.015-5.19 11.519-11.6 11.519h-38.575c-6.4 0-9.51-5.5-11.59-11.519-2.835-8.175-7.535-25.33-4.956-33.5.453-1.44 1.027-4.273 1.413-5.735.571-2.161-3.232-5.308-3.539-10.323-.236-3.872 2.106-6.349 2.124-9.438.011-2.088-3.706-7.087-4.25-8.031-4.718-8.205 2.834-16.615 2.834-16.615 0-6.365 11.566-7.465 17.968-7.465h38.577c6.4 0 17.965 1.1 17.965 7.465 0 0 7.553 8.41 2.832 16.616" fill="#775b35"/>
    <path d="M124.895 220.185c20.373 0 37.665-22.616 40.073-44.144h-79c2.265 21.528 18.555 44.144 38.927 44.144" fill="#e34e45"/>
    <path d="M164.971 176.041a45.859 45.859 0 00.287-5.041H85.697a48.329 48.329 0 00.271 5.041h79M105.824 210.552c0-6.627 8.45-25.769 18.874-25.769s18.874 19.142 18.874 25.769-8.45 12-18.874 12-18.874-5.369-18.874-12" fill="#fff"/>
    <path d="M110.043 213.887c0-6.376 6.21-23.911 14.3-23.911s15.01 17.535 15.01 23.911-6.56 11.544-14.655 11.544-14.655-5.169-14.655-11.544M78.063 214.993a9.627 9.627 0 0019.253 0v-.926H78.063v.926" fill="#f1d2ac"/>
    <path d="M109.89 214.346l-.96 3.088 1.929-2.6a4.134 4.134 0 011.5-1.008 3.8 3.8 0 00.61-.33 2.084 2.084 0 00.484-2.6 3.13 3.13 0 01-.131-.513l.039-.071.482-.492a4.067 4.067 0 011.637-.782 3.615 3.615 0 00.64-.226 1.836 1.836 0 00.939-1.952c-.013-.16-.035-.319-.055-.474a2.891 2.891 0 01-.043-.574l.035-.056.569-.385a2.666 2.666 0 011.19-.346c.211-.018.41-.024.582-.029a3.877 3.877 0 00.593-.041 1.787 1.787 0 001.408-1.543l.092-.42a3.225 3.225 0 01.137-.54l.056-.035.677-.131a1.263 1.263 0 01.544.04 2.143 2.143 0 01.571.215 3.894 3.894 0 01.535.322l.377.228a1.488 1.488 0 001.116.085 2.412 2.412 0 00.818-.471l.21-.168a5.724 5.724 0 01.537-.409l.1.011.565.348a2.24 2.24 0 01.727.937c.1.207.173.4.239.567a3.422 3.422 0 00.227.5 1.658 1.658 0 00.963.747 2.768 2.768 0 001 .037l.426-.067a3.884 3.884 0 01.54-.069h.047l.088.052.385.542a3.939 3.939 0 01.456 1.753 3.8 3.8 0 00.1.638c.348 1.242 1.545 1.309 2.261 1.349.189.011.471.027.519.042l.073.069.289.628a4.1 4.1 0 01.16 1.8 3.939 3.939 0 000 .691c.161 1.295 1.34 1.533 2.048 1.678.181.035.455.09.5.111l2 2.538-1.047-3.018a2.408 2.408 0 01.123-.5 2.217 2.217 0 00-.59-2.754 4.257 4.257 0 00-.808-.367 4.74 4.74 0 01-1.49-.776l-.019-.019-.36-.699a2.6 2.6 0 01.047-.511 2.22 2.22 0 00-1-2.65 4.425 4.425 0 00-.916-.255 4.959 4.959 0 01-1.574-.508l-.044-.029-.482-.6a2.517 2.517 0 01-.061-.473 6.35 6.35 0 00-.081-.684 1.924 1.924 0 00-1.6-1.735 4.85 4.85 0 00-1.089.01l-.323.026a6.446 6.446 0 01-1.185.018l-.9-.4-.24-.335a4.864 4.864 0 00-.489-.659 2.154 2.154 0 00-1.608-.8 2.069 2.069 0 00-.842.187 5.186 5.186 0 00-1.165.9l-.568.521a3.265 3.265 0 01-.492.361l-.05.03-.755.178a2.547 2.547 0 01-.479-.115 7.087 7.087 0 00-.711-.183 2.5 2.5 0 00-1.145.053 1.944 1.944 0 00-1.063.868 4.642 4.642 0 00-.334.979 5.687 5.687 0 01-.551 1.472l-.669.542a2.422 2.422 0 01-.485.045c-.21.008-.435.018-.658.048a1.921 1.921 0 00-1.8 1.455 4.405 4.405 0 00-.066.9 4.768 4.768 0 01-.2 1.65l-.022.056-.5.554a2.653 2.653 0 01-.5.138c-.7.151-2 .429-2.137 1.844a4.348 4.348 0 00.068.875 4.692 4.692 0 01.029 1.676" fill="#e6a52e"/>
    <path d="M100.401 241.786c0-17.092 10.924-35.167 24.4-35.167s24.4 18.075 24.4 35.167-1.9 30.948-24.4 30.948c-24.4 0-24.4-13.855-24.4-30.948" fill="#f1d2ac"/>
    <path d="M155.532 258.821c0-6.361-1.887-9.859-9.576-12.011-7.761-2.173-19.936-3.036-27.069-.423s-13.567 10.694-15.93 14.175c-1.978 2.912-1.536 9.973-1.536 9.973 0 6.361 8.023 12.221 14.427 12.221h13.931c12.958 0 19.235-5.98 23.16-11.956 2.3-3.493 2.6-11.979 2.6-11.979" fill="#775b35"/>
    <path d="M125.111 302.022a1.378 1.378 0 00-.953-.514 1.565 1.565 0 00-.975.467c-2.418-4.827-5.065-10.119-7.868-15.729l-.048-.1c-.184-.368-.343-.685-.676-.685a1.774 1.774 0 00-.952.479 59.4 59.4 0 00-5.6 5.333c-.768.8-1.494 1.548-2.214 2.26l-.066.085.235.187a2.759 2.759 0 01.859 3.131 2.791 2.791 0 01-2.63 1.817 2.836 2.836 0 01-1.4-.371 2.78 2.78 0 011.32-5.2h.066l.208-.023-.68-5.638-.615-5.1c-.022-.186-.165-1.116-.831-1.116a1.272 1.272 0 00-.686.259c-2.458 1.666-7.062 5.547-7.173 5.655l.151.222a2.3 2.3 0 01-1.962 3.594h-.144a2.279 2.279 0 01-2.058-1.695l-.042-.055v-1.093l.039-.061a1.91 1.91 0 01.539-.984 2.274 2.274 0 011.678-.718c.093 0 .189 0 .286.015l.258-.008.037-.262c.057-.444.111-.894.163-1.329l.011-.093q.063-.525.129-1.053c.033-.265.065-.528.1-.79l.06-.537q.075-.626.153-1.255c.064-.494.125-1 .185-1.483l.041-.331q.068-.558.134-1.117v-.015l.135-1.128q.068-.564.142-1.11v-.006l.154-1.24.068-.322.239-.032c.214-.02.443-.041.67-.066s.483-.047.717-.071c.209-.021.416-.043.623-.062.258-.025.522-.049.777-.072l.485-.044.336-.033c.346-.032.7-.066 1.054-.095l.756-.056.756-.058 1-.076a104.546 104.546 0 013.375-.215c.85-.051 1.736-.1 2.634-.144.634-.035 1.286-.064 1.916-.092h.04l.777-.035c.169-.007.342-.012.509-.016s.34-.013.508-.013l.849-.031c.425-.016.861-.033 1.291-.045.5-.016 1.013-.026 1.508-.036h.014l.791-.017.689-.014h.031c.555-.012 1.129-.024 1.7-.033.749-.017 1.515-.024 2.256-.024h.229c1.245 0 2.516 0 3.883.01q.865 0 1.727.012h.026l1.109.008c.475.005.836.012 1.171.023q.666.011 1.329.027l.89.02h.277c.268 0 .545.009.817.016.449.012.907.029 1.349.045l.914.039q.994.039 1.991.074h.007l.713.026c.8.033 1.59.065 2.386.1.515.021 1.038.047 1.543.072l.171.008 1.07.059h.008l1.062.058.115.003c.63.036 1.282.073 1.927.114.267.016.526.033.8.052l.116.008 1.757.126c.314.025.633.047.941.068h.005l.718.051a352.56 352.56 0 013.994.341l.208.038c.051.531.089 1.071.125 1.593.02.284.04.566.062.848.037.464.069.936.1 1.391l.072 1.026q.06.826.124 1.655v.006l.059.78c.054.789.109 1.6.173 2.416.023.3.044.59.064.883.036.506.072 1.03.119 1.538l.04.028.148.011a2.2 2.2 0 011.259.406 2.249 2.249 0 01.938 1.384l.106.242v.545l-.1.214a2.325 2.325 0 01-2.255 1.814 2.433 2.433 0 01-.51-.055 2.3 2.3 0 01-1.777-2.688 2.257 2.257 0 01.833-1.371l.153-.136a5289.356 5289.356 0 00-4.45-4l-.977-.878-.172-.15c-.428-.392-1.014-.928-1.415-.928-.191 0-.321.127-.386.377a11.083 11.083 0 00-.231 1.326c-.029.221-.06.45-.1.674q-.079.494-.162.985l-.159.966-.13.792v.026q-.1.578-.19 1.157l-.077.468c-.082.495-.166 1.007-.247 1.51-.108.649-.22 1.318-.324 1.976l-.118.723c-.057.35-.116.706-.171 1.06v.125l.161.008a2.714 2.714 0 011.851.846 2.685 2.685 0 01.708 2.581 2.787 2.787 0 01-2.71 2.139 3.058 3.058 0 01-.565-.053 2.782 2.782 0 01-2.2-3.3 2.755 2.755 0 01.994-1.61l.178-.176-.137-.142c-.451-.44-.917-.894-1.377-1.349l-.587-.575-1.773-1.737q-.825-.814-1.651-1.625l-.642-.644-.848-.838-1.061-1.047a.738.738 0 00-.5-.155 1.148 1.148 0 00-1.025.631c-1.784 3.359-7.036 13.341-8.376 15.941zm-.989-25.367c-.264 0-.528.23-.782.683-.68 1.214-1.768 3.158-2.24 4.006l-.2.357-.04.078a6.384 6.384 0 00-.4 1.011 7.527 7.527 0 00-.313 2.174 7.218 7.218 0 00.64 3.027l.057.127.032.056c.076.155.159.3.239.429.357.639.71 1.262 1.022 1.811.594 1.047 1.063 1.874 1.311 2.368.194.387.412.584.646.584.408 0 .728-.6.731-.607l2-3.665.012-.01a5.692 5.692 0 00.853-1.568l.229-.418v-.318a7.668 7.668 0 00-.031-3.765l-.005-.225-.155-.28a5.627 5.627 0 00-.962-1.751l-1.86-3.374c0-.007-.317-.734-.785-.734zm15.043.211c-1.226 0-2.223 1.569-2.223 3.5s1 3.5 2.223 3.5 2.221-1.57 2.221-3.5-.997-3.5-2.222-3.5zm-29.256 0c-1.225 0-2.221 1.569-2.221 3.5s1 3.5 2.221 3.5 2.22-1.57 2.22-3.5-.997-3.5-2.221-3.5zm40.63 0a1.749 1.749 0 101.76 1.75 1.755 1.755 0 00-1.761-1.75zm-52.008 0a1.749 1.749 0 101.76 1.75 1.755 1.755 0 00-1.761-1.75z" fill="#e6a52e"/>
    <path d="M94.561 272.708h-.158c.024-.671.068-1.338.1-2s.063-1.331.1-2 .06-1.328.108-2l.134-.034c.537-.053 1.073-.106 1.608-.162.424-.042.844-.087 1.261-.125.442-.043.879-.082 1.316-.12.5-.042 1-.087 1.489-.127s1.013-.083 1.516-.117c.612-.046 1.224-.088 1.837-.135.29-.021.579-.038.871-.056l2.06-.115c.839-.045 1.674-.088 2.51-.121a160.13 160.13 0 011.968-.082c.687-.027 1.374-.056 2.061-.077.344-.01.681-.013 1.024-.021.619-.02 1.243-.036 1.864-.05q.513-.014 1.018-.019c1.232-.015 2.455-.026 3.689-.032a278.93 278.93 0 013.039-.019c1.244 0 2.489.018 3.732.035.865.01 1.727.027 2.589.048q1.173.026 2.34.064c.976.03 1.958.062 2.934.1.789.032 1.576.062 2.361.1l3.061.151c.81.042 1.621.088 2.435.133.635.038 1.273.088 1.911.13.59.039 1.179.07 1.764.112s1.142.085 1.713.13l1.487.115q.682.053 1.366.115c.489.042.976.091 1.463.136l.152.022.031.284c.029.518.053 1.037.077 1.559.032.63.068 1.264.1 1.9s.071 1.285.1 1.926l.021.372-.155.038c-.663-.066-1.323-.136-1.981-.2-.615-.061-1.224-.114-1.837-.168q-.977-.091-1.958-.176c-.51-.042-1.026-.077-1.535-.119-.547-.042-1.094-.085-1.64-.123a35.43 35.43 0 00-.868-.062c-.666-.042-1.324-.08-1.987-.119q-1.132-.07-2.265-.133-1.016-.058-2.037-.1c-.8-.038-1.608-.07-2.411-.1-.706-.024-1.41-.045-2.116-.062-.632-.018-1.258-.035-1.89-.05-.869-.021-1.74-.027-2.615-.051-2.066-.053-4.132-.032-6.2-.04-.526 0-1.047 0-1.568.011-1.048.014-2.1.029-3.139.05-.821.013-1.642.038-2.465.062a263.175 263.175 0 00-5.25.2c-.926.043-1.853.085-2.781.136-.945.056-1.889.12-2.831.183-.823.053-1.64.1-2.461.165-.726.053-1.456.119-2.182.178-.455.038-.91.074-1.365.117-.6.051-1.206.112-1.808.175-.565.049-1.134.112-1.707.168" fill="#d28b2f"/>
    <path d="M98.53 280.365a1.749 1.749 0 111.76-1.75 1.75 1.75 0 01-1.76 1.75" fill="#13a2a4"/>
    <path d="M109.908 283.865c-1.227 0-2.221-1.568-2.221-3.5s.994-3.5 2.221-3.5 2.221 1.569 2.221 3.5-.994 3.5-2.221 3.5M120.137 306.932c-1.227-1.016-.589-1.346 0-1.934.39-.388 2-1.982 3.042-3.025l.3.6.018.083-.205.07a3.107 3.107 0 00-2.132 2.109 3.166 3.166 0 002.343 4.023l.306.07h.8l.089-.04a3.163 3.163 0 00.313-6.2l-.211-.056c.011-.026.121-.242.311-.61.937.928 2.281 2.259 2.8 2.794.832.859 1.4.918 0 2.309s-1.948 1.94-2.558 2.528c-1.079 1.043-1.316 1.145-2.284.189l-2.932-2.91" fill="#e34e45"/>
    <path d="M120.78 287.992c-.56-1.376.053-6.049.074-6.209l.04-.079c.042-.07.111-.192.2-.357a3.642 3.642 0 013.039-1.964 3.406 3.406 0 012.62 1.376l.963 1.751c.06.165.111.333.16.5l.03 3.773a5.558 5.558 0 01-.226.735l-.853 1.565-.011.01a3.444 3.444 0 01-2.682 1.45 3.651 3.651 0 01-3.027-1.939l-.238-.429-.089-.183" fill="#13a2a4"/>
    <path d="M123.503 308.858a3.166 3.166 0 01-2.344-4.024 3.107 3.107 0 012.133-2.108l.208-.071-.018-.083-.3-.6a1.193 1.193 0 011.932.049c-.19.369-.3.585-.311.61l.208.059a3.163 3.163 0 01-.313 6.2l-.089.04h-.795l-.306-.07M139.165 283.865c-1.223 0-2.223-1.568-2.223-3.5s1-3.5 2.223-3.5 2.221 1.569 2.221 3.5-.996 3.5-2.221 3.5" fill="#e34e45"/>
    <path d="M150.538 280.365a1.749 1.749 0 111.76-1.75 1.75 1.75 0 01-1.76 1.75" fill="#13a2a4"/>
    <path d="M81.32 224.278c-.166 0-.344.008-.527.022-2.2.2-5.855 1.575-5.661 8.647 0 0-.011 1.107.8.393a16.171 16.171 0 014.56-2.584 8.451 8.451 0 001.771-.86 41.081 41.081 0 01-1.919 5.456 3.986 3.986 0 000 3.019l1.273-.311c.115-1.331 1.819-7.112 3.185-12.741a3.952 3.952 0 00.111-.468c.4-1.663.763-3.3 1.042-4.8 1.165 4.583 2.966 6.2 7.006 8.108a56.277 56.277 0 019.259 6.114s.576.96.816-.309c2.348-12.48-5.163-16.274-9.61-17.172q-.552-.111-1.065-.173a9.13 9.13 0 00-5.823.976c-.047-.2-.092-.375-.129-.532.569-5.233.656-8.268 0-11.06h-2.036c.073.335.139.662.216 1 1.216 5.308.3 12.182-1 17.84a4.459 4.459 0 00-2.269-.565" fill="#c5c158"/>
    <path d="M80.485 239.233s7.658 8.875-3.955 16.42l-.29.189 1.369.205s-5.553 3.472-5.209 1.833 1.384-4.994 0-8.74.713-11.824 8.085-9.907" fill="#e34e45"/>
    <path d="M93.392 258.878c1.316 2.317-12.551-3.16-13.945-19.936 0 0 7.785-.418 11.556 4.328 0 0 3.535 2.874 1.258 8.49 0 0-.189 4.8 1.131 7.117" fill="#e34e45"/>
    <path d="M82.203 246.286s8.423 6.848 2.515 13.592c-2.044 2.822-1.972 4.467-3.142 3.746s-5.16-.65-6.411-5.744c-.27-1.482-1.509-10.578 7.038-11.594M85.918 240.989s6.218.127 6.09-6.741c.01-.3-.3-.561-.9-.474a9.558 9.558 0 00-2.871.974 3.791 3.791 0 00.169-2.299c-.11-.445-.821-.905-1.155-.22a7.85 7.85 0 01-4.8 4.392c-3.9 1-6.05 1.21-4.974 2.915s3.734 1.451 8.441 1.453" fill="#e34e45"/>
    <path d="M78.063 214.614h19.253v-4.767H78.063z" fill="#fff"/>
    <path d="M78.063 209.847h19.253v-33.806H78.063z" fill="#e34e45"/>
    <g>
      <path d="M79.568 143.412c.542-.944 4.261-5.943 4.247-8.031-.018-3.089-2.358-5.566-2.121-9.437.3-5.015 4.108-8.162 3.539-10.323-.385-1.461-.963-4.294-1.418-5.735-2.574-8.167 2.124-25.322 4.956-33.5 2.085-6.015 5.19-11.519 11.6-11.519h38.575c6.4 0 9.51 5.5 11.59 11.519 2.835 8.175 7.535 25.33 4.956 33.5-.453 1.44-1.027 4.273-1.413 5.735-.571 2.161 3.232 5.308 3.539 10.323.236 3.872-2.106 6.349-2.124 9.438-.011 2.088 3.706 7.087 4.25 8.031 4.718 8.205-2.834 16.615-2.834 16.615 0 6.365-11.566 7.465-17.968 7.465h-38.577c-6.4 0-17.965-1.1-17.965-7.465 0 0-7.553-8.41-2.832-16.616" fill="#775b35"/>
      <path d="M119.105 121.815c-20.373 0-37.665 22.616-40.073 44.144h79c-2.265-21.528-18.555-44.144-38.927-44.144" fill="#e34e45"/>
      <path d="M79.029 165.959a45.859 45.859 0 00-.287 5.041h79.561a48.329 48.329 0 00-.271-5.041h-79M138.176 131.448c0 6.627-8.45 25.769-18.874 25.769s-18.874-19.142-18.874-25.769 8.45-12 18.874-12 18.874 5.369 18.874 12" fill="#fff"/>
      <path d="M133.957 128.113c0 6.376-6.21 23.911-14.3 23.911s-15.01-17.535-15.01-23.911 6.56-11.544 14.655-11.544 14.655 5.169 14.655 11.544M165.937 127.007a9.627 9.627 0 00-19.253 0v.926h19.253v-.926" fill="#f1d2ac"/>
      <path d="M134.11 127.654l.96-3.088-1.929 2.6a4.134 4.134 0 01-1.5 1.008 3.8 3.8 0 00-.61.33 2.084 2.084 0 00-.484 2.6 3.13 3.13 0 01.131.513l-.039.071-.482.492a4.067 4.067 0 01-1.637.782 3.615 3.615 0 00-.64.226 1.836 1.836 0 00-.939 1.952c.013.16.035.319.055.474a2.891 2.891 0 01.043.574l-.035.056-.569.385a2.666 2.666 0 01-1.19.346c-.211.018-.41.024-.582.029a3.877 3.877 0 00-.593.041 1.787 1.787 0 00-1.408 1.543l-.092.42a3.225 3.225 0 01-.137.54l-.056.035-.677.131a1.263 1.263 0 01-.544-.04 2.143 2.143 0 01-.571-.215 3.894 3.894 0 01-.535-.322l-.377-.228a1.488 1.488 0 00-1.116-.085 2.412 2.412 0 00-.818.471l-.21.168a5.724 5.724 0 01-.537.409l-.1-.011-.565-.348a2.24 2.24 0 01-.727-.937c-.1-.207-.173-.4-.239-.567a3.422 3.422 0 00-.227-.5 1.658 1.658 0 00-.963-.747 2.768 2.768 0 00-1-.037l-.426.067a3.884 3.884 0 01-.54.069h-.047l-.088-.052-.385-.542a3.939 3.939 0 01-.456-1.753 3.8 3.8 0 00-.1-.638c-.348-1.242-1.545-1.309-2.261-1.349-.189-.011-.471-.027-.519-.042l-.073-.069-.289-.628a4.1 4.1 0 01-.16-1.8 3.939 3.939 0 000-.691c-.161-1.295-1.34-1.533-2.048-1.678a5.316 5.316 0 01-.5-.111l-2-2.538 1.047 3.018a2.408 2.408 0 01-.123.5 2.217 2.217 0 00.59 2.754 4.257 4.257 0 00.808.367 4.74 4.74 0 011.49.776l.019.019.36.699a2.6 2.6 0 01-.047.511 2.22 2.22 0 001 2.65 4.425 4.425 0 00.916.255 4.959 4.959 0 011.574.508l.044.029.482.6a2.517 2.517 0 01.061.473 6.35 6.35 0 00.081.684 1.924 1.924 0 001.6 1.735 4.85 4.85 0 001.089-.01l.323-.026a6.446 6.446 0 011.185-.018l.9.4.24.335a4.864 4.864 0 00.489.659 2.154 2.154 0 001.608.8 2.069 2.069 0 00.842-.187 5.186 5.186 0 001.165-.9l.568-.521a3.265 3.265 0 01.492-.361l.05-.03.755-.178a2.547 2.547 0 01.479.115 7.087 7.087 0 00.711.183 2.5 2.5 0 001.145-.053 1.944 1.944 0 001.063-.868 4.642 4.642 0 00.334-.979 5.687 5.687 0 01.551-1.472l.669-.542a2.422 2.422 0 01.485-.045c.21-.008.435-.018.658-.048a1.921 1.921 0 001.8-1.455 4.405 4.405 0 00.066-.9 4.768 4.768 0 01.2-1.65l.022-.056.5-.554a2.653 2.653 0 01.5-.138c.7-.151 2-.429 2.137-1.844a4.348 4.348 0 00-.068-.875 4.692 4.692 0 01-.029-1.676" fill="#e6a52e"/>
      <path d="M143.599 100.214c0 17.092-10.924 35.167-24.4 35.167s-24.4-18.075-24.4-35.167 1.9-30.948 24.4-30.948c24.4 0 24.4 13.855 24.4 30.948" fill="#f1d2ac"/>
      <path d="M88.468 83.179c0 6.361 1.887 9.859 9.576 12.011 7.761 2.173 19.936 3.036 27.069.423s13.567-10.694 15.93-14.175c1.978-2.912 1.536-9.973 1.536-9.973 0-6.361-8.023-12.221-14.427-12.221h-13.931c-12.958 0-19.235 5.98-23.16 11.956-2.3 3.493-2.6 11.979-2.6 11.979" fill="#775b35"/>
      <path d="M118.889 39.978a1.378 1.378 0 00.953.514 1.565 1.565 0 00.975-.467c2.418 4.827 5.065 10.119 7.868 15.729l.048.1c.184.368.343.685.676.685a1.774 1.774 0 00.952-.479 59.4 59.4 0 005.6-5.333c.768-.8 1.494-1.548 2.214-2.26l.066-.085-.235-.187a2.759 2.759 0 01-.859-3.131 2.791 2.791 0 012.63-1.817 2.836 2.836 0 011.4.371 2.78 2.78 0 01-1.32 5.2h-.066l-.208.023.68 5.638.615 5.1c.022.186.165 1.116.831 1.116a1.272 1.272 0 00.686-.259c2.458-1.666 7.062-5.547 7.173-5.655l-.151-.222a2.3 2.3 0 011.962-3.594h.144a2.279 2.279 0 012.058 1.695l.042.055v1.093l-.039.061a1.91 1.91 0 01-.539.984 2.274 2.274 0 01-1.678.718c-.093 0-.189 0-.286-.015l-.258.008-.037.262c-.057.444-.111.894-.163 1.329l-.011.093q-.063.525-.129 1.053c-.033.265-.065.528-.1.79l-.06.537q-.075.626-.153 1.255c-.064.494-.125 1-.185 1.483l-.041.331q-.068.558-.134 1.117v.015l-.135 1.128q-.068.564-.142 1.11v.006l-.154 1.24-.068.322-.239.032c-.214.02-.443.041-.67.066s-.483.047-.717.071c-.209.021-.416.043-.623.062-.258.025-.522.049-.777.072l-.485.044-.336.033c-.346.032-.7.066-1.054.095l-.756.056-.756.058-1 .076a104.546 104.546 0 01-3.375.215c-.85.051-1.736.1-2.634.144-.634.035-1.286.064-1.916.092h-.04l-.777.035c-.169.007-.342.012-.509.016s-.34.013-.508.013l-.849.031c-.425.016-.861.033-1.291.045-.5.016-1.013.026-1.508.036h-.014l-.791.017-.689.014h-.031c-.555.012-1.129.024-1.7.033-.749.017-1.515.024-2.256.024h-.229c-1.245 0-2.516 0-3.883-.01q-.865 0-1.727-.012h-.026l-1.109-.008a51.852 51.852 0 01-1.171-.023q-.666-.011-1.329-.027l-.89-.02h-.277c-.268 0-.545-.009-.817-.016-.449-.012-.907-.029-1.349-.045l-.914-.039q-.994-.039-1.991-.074h-.007l-.713-.026c-.8-.033-1.59-.065-2.386-.1-.515-.021-1.038-.047-1.543-.072l-.171-.008-1.07-.059h-.008l-1.062-.058-.115-.003c-.63-.036-1.282-.073-1.927-.114a84.353 84.353 0 01-.8-.052l-.116-.008-1.757-.126a83.409 83.409 0 00-.941-.068h-.005l-.718-.051a352.56 352.56 0 01-3.994-.341l-.208-.038a59.727 59.727 0 01-.125-1.593c-.02-.284-.04-.566-.062-.848-.037-.464-.069-.936-.1-1.391l-.072-1.026q-.06-.826-.124-1.655v-.006l-.059-.78c-.054-.789-.109-1.6-.173-2.416-.023-.3-.044-.59-.064-.883-.036-.506-.072-1.03-.119-1.538l-.04-.028-.148-.011a2.2 2.2 0 01-1.259-.406 2.249 2.249 0 01-.938-1.384l-.106-.242v-.545l.1-.214a2.325 2.325 0 012.255-1.814 2.433 2.433 0 01.51.055 2.3 2.3 0 011.777 2.688 2.257 2.257 0 01-.833 1.371l-.153.136c1.487 1.338 2.993 2.692 4.45 4l.977.878.172.15c.428.392 1.014.928 1.415.928.191 0 .321-.127.386-.377a11.083 11.083 0 00.231-1.326c.029-.221.06-.45.1-.674q.079-.494.162-.985l.159-.966.13-.792v-.026q.1-.578.19-1.157l.077-.468c.082-.495.166-1.007.247-1.51.108-.649.22-1.318.324-1.976l.118-.723c.057-.35.116-.706.171-1.06v-.125l-.161-.008a2.714 2.714 0 01-1.851-.846 2.685 2.685 0 01-.708-2.581 2.787 2.787 0 012.71-2.139 3.058 3.058 0 01.565.053 2.782 2.782 0 012.2 3.3 2.755 2.755 0 01-.994 1.61l-.178.176.137.142c.451.44.917.894 1.377 1.349l.587.575 1.773 1.737q.825.814 1.651 1.625l.642.644.848.838 1.061 1.047a.738.738 0 00.5.155 1.148 1.148 0 001.025-.631c1.784-3.359 7.036-13.341 8.376-15.941zm.989 25.367c.264 0 .528-.23.782-.683.68-1.214 1.768-3.158 2.24-4.006l.2-.357.04-.078a6.384 6.384 0 00.4-1.011 7.527 7.527 0 00.313-2.174 7.218 7.218 0 00-.64-3.027l-.057-.127-.032-.056a4.976 4.976 0 00-.239-.429c-.357-.639-.71-1.262-1.022-1.811-.594-1.047-1.063-1.874-1.311-2.368-.194-.387-.412-.584-.646-.584-.408 0-.728.6-.731.607l-2 3.665-.012.01a5.692 5.692 0 00-.853 1.568l-.229.418v.318a7.668 7.668 0 00.031 3.765l.005.225.155.28a5.627 5.627 0 00.962 1.751l1.86 3.374c0 .007.317.734.785.734zm-15.043-.211c1.226 0 2.223-1.569 2.223-3.5s-1-3.5-2.223-3.5-2.221 1.57-2.221 3.5.997 3.5 2.222 3.5zm29.256 0c1.225 0 2.221-1.569 2.221-3.5s-1-3.5-2.221-3.5-2.22 1.57-2.22 3.5.997 3.5 2.221 3.5zm-40.63 0a1.749 1.749 0 10-1.76-1.75 1.755 1.755 0 001.761 1.75zm52.008 0a1.749 1.749 0 10-1.76-1.75 1.755 1.755 0 001.761 1.75z" fill="#e6a52e"/>
      <path d="M149.439 69.292h.158c-.024.671-.068 1.338-.1 2s-.063 1.331-.1 2-.06 1.328-.108 2l-.134.034c-.537.053-1.073.106-1.608.162-.424.042-.844.087-1.261.125-.442.043-.879.082-1.316.12-.5.042-1 .087-1.489.127s-1.013.083-1.516.117c-.612.046-1.224.088-1.837.135-.29.021-.579.038-.871.056l-2.06.115c-.839.045-1.674.088-2.51.121-.655.032-1.311.058-1.968.082-.687.027-1.374.056-2.061.077-.344.01-.681.013-1.024.021-.619.02-1.243.036-1.864.05q-.513.014-1.018.019c-1.232.015-2.455.026-3.689.032a278.93 278.93 0 01-3.039.019c-1.244 0-2.489-.018-3.732-.035-.865-.01-1.727-.027-2.589-.048q-1.173-.026-2.34-.064c-.976-.03-1.958-.062-2.934-.1-.789-.032-1.576-.062-2.361-.1l-3.061-.151c-.81-.042-1.621-.088-2.435-.133-.635-.038-1.273-.088-1.911-.13-.59-.039-1.179-.07-1.764-.112s-1.142-.085-1.713-.13l-1.487-.115q-.682-.053-1.366-.115c-.489-.042-.976-.091-1.463-.136l-.152-.022-.031-.284c-.029-.518-.053-1.037-.077-1.559-.032-.63-.068-1.264-.1-1.9s-.071-1.285-.1-1.926l-.021-.372.155-.038c.663.066 1.323.136 1.981.2.615.061 1.224.114 1.837.168q.977.091 1.958.176c.51.042 1.026.077 1.535.119.547.042 1.094.085 1.64.123.289.024.577.045.868.062.666.042 1.324.08 1.987.119q1.132.07 2.265.133 1.016.058 2.037.1c.8.038 1.608.07 2.411.1.706.024 1.41.045 2.116.062.632.018 1.258.035 1.89.05.869.021 1.74.027 2.615.051 2.066.053 4.132.032 6.2.04.526 0 1.047 0 1.568-.011 1.048-.014 2.1-.029 3.139-.05.821-.013 1.642-.038 2.465-.062a263.175 263.175 0 005.25-.2c.926-.043 1.853-.085 2.781-.136.945-.056 1.889-.12 2.831-.183.823-.053 1.64-.1 2.461-.165.726-.053 1.456-.119 2.182-.178.455-.038.91-.074 1.365-.117.6-.051 1.206-.112 1.808-.175.565-.049 1.134-.112 1.707-.168" fill="#d28b2f"/>
      <path d="M145.47 61.635a1.749 1.749 0 11-1.76 1.75 1.75 1.75 0 011.76-1.75" fill="#13a2a4"/>
      <path d="M134.092 58.135c1.227 0 2.221 1.568 2.221 3.5s-.994 3.5-2.221 3.5-2.221-1.569-2.221-3.5.994-3.5 2.221-3.5M123.863 35.068c1.227 1.016.589 1.346 0 1.934-.39.388-2 1.982-3.042 3.025l-.3-.6-.018-.083.205-.07a3.107 3.107 0 002.132-2.109 3.166 3.166 0 00-2.343-4.023l-.306-.07h-.8l-.089.04a3.163 3.163 0 00-.313 6.2l.211.056c-.011.026-.121.242-.311.61-.937-.928-2.281-2.259-2.8-2.794-.832-.859-1.4-.918 0-2.309s1.948-1.94 2.558-2.528c1.079-1.043 1.316-1.145 2.284-.189l2.932 2.91" fill="#e34e45"/>
      <path d="M123.22 54.008c.56 1.376-.053 6.049-.074 6.209l-.04.079c-.042.07-.111.192-.2.357a3.642 3.642 0 01-3.039 1.964 3.406 3.406 0 01-2.62-1.376l-.963-1.751a8.289 8.289 0 01-.16-.5l-.03-3.773a5.558 5.558 0 01.226-.735l.853-1.565.011-.01a3.444 3.444 0 012.682-1.45 3.651 3.651 0 013.027 1.939l.238.429.089.183" fill="#13a2a4"/>
      <path d="M120.497 33.142a3.166 3.166 0 012.344 4.024 3.107 3.107 0 01-2.133 2.108l-.208.071.018.083.3.6a1.193 1.193 0 01-1.932-.049c.19-.369.3-.585.311-.61l-.208-.059a3.163 3.163 0 01.313-6.2l.089-.04h.795l.306.07M104.835 58.135c1.223 0 2.223 1.568 2.223 3.5s-1 3.5-2.223 3.5-2.221-1.569-2.221-3.5.996-3.5 2.221-3.5" fill="#e34e45"/>
      <path d="M93.462 61.635a1.749 1.749 0 11-1.76 1.75 1.75 1.75 0 011.76-1.75" fill="#13a2a4"/>
      <path d="M162.68 117.722c.166 0 .344-.008.527-.022 2.2-.2 5.855-1.575 5.661-8.647 0 0 .011-1.107-.8-.393a16.171 16.171 0 01-4.56 2.584 8.451 8.451 0 00-1.771.86 41.081 41.081 0 011.919-5.456 3.986 3.986 0 000-3.019l-1.273.311c-.115 1.331-1.819 7.112-3.185 12.741a3.952 3.952 0 00-.111.468c-.4 1.663-.763 3.3-1.042 4.8-1.165-4.583-2.966-6.2-7.006-8.108a56.277 56.277 0 01-9.259-6.114s-.576-.96-.816.309c-2.348 12.48 5.163 16.274 9.61 17.172q.552.111 1.065.173a9.13 9.13 0 005.823-.976c.047.2.092.375.129.532-.569 5.233-.656 8.268 0 11.06h2.036c-.073-.335-.139-.662-.216-1-1.216-5.308-.3-12.182 1-17.84a4.459 4.459 0 002.269.565" fill="#c5c158"/>
      <path d="M163.515 102.767s-7.658-8.875 3.955-16.42l.29-.189-1.369-.205s5.553-3.472 5.209-1.833-1.384 4.994 0 8.74-.713 11.824-8.085 9.907" fill="#e34e45"/>
      <path d="M150.608 83.122c-1.316-2.317 12.551 3.16 13.945 19.936 0 0-7.785.418-11.556-4.328 0 0-3.535-2.874-1.258-8.49 0 0 .189-4.8-1.131-7.117" fill="#e34e45"/>
      <path d="M161.797 95.714s-8.423-6.848-2.515-13.592c2.044-2.822 1.972-4.467 3.142-3.746s5.16.65 6.411 5.744c.27 1.482 1.509 10.578-7.038 11.594M158.082 101.011s-6.218-.127-6.09 6.741c-.01.3.3.561.9.474a9.558 9.558 0 002.871-.974 3.791 3.791 0 00-.169 2.299c.11.445.821.905 1.155.22a7.85 7.85 0 014.8-4.392c3.9-1 6.05-1.21 4.974-2.915s-3.734-1.451-8.441-1.453" fill="#e34e45"/>
      <path d="M165.937 127.386h-19.253v4.767h19.253z" fill="#fff"/>
      <path d="M165.937 132.153h-19.253v33.806h19.253z" fill="#e34e45"/>
    </g>
  </g>
</svg>
